{"glyphs":{"0":{"ha":1046,"x_min":90,"x_max":1000,"o":"m 643 982 q 908 886 817 982 q 1000 611 1000 790 q 934 285 1000 425 q 744 67 868 144 q 450 -10 621 -10 q 182 88 274 -10 q 90 364 90 185 q 156 690 90 550 q 345 906 221 829 q 643 982 469 982 m 601 772 q 443 676 503 772 q 383 360 383 581 q 409 239 383 276 q 490 201 435 201 q 647 297 588 201 q 707 614 707 393 q 681 734 707 696 q 601 772 656 772 z "},"1":{"ha":643,"x_min":118,"x_max":629,"o":"m 163 974 l 629 974 l 440 0 l 151 0 l 296 743 l 118 743 l 163 974 z "},"2":{"ha":914,"x_min":14,"x_max":892,"o":"m 892 765 q 825 592 892 679 q 633 400 758 506 l 425 225 l 811 225 l 767 0 l 14 0 l 49 185 l 465 543 q 545 624 514 585 q 578 693 576 664 q 560 737 581 721 q 501 753 540 753 q 367 720 444 753 q 211 629 290 688 l 143 838 q 590 986 386 986 q 809 926 726 986 q 892 765 892 865 z "},"3":{"ha":910,"x_min":-4,"x_max":911,"o":"m 879 810 l 589 588 l 636 578 q 782 502 728 561 q 836 354 836 443 q 776 167 836 251 q 608 35 715 83 q 367 -12 501 -12 q 158 22 258 -12 q -4 111 58 56 l 138 308 q 385 203 246 203 q 507 235 464 203 q 550 326 550 268 q 518 389 550 367 q 426 411 486 411 l 253 411 l 282 563 l 528 763 l 174 763 l 214 975 l 911 975 l 879 810 z "},"4":{"ha":917,"x_min":22,"x_max":872,"o":"m 872 410 l 831 199 l 714 199 l 675 0 l 411 0 l 450 199 l 22 199 l 60 389 l 428 974 l 701 974 l 351 410 l 490 410 l 529 607 l 793 607 l 754 410 l 872 410 z "},"5":{"ha":928,"x_min":1,"x_max":924,"o":"m 476 749 l 453 622 l 517 622 q 760 554 671 622 q 849 372 849 486 q 788 175 849 263 q 618 38 726 88 q 372 -12 510 -12 q 172 22 272 -12 q 1 113 71 56 l 146 313 q 381 203 258 203 q 492 236 451 203 q 532 326 532 269 q 417 407 532 407 q 144 404 264 407 l 256 974 l 924 974 l 881 749 l 476 749 z "},"6":{"ha":938,"x_min":85,"x_max":951,"o":"m 425 -12 q 174 87 263 -12 q 85 360 85 186 q 158 681 85 539 q 361 905 232 824 q 650 986 490 986 q 817 964 735 986 q 951 903 899 942 l 807 710 q 625 774 739 774 q 460 715 524 774 q 378 551 397 657 q 478 620 419 596 q 608 644 536 644 q 796 575 728 644 q 864 389 864 506 q 807 181 864 272 q 649 38 750 89 q 425 -12 549 -12 m 457 208 q 563 247 525 208 q 601 353 601 286 q 577 419 601 396 q 507 443 553 443 q 401 406 440 443 q 360 307 363 368 q 381 235 357 263 q 457 208 406 208 z "},"7":{"ha":900,"x_min":110,"x_max":969,"o":"m 179 974 l 969 974 l 932 779 l 431 0 l 125 0 l 607 749 l 390 749 l 364 613 l 110 613 l 179 974 z "},"8":{"ha":932,"x_min":40,"x_max":888,"o":"m 582 986 q 806 925 725 986 q 888 760 888 864 q 846 625 888 689 q 738 521 804 561 q 821 436 790 492 q 851 317 851 381 q 793 145 851 219 q 630 29 735 71 q 390 -12 525 -12 q 134 53 228 -12 q 40 229 40 119 q 103 400 40 321 q 265 521 165 479 q 203 597 225 550 q 181 694 181 643 q 232 845 181 779 q 375 949 283 911 q 582 986 467 986 m 547 797 q 451 767 485 797 q 418 685 418 738 q 511 613 418 613 q 607 641 574 613 q 640 722 640 669 q 547 797 640 797 m 472 407 q 359 373 399 407 q 319 279 319 339 q 348 216 319 238 q 431 194 376 194 q 544 228 504 194 q 585 321 585 261 q 556 384 585 361 q 472 407 526 407 z "},"9":{"ha":936,"x_min":29,"x_max":896,"o":"m 172 264 q 354 201 239 201 q 519 258 456 201 q 603 422 583 315 q 371 329 510 329 q 187 399 254 329 q 119 585 119 468 q 176 794 119 703 q 331 935 232 885 q 556 986 431 986 q 807 887 718 986 q 896 614 896 788 q 822 292 896 435 q 619 69 749 150 q 329 -12 490 -12 q 165 10 246 -12 q 29 71 83 32 l 172 264 m 522 765 q 418 726 456 765 q 381 621 381 688 q 475 532 381 532 q 580 569 542 532 q 621 668 618 607 q 599 738 624 711 q 522 765 575 765 z "},"\u0000":{"ha":0,"x_min":0,"x_max":0,"o":""},"\r":{"ha":293,"x_min":0,"x_max":0,"o":""}," ":{"ha":293,"x_min":0,"x_max":0,"o":""},"A":{"ha":1047,"x_min":-4,"x_max":1024,"o":"m 638 990 q 922 902 819 990 q 1024 661 1024 814 q 1014 567 1024 625 l 904 0 l 615 0 l 657 219 l 326 219 l 285 0 l -4 0 l 104 567 q 203 790 129 694 q 389 938 276 886 q 638 990 501 990 m 724 567 q 729 615 729 600 q 693 714 729 678 q 593 750 657 750 q 464 700 518 750 q 393 567 410 650 l 367 431 l 697 431 l 724 567 z "},"Á":{"ha":1047,"x_min":-4,"x_max":1024,"o":"m 638 990 q 922 902 819 990 q 1024 661 1024 814 q 1014 567 1024 625 l 904 0 l 615 0 l 657 219 l 326 219 l 285 0 l -4 0 l 104 567 q 203 790 129 694 q 389 938 276 886 q 638 990 501 990 m 724 567 q 729 615 729 600 q 693 714 729 678 q 593 750 657 750 q 464 700 518 750 q 393 567 410 650 l 367 431 l 697 431 l 724 567 m 693 1289 l 914 1208 l 700 1039 l 517 1053 l 693 1289 z "},"Ă":{"ha":1047,"x_min":-4,"x_max":1024,"o":"m 638 990 q 922 902 819 990 q 1024 661 1024 814 q 1014 567 1024 625 l 904 0 l 615 0 l 657 219 l 326 219 l 285 0 l -4 0 l 104 567 q 203 790 129 694 q 389 938 276 886 q 638 990 501 990 m 724 567 q 729 615 729 600 q 693 714 729 678 q 593 750 657 750 q 464 700 518 750 q 393 567 410 650 l 367 431 l 697 431 l 724 567 m 628 1274 q 640 1219 624 1240 q 685 1199 656 1199 q 739 1219 715 1199 q 772 1274 763 1240 l 943 1274 q 839 1105 917 1168 q 654 1042 761 1042 q 507 1092 561 1042 q 453 1228 453 1142 q 457 1274 453 1251 l 628 1274 z "},"Ắ":{"ha":1047,"x_min":-4,"x_max":1024,"o":"m 638 990 q 922 902 819 990 q 1024 661 1024 814 q 1014 567 1024 625 l 904 0 l 615 0 l 657 219 l 326 219 l 285 0 l -4 0 l 104 567 q 203 790 129 694 q 389 938 276 886 q 638 990 501 990 m 724 567 q 729 615 729 600 q 693 714 729 678 q 593 750 657 750 q 464 700 518 750 q 393 567 410 650 l 367 431 l 697 431 l 724 567 z "},"Ặ":{"ha":1047,"x_min":-4,"x_max":1024,"o":"m 638 990 q 922 902 819 990 q 1024 661 1024 814 q 1014 567 1024 625 l 904 0 l 615 0 l 657 219 l 326 219 l 285 0 l -4 0 l 104 567 q 203 790 129 694 q 389 938 276 886 q 638 990 501 990 m 724 567 q 729 615 729 600 q 693 714 729 678 q 593 750 657 750 q 464 700 518 750 q 393 567 410 650 l 367 431 l 697 431 l 724 567 m 431 -92 q 517 -124 485 -92 q 550 -210 550 -157 q 499 -331 550 -282 q 374 -381 447 -381 q 287 -348 319 -381 q 254 -262 254 -315 q 306 -141 254 -190 q 431 -92 357 -92 m 581 1274 q 592 1219 576 1240 q 638 1199 608 1199 q 692 1219 668 1199 q 725 1274 715 1240 l 896 1274 q 792 1105 869 1168 q 607 1042 714 1042 q 460 1092 514 1042 q 406 1228 406 1142 q 410 1274 406 1251 l 581 1274 z "},"Ằ":{"ha":1047,"x_min":-4,"x_max":1024,"o":"m 638 990 q 922 902 819 990 q 1024 661 1024 814 q 1014 567 1024 625 l 904 0 l 615 0 l 657 219 l 326 219 l 285 0 l -4 0 l 104 567 q 203 790 129 694 q 389 938 276 886 q 638 990 501 990 m 724 567 q 729 615 729 600 q 693 714 729 678 q 593 750 657 750 q 464 700 518 750 q 393 567 410 650 l 367 431 l 697 431 l 724 567 z "},"Ẳ":{"ha":1047,"x_min":-4,"x_max":1024,"o":"m 638 990 q 922 902 819 990 q 1024 661 1024 814 q 1014 567 1024 625 l 904 0 l 615 0 l 657 219 l 326 219 l 285 0 l -4 0 l 104 567 q 203 790 129 694 q 389 938 276 886 q 638 990 501 990 m 724 567 q 729 615 729 600 q 693 714 729 678 q 593 750 657 750 q 464 700 518 750 q 393 567 410 650 l 367 431 l 697 431 l 724 567 z "},"Ẵ":{"ha":1047,"x_min":-4,"x_max":1024,"o":"m 638 990 q 922 902 819 990 q 1024 661 1024 814 q 1014 567 1024 625 l 904 0 l 615 0 l 657 219 l 326 219 l 285 0 l -4 0 l 104 567 q 203 790 129 694 q 389 938 276 886 q 638 990 501 990 m 724 567 q 729 615 729 600 q 693 714 729 678 q 593 750 657 750 q 464 700 518 750 q 393 567 410 650 l 367 431 l 697 431 l 724 567 z "},"Â":{"ha":1047,"x_min":-4,"x_max":1024,"o":"m 638 990 q 922 902 819 990 q 1024 661 1024 814 q 1014 567 1024 625 l 904 0 l 615 0 l 657 219 l 326 219 l 285 0 l -4 0 l 104 567 q 203 790 129 694 q 389 938 276 886 q 638 990 501 990 m 724 567 q 729 615 729 600 q 693 714 729 678 q 593 750 657 750 q 464 700 518 750 q 393 567 410 650 l 367 431 l 697 431 l 724 567 m 929 1049 l 743 1049 l 675 1144 l 569 1049 l 383 1049 l 578 1267 l 818 1267 l 929 1049 z "},"Ấ":{"ha":1047,"x_min":-4,"x_max":1024,"o":"m 638 990 q 922 902 819 990 q 1024 661 1024 814 q 1014 567 1024 625 l 904 0 l 615 0 l 657 219 l 326 219 l 285 0 l -4 0 l 104 567 q 203 790 129 694 q 389 938 276 886 q 638 990 501 990 m 724 567 q 729 615 729 600 q 693 714 729 678 q 593 750 657 750 q 464 700 518 750 q 393 567 410 650 l 367 431 l 697 431 l 724 567 z "},"Ậ":{"ha":1047,"x_min":-4,"x_max":1024,"o":"m 638 990 q 922 902 819 990 q 1024 661 1024 814 q 1014 567 1024 625 l 904 0 l 615 0 l 657 219 l 326 219 l 285 0 l -4 0 l 104 567 q 203 790 129 694 q 389 938 276 886 q 638 990 501 990 m 724 567 q 729 615 729 600 q 693 714 729 678 q 593 750 657 750 q 464 700 518 750 q 393 567 410 650 l 367 431 l 697 431 l 724 567 m 431 -92 q 517 -124 485 -92 q 550 -210 550 -157 q 499 -331 550 -282 q 374 -381 447 -381 q 287 -348 319 -381 q 254 -262 254 -315 q 306 -141 254 -190 q 431 -92 357 -92 m 881 1049 l 694 1049 l 626 1144 l 521 1049 l 335 1049 l 529 1267 l 769 1267 l 881 1049 z "},"Ầ":{"ha":1047,"x_min":-4,"x_max":1024,"o":"m 638 990 q 922 902 819 990 q 1024 661 1024 814 q 1014 567 1024 625 l 904 0 l 615 0 l 657 219 l 326 219 l 285 0 l -4 0 l 104 567 q 203 790 129 694 q 389 938 276 886 q 638 990 501 990 m 724 567 q 729 615 729 600 q 693 714 729 678 q 593 750 657 750 q 464 700 518 750 q 393 567 410 650 l 367 431 l 697 431 l 724 567 z "},"Ẩ":{"ha":1047,"x_min":-4,"x_max":1024,"o":"m 638 990 q 922 902 819 990 q 1024 661 1024 814 q 1014 567 1024 625 l 904 0 l 615 0 l 657 219 l 326 219 l 285 0 l -4 0 l 104 567 q 203 790 129 694 q 389 938 276 886 q 638 990 501 990 m 724 567 q 729 615 729 600 q 693 714 729 678 q 593 750 657 750 q 464 700 518 750 q 393 567 410 650 l 367 431 l 697 431 l 724 567 z "},"Ẫ":{"ha":1047,"x_min":-4,"x_max":1024,"o":"m 638 990 q 922 902 819 990 q 1024 661 1024 814 q 1014 567 1024 625 l 904 0 l 615 0 l 657 219 l 326 219 l 285 0 l -4 0 l 104 567 q 203 790 129 694 q 389 938 276 886 q 638 990 501 990 m 724 567 q 729 615 729 600 q 693 714 729 678 q 593 750 657 750 q 464 700 518 750 q 393 567 410 650 l 367 431 l 697 431 l 724 567 z "},"Ȁ":{"ha":1047,"x_min":-4,"x_max":1024,"o":"m 638 990 q 922 902 819 990 q 1024 661 1024 814 q 1014 567 1024 625 l 904 0 l 615 0 l 657 219 l 326 219 l 285 0 l -4 0 l 104 567 q 203 790 129 694 q 389 938 276 886 q 638 990 501 990 m 724 567 q 729 615 729 600 q 693 714 729 678 q 593 750 657 750 q 464 700 518 750 q 393 567 410 650 l 367 431 l 697 431 l 724 567 m 568 1288 l 635 1050 l 438 1036 l 347 1217 l 568 1288 m 858 1288 l 925 1050 l 728 1036 l 639 1217 l 858 1288 z "},"Ä":{"ha":1047,"x_min":-4,"x_max":1024,"o":"m 638 990 q 922 902 819 990 q 1024 661 1024 814 q 1014 567 1024 625 l 904 0 l 615 0 l 657 219 l 326 219 l 285 0 l -4 0 l 104 567 q 203 790 129 694 q 389 938 276 886 q 638 990 501 990 m 724 567 q 729 615 729 600 q 693 714 729 678 q 593 750 657 750 q 464 700 518 750 q 393 567 410 650 l 367 431 l 697 431 l 724 567 m 564 1276 q 633 1250 607 1276 q 658 1181 658 1224 q 617 1085 658 1125 q 519 1046 576 1046 q 450 1072 476 1046 q 424 1140 424 1099 q 465 1237 424 1197 q 564 1276 506 1276 m 838 1276 q 906 1250 881 1276 q 931 1181 931 1224 q 890 1085 931 1125 q 793 1046 850 1046 q 724 1072 750 1046 q 697 1140 697 1099 q 738 1237 697 1197 q 838 1276 779 1276 z "},"Ạ":{"ha":1047,"x_min":-4,"x_max":1024,"o":"m 638 990 q 922 902 819 990 q 1024 661 1024 814 q 1014 567 1024 625 l 904 0 l 615 0 l 657 219 l 326 219 l 285 0 l -4 0 l 104 567 q 203 790 129 694 q 389 938 276 886 q 638 990 501 990 m 724 567 q 729 615 729 600 q 693 714 729 678 q 593 750 657 750 q 464 700 518 750 q 393 567 410 650 l 367 431 l 697 431 l 724 567 m 431 -92 q 517 -124 485 -92 q 550 -210 550 -157 q 499 -331 550 -282 q 374 -381 447 -381 q 287 -348 319 -381 q 254 -262 254 -315 q 306 -141 254 -190 q 431 -92 357 -92 z "},"À":{"ha":1047,"x_min":-4,"x_max":1024,"o":"m 638 990 q 922 902 819 990 q 1024 661 1024 814 q 1014 567 1024 625 l 904 0 l 615 0 l 657 219 l 326 219 l 285 0 l -4 0 l 104 567 q 203 790 129 694 q 389 938 276 886 q 638 990 501 990 m 724 567 q 729 615 729 600 q 693 714 729 678 q 593 750 657 750 q 464 700 518 750 q 393 567 410 650 l 367 431 l 697 431 l 724 567 m 667 1289 l 817 1053 l 632 1039 l 446 1208 l 667 1289 z "},"Ả":{"ha":1047,"x_min":-4,"x_max":1024,"o":"m 638 990 q 922 902 819 990 q 1024 661 1024 814 q 1014 567 1024 625 l 904 0 l 615 0 l 657 219 l 326 219 l 285 0 l -4 0 l 104 567 q 203 790 129 694 q 389 938 276 886 q 638 990 501 990 m 724 567 q 729 615 729 600 q 693 714 729 678 q 593 750 657 750 q 464 700 518 750 q 393 567 410 650 l 367 431 l 697 431 l 724 567 m 731 1364 q 833 1333 797 1364 q 869 1253 869 1303 q 701 1029 869 1143 l 592 1078 q 654 1137 632 1107 q 676 1189 676 1167 q 668 1211 676 1203 q 644 1219 660 1219 q 588 1200 615 1219 l 539 1308 q 731 1364 642 1364 z "},"Ȃ":{"ha":1047,"x_min":-4,"x_max":1024,"o":"m 638 990 q 922 902 819 990 q 1024 661 1024 814 q 1014 567 1024 625 l 904 0 l 615 0 l 657 219 l 326 219 l 285 0 l -4 0 l 104 567 q 203 790 129 694 q 389 938 276 886 q 638 990 501 990 m 724 567 q 729 615 729 600 q 693 714 729 678 q 593 750 657 750 q 464 700 518 750 q 393 567 410 650 l 367 431 l 697 431 l 724 567 m 728 1047 q 716 1101 732 1081 q 671 1122 700 1122 q 617 1101 640 1122 q 583 1047 593 1081 l 413 1047 q 517 1216 439 1153 q 701 1279 594 1279 q 849 1229 794 1279 q 903 1093 903 1179 q 899 1047 903 1071 l 728 1047 z "},"Ā":{"ha":1047,"x_min":-4,"x_max":1024,"o":"m 638 990 q 922 902 819 990 q 1024 661 1024 814 q 1014 567 1024 625 l 904 0 l 615 0 l 657 219 l 326 219 l 285 0 l -4 0 l 104 567 q 203 790 129 694 q 389 938 276 886 q 638 990 501 990 m 724 567 q 729 615 729 600 q 693 714 729 678 q 593 750 657 750 q 464 700 518 750 q 393 567 410 650 l 367 431 l 697 431 l 724 567 m 447 1210 l 929 1210 l 897 1050 l 415 1050 l 447 1210 z "},"Ą":{"ha":1047,"x_min":-4,"x_max":1024,"o":"m 638 990 q 922 902 819 990 q 1024 661 1024 814 q 1014 567 1024 625 l 904 0 l 833 0 q 738 -72 771 -39 q 706 -140 706 -106 q 729 -167 706 -167 q 769 -156 744 -167 l 782 -299 q 632 -331 701 -331 q 534 -297 567 -331 q 501 -208 501 -264 q 615 1 501 -100 l 657 219 l 326 219 l 285 0 l -4 0 l 104 567 q 203 790 129 694 q 389 938 276 886 q 638 990 501 990 m 697 431 l 724 567 q 729 615 729 600 q 693 714 729 678 q 593 750 657 750 q 464 700 518 750 q 393 567 410 650 l 367 431 l 697 431 z "},"Å":{"ha":1047,"x_min":-4,"x_max":1024,"o":"m 638 990 q 922 902 819 990 q 1024 661 1024 814 q 1014 567 1024 625 l 904 0 l 615 0 l 657 219 l 326 219 l 285 0 l -4 0 l 104 567 q 203 790 129 694 q 389 938 276 886 q 638 990 501 990 m 724 567 q 729 615 729 600 q 693 714 729 678 q 593 750 657 750 q 464 700 518 750 q 393 567 410 650 l 367 431 l 697 431 l 724 567 m 703 1358 q 810 1315 768 1358 q 853 1210 853 1272 q 826 1117 853 1160 q 756 1048 800 1074 q 663 1022 713 1022 q 555 1065 597 1022 q 513 1169 513 1107 q 539 1263 513 1219 q 610 1333 565 1307 q 703 1358 654 1358 m 690 1247 q 644 1228 664 1247 q 625 1181 625 1208 q 639 1146 625 1160 q 675 1132 653 1132 q 721 1151 701 1132 q 740 1197 740 1171 q 726 1233 740 1218 q 690 1247 713 1247 z "},"Ǻ":{"ha":1047,"x_min":-4,"x_max":1024,"o":"m 638 990 q 922 902 819 990 q 1024 661 1024 814 q 1014 567 1024 625 l 904 0 l 615 0 l 657 219 l 326 219 l 285 0 l -4 0 l 104 567 q 203 790 129 694 q 389 938 276 886 q 638 990 501 990 m 724 567 q 729 615 729 600 q 693 714 729 678 q 593 750 657 750 q 464 700 518 750 q 393 567 410 650 l 367 431 l 697 431 l 724 567 m 700 1358 q 808 1315 765 1358 q 850 1210 850 1272 q 824 1117 850 1160 q 753 1048 797 1074 q 660 1022 710 1022 q 552 1065 594 1022 q 510 1169 510 1107 q 536 1263 510 1219 q 607 1333 563 1307 q 700 1358 651 1358 m 688 1247 q 642 1228 661 1247 q 622 1181 622 1208 q 636 1146 622 1160 q 672 1132 650 1132 q 718 1151 699 1132 q 738 1197 738 1171 q 724 1233 738 1218 q 688 1247 710 1247 m 782 1619 l 964 1513 l 732 1389 l 575 1429 l 782 1619 z "},"Ã":{"ha":1047,"x_min":-4,"x_max":1024,"o":"m 638 990 q 922 902 819 990 q 1024 661 1024 814 q 1014 567 1024 625 l 904 0 l 615 0 l 657 219 l 326 219 l 285 0 l -4 0 l 104 567 q 203 790 129 694 q 389 938 276 886 q 638 990 501 990 m 724 567 q 729 615 729 600 q 693 714 729 678 q 593 750 657 750 q 464 700 518 750 q 393 567 410 650 l 367 431 l 697 431 l 724 567 m 968 1276 q 900 1101 944 1158 q 782 1044 856 1044 q 719 1055 747 1044 q 661 1083 692 1065 q 608 1104 625 1104 q 557 1049 569 1104 l 407 1049 q 475 1223 429 1165 q 594 1281 521 1281 q 654 1271 628 1281 q 714 1243 681 1261 q 743 1228 729 1235 q 767 1222 757 1222 q 799 1235 788 1222 q 818 1276 811 1249 l 968 1276 z "},"Æ":{"ha":1568,"x_min":-86,"x_max":1617,"o":"m 1572 751 l 1065 751 l 1035 599 l 1494 599 l 1450 376 l 990 376 l 960 222 l 1481 222 l 1436 0 l 626 0 l 664 185 l 347 185 l 217 0 l -86 0 l 654 974 l 1617 974 l 1572 751 m 496 393 l 706 393 l 776 753 l 751 753 l 496 393 z "},"Ǽ":{"ha":1568,"x_min":-86,"x_max":1617,"o":"m 1572 751 l 1065 751 l 1035 599 l 1494 599 l 1450 376 l 990 376 l 960 222 l 1481 222 l 1436 0 l 626 0 l 664 185 l 347 185 l 217 0 l -86 0 l 654 974 l 1617 974 l 1572 751 m 496 393 l 706 393 l 776 753 l 751 753 l 496 393 m 1078 1289 l 1299 1208 l 1085 1039 l 901 1053 l 1078 1289 z "},"B":{"ha":1001,"x_min":6,"x_max":1008,"o":"m 796 518 q 908 447 868 501 q 949 317 949 393 q 892 151 949 222 q 735 40 836 79 q 504 0 633 0 l 6 0 l 200 974 l 679 974 q 920 917 832 974 q 1008 763 1008 860 q 949 611 1008 679 q 796 518 890 543 m 586 592 q 666 619 635 592 q 697 692 697 647 q 677 740 697 724 q 619 757 657 757 l 444 757 l 413 592 l 586 592 m 511 217 q 613 245 574 217 q 651 321 651 274 q 624 374 651 354 q 546 393 596 393 l 372 393 l 338 217 l 511 217 z "},"C":{"ha":994,"x_min":51,"x_max":1015,"o":"m 629 992 q 843 944 739 992 q 1015 818 947 897 l 826 619 q 727 716 786 681 q 608 751 668 751 q 479 714 539 751 q 384 611 419 676 q 349 467 349 546 q 375 347 349 400 q 449 264 401 294 q 557 233 497 233 q 680 265 614 233 q 800 347 746 296 l 949 169 q 744 32 861 83 q 517 -19 626 -19 q 275 40 381 -19 q 110 205 169 100 q 51 443 51 310 q 128 723 51 597 q 338 920 206 849 q 629 992 471 992 z "},"Ć":{"ha":994,"x_min":51,"x_max":1015,"o":"m 629 992 q 843 944 739 992 q 1015 818 947 897 l 826 619 q 727 716 786 681 q 608 751 668 751 q 479 714 539 751 q 384 611 419 676 q 349 467 349 546 q 375 347 349 400 q 449 264 401 294 q 557 233 497 233 q 680 265 614 233 q 800 347 746 296 l 949 169 q 744 32 861 83 q 517 -19 626 -19 q 275 40 381 -19 q 110 205 169 100 q 51 443 51 310 q 128 723 51 597 q 338 920 206 849 q 629 992 471 992 m 671 1289 l 892 1208 l 678 1039 l 494 1053 l 671 1289 z "},"Č":{"ha":994,"x_min":51,"x_max":1015,"o":"m 629 992 q 843 944 739 992 q 1015 818 947 897 l 826 619 q 727 716 786 681 q 608 751 668 751 q 479 714 539 751 q 384 611 419 676 q 349 467 349 546 q 375 347 349 400 q 449 264 401 294 q 557 233 497 233 q 680 265 614 233 q 800 347 746 296 l 949 169 q 744 32 861 83 q 517 -19 626 -19 q 275 40 381 -19 q 110 205 169 100 q 51 443 51 310 q 128 723 51 597 q 338 920 206 849 q 629 992 471 992 m 763 1265 l 949 1265 l 754 1047 l 514 1047 l 403 1265 l 589 1265 l 657 1169 l 763 1265 z "},"Ç":{"ha":994,"x_min":51,"x_max":1015,"o":"m 949 169 q 769 44 871 93 q 565 -17 667 -6 l 532 -74 q 606 -113 582 -86 q 629 -175 629 -140 q 567 -292 629 -253 q 414 -332 504 -332 q 258 -303 332 -332 l 322 -179 q 390 -193 354 -193 q 437 -183 418 -193 q 456 -158 456 -172 q 435 -135 456 -143 q 383 -126 414 -126 l 353 -126 l 411 -10 q 222 74 303 11 q 96 233 140 138 q 51 443 51 328 q 128 723 51 597 q 338 920 206 849 q 629 992 471 992 q 843 944 739 992 q 1015 818 947 897 l 826 619 q 727 716 786 681 q 608 751 668 751 q 479 714 539 751 q 384 611 419 676 q 349 467 349 546 q 375 347 349 400 q 449 264 401 294 q 557 233 497 233 q 680 265 614 233 q 800 347 746 296 l 949 169 z "},"Ḉ":{"ha":994,"x_min":51,"x_max":1015,"o":"m 925 1208 l 711 1039 l 528 1053 l 704 1289 l 925 1208 m 949 169 q 769 44 871 93 q 565 -17 667 -6 l 532 -74 q 606 -113 582 -86 q 629 -175 629 -140 q 567 -292 629 -253 q 414 -332 504 -332 q 258 -303 332 -332 l 322 -179 q 390 -193 354 -193 q 437 -183 418 -193 q 456 -158 456 -172 q 435 -135 456 -143 q 383 -126 414 -126 l 353 -126 l 411 -10 q 222 74 303 11 q 96 233 140 138 q 51 443 51 328 q 128 723 51 597 q 338 920 206 849 q 629 992 471 992 q 843 944 739 992 q 1015 818 947 897 l 826 619 q 727 716 786 681 q 608 751 668 751 q 479 714 539 751 q 384 611 419 676 q 349 467 349 546 q 375 347 349 400 q 449 264 401 294 q 557 233 497 233 q 680 265 614 233 q 800 347 746 296 l 949 169 z "},"Ĉ":{"ha":994,"x_min":51,"x_max":1015,"o":"m 629 992 q 843 944 739 992 q 1015 818 947 897 l 826 619 q 727 716 786 681 q 608 751 668 751 q 479 714 539 751 q 384 611 419 676 q 349 467 349 546 q 375 347 349 400 q 449 264 401 294 q 557 233 497 233 q 680 265 614 233 q 800 347 746 296 l 949 169 q 744 32 861 83 q 517 -19 626 -19 q 275 40 381 -19 q 110 205 169 100 q 51 443 51 310 q 128 723 51 597 q 338 920 206 849 q 629 992 471 992 m 907 1049 l 721 1049 l 653 1144 l 547 1049 l 361 1049 l 556 1267 l 796 1267 l 907 1049 z "},"Ċ":{"ha":994,"x_min":51,"x_max":1015,"o":"m 629 992 q 843 944 739 992 q 1015 818 947 897 l 826 619 q 727 716 786 681 q 608 751 668 751 q 479 714 539 751 q 384 611 419 676 q 349 467 349 546 q 375 347 349 400 q 449 264 401 294 q 557 233 497 233 q 680 265 614 233 q 800 347 746 296 l 949 169 q 744 32 861 83 q 517 -19 626 -19 q 275 40 381 -19 q 110 205 169 100 q 51 443 51 310 q 128 723 51 597 q 338 920 206 849 q 629 992 471 992 m 690 1336 q 777 1303 744 1336 q 810 1218 810 1271 q 758 1097 810 1146 q 633 1047 707 1047 q 547 1080 579 1047 q 514 1165 514 1113 q 565 1287 514 1238 q 690 1336 617 1336 z "},"D":{"ha":1061,"x_min":7,"x_max":1068,"o":"m 606 974 q 856 919 750 974 q 1015 765 961 864 q 1061 535 1068 665 q 972 256 1053 378 q 753 67 890 135 q 447 0 617 0 l 7 0 l 200 974 l 606 974 m 764 514 q 715 682 769 618 q 564 746 660 746 l 444 746 l 342 226 l 500 226 q 629 263 571 226 q 724 364 688 299 q 764 514 760 429 z "},"Ǆ":{"ha":2022,"x_min":7,"x_max":2064,"o":"m 606 974 q 856 919 750 974 q 1015 765 961 864 q 1061 535 1068 665 q 972 256 1053 378 q 753 67 890 135 q 447 0 617 0 l 7 0 l 200 974 l 606 974 m 764 514 q 715 682 769 618 q 564 746 660 746 l 444 746 l 342 226 l 500 226 q 629 263 571 226 q 724 364 688 299 q 764 514 760 429 m 2064 974 l 2035 790 l 1811 571 l 1928 571 l 1892 392 l 1629 392 l 1458 225 l 1950 225 l 1913 0 l 1035 0 l 1065 182 l 1303 414 l 1179 414 l 1215 593 l 1485 593 l 1644 749 l 1176 749 l 1213 974 l 2064 974 m 1790 1265 l 1976 1265 l 1782 1047 l 1542 1047 l 1431 1265 l 1617 1265 l 1685 1169 l 1790 1265 z "},"Ð":{"ha":1061,"x_min":-4,"x_max":1063,"o":"m 606 974 q 856 919 750 974 q 1015 765 961 864 q 1061 535 1068 665 q 972 256 1053 378 q 753 67 890 135 q 447 0 617 0 l 7 0 l 90 424 l -4 424 l 21 550 l 117 550 l 200 974 l 606 974 m 764 514 q 715 682 769 618 q 564 746 660 746 l 444 746 l 406 550 l 585 550 l 560 424 l 381 424 l 342 226 l 500 226 q 629 263 571 226 q 724 364 688 299 q 764 514 760 429 z "},"Ď":{"ha":1061,"x_min":7,"x_max":1063,"o":"m 606 974 q 856 919 750 974 q 1015 765 961 864 q 1061 535 1068 665 q 972 256 1053 378 q 753 67 890 135 q 447 0 617 0 l 7 0 l 200 974 l 606 974 m 764 514 q 715 682 769 618 q 564 746 660 746 l 444 746 l 342 226 l 500 226 q 629 263 571 226 q 724 364 688 299 q 764 514 760 429 m 738 1265 l 924 1265 l 729 1047 l 489 1047 l 378 1265 l 564 1265 l 632 1169 l 738 1265 z "},"Đ":{"ha":1061,"x_min":-4,"x_max":1068,"o":"m 606 974 q 856 919 750 974 q 1015 765 961 864 q 1061 535 1068 665 q 972 256 1053 378 q 753 67 890 135 q 447 0 617 0 l 7 0 l 90 424 l -4 424 l 21 550 l 117 550 l 200 974 l 606 974 m 764 514 q 715 682 769 618 q 564 746 660 746 l 444 746 l 406 550 l 585 550 l 560 424 l 381 424 l 342 226 l 500 226 q 629 263 571 226 q 724 364 688 299 q 764 514 760 429 z "},"Ḍ":{"ha":1061,"x_min":7,"x_max":1063,"o":"m 606 974 q 856 919 750 974 q 1015 765 961 864 q 1061 535 1068 665 q 972 256 1053 378 q 753 67 890 135 q 447 0 617 0 l 7 0 l 200 974 l 606 974 m 764 514 q 715 682 769 618 q 564 746 660 746 l 444 746 l 342 226 l 500 226 q 629 263 571 226 q 724 364 688 299 q 764 514 760 429 m 400 -92 q 487 -124 454 -92 q 519 -210 519 -157 q 468 -331 519 -282 q 343 -381 417 -381 q 256 -348 289 -381 q 224 -262 224 -315 q 275 -141 224 -190 q 400 -92 326 -92 z "},"Ḏ":{"ha":1061,"x_min":7,"x_max":1063,"o":"m 606 974 q 856 919 750 974 q 1015 765 961 864 q 1061 535 1068 665 q 972 256 1053 378 q 753 67 890 135 q 447 0 617 0 l 7 0 l 200 974 l 606 974 m 764 514 q 715 682 769 618 q 564 746 660 746 l 444 746 l 342 226 l 500 226 q 629 263 571 226 q 724 364 688 299 q 764 514 760 429 m 196 -106 l 599 -106 l 567 -267 l 164 -267 l 196 -106 z "},"ǅ":{"ha":1844,"x_min":7,"x_max":1872,"o":"m 606 974 q 856 919 750 974 q 1015 765 961 864 q 1061 535 1068 665 q 972 256 1053 378 q 753 67 890 135 q 447 0 617 0 l 7 0 l 200 974 l 606 974 m 764 514 q 715 682 769 618 q 564 746 660 746 l 444 746 l 342 226 l 500 226 q 629 263 571 226 q 724 364 688 299 q 764 514 760 429 m 1872 754 l 1842 589 l 1683 444 l 1764 444 l 1736 300 l 1526 300 l 1428 210 l 1778 210 l 1735 0 l 1029 0 l 1060 165 l 1224 315 l 1136 315 l 1164 460 l 1382 460 l 1475 544 l 1153 544 l 1193 756 l 1872 754 m 1674 1063 l 1860 1063 l 1665 844 l 1425 844 l 1314 1063 l 1500 1063 l 1568 967 l 1674 1063 z "},"E":{"ha":936,"x_min":17,"x_max":981,"o":"m 625 996 q 826 975 729 996 q 981 921 924 954 l 849 710 q 730 749 794 735 q 603 764 665 764 q 478 737 525 764 q 431 668 431 710 q 459 621 431 638 q 532 604 488 604 l 788 604 l 746 390 l 490 390 q 372 365 418 390 q 326 296 326 340 q 367 235 326 257 q 474 213 407 213 q 640 237 554 213 q 789 297 726 261 l 857 88 q 645 10 768 39 q 400 -19 522 -19 q 207 10 294 -19 q 68 94 119 39 q 17 222 17 149 q 19 260 17 247 q 101 417 33 350 q 275 514 169 483 q 194 585 222 539 q 165 690 165 632 q 168 729 165 715 q 313 924 190 853 q 625 996 436 996 z "},"É":{"ha":936,"x_min":17,"x_max":981,"o":"m 625 996 q 826 975 729 996 q 981 921 924 954 l 849 710 q 730 749 794 735 q 603 764 665 764 q 478 737 525 764 q 431 668 431 710 q 459 621 431 638 q 532 604 488 604 l 788 604 l 746 390 l 490 390 q 372 365 418 390 q 326 296 326 340 q 367 235 326 257 q 474 213 407 213 q 640 237 554 213 q 789 297 726 261 l 857 88 q 645 10 768 39 q 400 -19 522 -19 q 207 10 294 -19 q 68 94 119 39 q 17 222 17 149 q 19 260 17 247 q 101 417 33 350 q 275 514 169 483 q 194 585 222 539 q 165 690 165 632 q 168 729 165 715 q 313 924 190 853 q 625 996 436 996 m 678 1300 l 899 1219 l 685 1050 l 501 1064 l 678 1300 z "},"Ĕ":{"ha":936,"x_min":17,"x_max":981,"o":"m 625 996 q 826 975 729 996 q 981 921 924 954 l 849 710 q 730 749 794 735 q 603 764 665 764 q 478 737 525 764 q 431 668 431 710 q 459 621 431 638 q 532 604 488 604 l 788 604 l 746 390 l 490 390 q 372 365 418 390 q 326 296 326 340 q 367 235 326 257 q 474 213 407 213 q 640 237 554 213 q 789 297 726 261 l 857 88 q 645 10 768 39 q 400 -19 522 -19 q 207 10 294 -19 q 68 94 119 39 q 17 222 17 149 q 19 260 17 247 q 101 417 33 350 q 275 514 169 483 q 194 585 222 539 q 165 690 165 632 q 168 729 165 715 q 313 924 190 853 q 625 996 436 996 m 613 1285 q 624 1231 608 1251 q 669 1210 640 1210 q 724 1231 700 1210 q 757 1285 747 1251 l 928 1285 q 824 1116 901 1179 q 639 1053 746 1053 q 492 1103 546 1053 q 438 1239 438 1153 q 442 1285 438 1263 l 613 1285 z "},"Ě":{"ha":936,"x_min":17,"x_max":981,"o":"m 625 996 q 826 975 729 996 q 981 921 924 954 l 849 710 q 730 749 794 735 q 603 764 665 764 q 478 737 525 764 q 431 668 431 710 q 459 621 431 638 q 532 604 488 604 l 788 604 l 746 390 l 490 390 q 372 365 418 390 q 326 296 326 340 q 367 235 326 257 q 474 213 407 213 q 640 237 554 213 q 789 297 726 261 l 857 88 q 645 10 768 39 q 400 -19 522 -19 q 207 10 294 -19 q 68 94 119 39 q 17 222 17 149 q 19 260 17 247 q 101 417 33 350 q 275 514 169 483 q 194 585 222 539 q 165 690 165 632 q 168 729 165 715 q 313 924 190 853 q 625 996 436 996 m 769 1276 l 956 1276 l 761 1058 l 521 1058 l 410 1276 l 596 1276 l 664 1181 l 769 1276 z "},"Ḝ":{"ha":936,"x_min":17,"x_max":981,"o":"m 597 1042 q 450 1092 504 1042 q 396 1228 396 1142 q 400 1274 396 1251 l 571 1274 q 583 1219 567 1240 q 628 1199 599 1199 q 682 1219 658 1199 q 715 1274 706 1240 l 886 1274 q 782 1105 860 1168 q 597 1042 704 1042 m 857 88 q 694 22 788 49 q 499 -15 600 -4 l 464 -74 q 538 -113 514 -86 q 561 -175 561 -140 q 499 -292 561 -253 q 346 -332 436 -332 q 190 -303 264 -332 l 254 -179 q 322 -193 286 -193 q 369 -183 350 -193 q 388 -158 388 -172 q 367 -135 388 -143 q 315 -126 346 -126 l 285 -126 l 340 -17 q 108 60 199 -4 q 17 222 17 124 q 19 260 17 247 q 101 417 33 350 q 275 514 169 483 q 194 585 222 539 q 165 690 165 632 q 168 729 165 715 q 313 924 190 853 q 625 996 436 996 q 826 975 729 996 q 981 921 924 954 l 849 710 q 730 749 794 735 q 603 764 665 764 q 478 737 525 764 q 431 668 431 710 q 459 621 431 638 q 532 604 488 604 l 788 604 l 746 390 l 490 390 q 372 365 418 390 q 326 296 326 340 q 367 235 326 257 q 474 213 407 213 q 640 237 554 213 q 789 297 726 261 l 857 88 z "},"Ê":{"ha":936,"x_min":17,"x_max":981,"o":"m 625 996 q 826 975 729 996 q 981 921 924 954 l 849 710 q 730 749 794 735 q 603 764 665 764 q 478 737 525 764 q 431 668 431 710 q 459 621 431 638 q 532 604 488 604 l 788 604 l 746 390 l 490 390 q 372 365 418 390 q 326 296 326 340 q 367 235 326 257 q 474 213 407 213 q 640 237 554 213 q 789 297 726 261 l 857 88 q 645 10 768 39 q 400 -19 522 -19 q 207 10 294 -19 q 68 94 119 39 q 17 222 17 149 q 19 260 17 247 q 101 417 33 350 q 275 514 169 483 q 194 585 222 539 q 165 690 165 632 q 168 729 165 715 q 313 924 190 853 q 625 996 436 996 m 914 1060 l 728 1060 l 660 1156 l 554 1060 l 368 1060 l 563 1278 l 803 1278 l 914 1060 z "},"Ế":{"ha":936,"x_min":17,"x_max":981,"o":"m 625 996 q 826 975 729 996 q 981 921 924 954 l 849 710 q 730 749 794 735 q 603 764 665 764 q 478 737 525 764 q 431 668 431 710 q 459 621 431 638 q 532 604 488 604 l 788 604 l 746 390 l 490 390 q 372 365 418 390 q 326 296 326 340 q 367 235 326 257 q 474 213 407 213 q 640 237 554 213 q 789 297 726 261 l 857 88 q 645 10 768 39 q 400 -19 522 -19 q 207 10 294 -19 q 68 94 119 39 q 17 222 17 149 q 19 260 17 247 q 101 417 33 350 q 275 514 169 483 q 194 585 222 539 q 165 690 165 632 q 168 729 165 715 q 313 924 190 853 q 625 996 436 996 m 942 1056 l 729 1056 l 658 1147 l 551 1056 l 340 1056 l 539 1236 l 804 1236 l 942 1056 m 746 1513 l 928 1406 l 696 1282 l 539 1322 l 746 1513 z "},"Ệ":{"ha":936,"x_min":17,"x_max":981,"o":"m 625 996 q 826 975 729 996 q 981 921 924 954 l 849 710 q 730 749 794 735 q 603 764 665 764 q 478 737 525 764 q 431 668 431 710 q 459 621 431 638 q 532 604 488 604 l 788 604 l 746 390 l 490 390 q 372 365 418 390 q 326 296 326 340 q 367 235 326 257 q 474 213 407 213 q 640 237 554 213 q 789 297 726 261 l 857 88 q 645 10 768 39 q 400 -19 522 -19 q 207 10 294 -19 q 68 94 119 39 q 17 222 17 149 q 19 260 17 247 q 101 417 33 350 q 275 514 169 483 q 194 585 222 539 q 165 690 165 632 q 168 729 165 715 q 313 924 190 853 q 625 996 436 996 m 408 -92 q 495 -124 463 -92 q 528 -210 528 -157 q 476 -331 528 -282 q 351 -381 425 -381 q 265 -348 297 -381 q 232 -262 232 -315 q 283 -141 232 -190 q 408 -92 335 -92 m 858 1049 l 672 1049 l 604 1144 l 499 1049 l 313 1049 l 507 1267 l 747 1267 l 858 1049 z "},"Ề":{"ha":936,"x_min":17,"x_max":981,"o":"m 625 996 q 826 975 729 996 q 981 921 924 954 l 849 710 q 730 749 794 735 q 603 764 665 764 q 478 737 525 764 q 431 668 431 710 q 459 621 431 638 q 532 604 488 604 l 788 604 l 746 390 l 490 390 q 372 365 418 390 q 326 296 326 340 q 367 235 326 257 q 474 213 407 213 q 640 237 554 213 q 789 297 726 261 l 857 88 q 645 10 768 39 q 400 -19 522 -19 q 207 10 294 -19 q 68 94 119 39 q 17 222 17 149 q 19 260 17 247 q 101 417 33 350 q 275 514 169 483 q 194 585 222 539 q 165 690 165 632 q 168 729 165 715 q 313 924 190 853 q 625 996 436 996 m 946 1056 l 733 1056 l 663 1147 l 556 1056 l 344 1056 l 543 1236 l 808 1236 l 946 1056 m 622 1513 l 829 1322 l 672 1282 l 442 1406 l 622 1513 z "},"Ể":{"ha":936,"x_min":17,"x_max":981,"o":"m 625 996 q 826 975 729 996 q 981 921 924 954 l 849 710 q 730 749 794 735 q 603 764 665 764 q 478 737 525 764 q 431 668 431 710 q 459 621 431 638 q 532 604 488 604 l 788 604 l 746 390 l 490 390 q 372 365 418 390 q 326 296 326 340 q 367 235 326 257 q 474 213 407 213 q 640 237 554 213 q 789 297 726 261 l 857 88 q 645 10 768 39 q 400 -19 522 -19 q 207 10 294 -19 q 68 94 119 39 q 17 222 17 149 q 19 260 17 247 q 101 417 33 350 q 275 514 169 483 q 194 585 222 539 q 165 690 165 632 q 168 729 165 715 q 313 924 190 853 q 625 996 436 996 m 954 1056 l 742 1056 l 671 1147 l 564 1056 l 353 1056 l 551 1236 l 817 1236 l 954 1056 m 742 1528 q 831 1503 803 1528 q 860 1440 860 1478 q 828 1359 860 1397 q 724 1281 796 1321 l 624 1321 q 672 1353 656 1339 q 689 1383 689 1368 q 664 1403 689 1403 q 617 1388 638 1403 l 571 1479 q 742 1528 663 1528 z "},"Ễ":{"ha":936,"x_min":17,"x_max":1000,"o":"m 625 996 q 826 975 729 996 q 981 921 924 954 l 849 710 q 730 749 794 735 q 603 764 665 764 q 478 737 525 764 q 431 668 431 710 q 459 621 431 638 q 532 604 488 604 l 788 604 l 746 390 l 490 390 q 372 365 418 390 q 326 296 326 340 q 367 235 326 257 q 474 213 407 213 q 640 237 554 213 q 789 297 726 261 l 857 88 q 645 10 768 39 q 400 -19 522 -19 q 207 10 294 -19 q 68 94 119 39 q 17 222 17 149 q 19 260 17 247 q 101 417 33 350 q 275 514 169 483 q 194 585 222 539 q 165 690 165 632 q 168 729 165 715 q 313 924 190 853 q 625 996 436 996 m 965 1056 l 753 1056 l 682 1147 l 575 1056 l 364 1056 l 563 1236 l 828 1236 l 965 1056 m 1000 1478 q 939 1331 981 1379 q 822 1283 897 1283 q 757 1292 786 1283 q 690 1318 728 1301 q 656 1333 672 1326 q 626 1339 639 1339 q 592 1326 603 1339 q 575 1286 581 1314 l 446 1286 q 508 1433 465 1385 q 624 1482 550 1482 q 692 1472 661 1482 q 760 1446 724 1463 q 819 1426 801 1426 q 854 1440 842 1426 q 872 1478 867 1453 l 1000 1478 z "},"Ȅ":{"ha":936,"x_min":17,"x_max":981,"o":"m 625 996 q 826 975 729 996 q 981 921 924 954 l 849 710 q 730 749 794 735 q 603 764 665 764 q 478 737 525 764 q 431 668 431 710 q 459 621 431 638 q 532 604 488 604 l 788 604 l 746 390 l 490 390 q 372 365 418 390 q 326 296 326 340 q 367 235 326 257 q 474 213 407 213 q 640 237 554 213 q 789 297 726 261 l 857 88 q 645 10 768 39 q 400 -19 522 -19 q 207 10 294 -19 q 68 94 119 39 q 17 222 17 149 q 19 260 17 247 q 101 417 33 350 q 275 514 169 483 q 194 585 222 539 q 165 690 165 632 q 168 729 165 715 q 313 924 190 853 q 625 996 436 996 m 553 1299 l 619 1061 l 422 1047 l 332 1228 l 553 1299 m 843 1299 l 910 1061 l 713 1047 l 624 1228 l 843 1299 z "},"Ë":{"ha":936,"x_min":17,"x_max":981,"o":"m 625 996 q 826 975 729 996 q 981 921 924 954 l 849 710 q 730 749 794 735 q 603 764 665 764 q 478 737 525 764 q 431 668 431 710 q 459 621 431 638 q 532 604 488 604 l 788 604 l 746 390 l 490 390 q 372 365 418 390 q 326 296 326 340 q 367 235 326 257 q 474 213 407 213 q 640 237 554 213 q 789 297 726 261 l 857 88 q 645 10 768 39 q 400 -19 522 -19 q 207 10 294 -19 q 68 94 119 39 q 17 222 17 149 q 19 260 17 247 q 101 417 33 350 q 275 514 169 483 q 194 585 222 539 q 165 690 165 632 q 168 729 165 715 q 313 924 190 853 q 625 996 436 996 m 549 1288 q 617 1261 592 1288 q 643 1192 643 1235 q 602 1097 643 1136 q 504 1057 561 1057 q 435 1083 461 1057 q 408 1151 408 1110 q 449 1248 408 1208 q 549 1288 490 1288 m 822 1288 q 890 1261 865 1288 q 915 1192 915 1235 q 875 1097 915 1136 q 778 1057 835 1057 q 708 1083 735 1057 q 682 1151 682 1110 q 723 1248 682 1208 q 822 1288 764 1288 z "},"Ė":{"ha":936,"x_min":17,"x_max":981,"o":"m 625 996 q 826 975 729 996 q 981 921 924 954 l 849 710 q 730 749 794 735 q 603 764 665 764 q 478 737 525 764 q 431 668 431 710 q 459 621 431 638 q 532 604 488 604 l 788 604 l 746 390 l 490 390 q 372 365 418 390 q 326 296 326 340 q 367 235 326 257 q 474 213 407 213 q 640 237 554 213 q 789 297 726 261 l 857 88 q 645 10 768 39 q 400 -19 522 -19 q 207 10 294 -19 q 68 94 119 39 q 17 222 17 149 q 19 260 17 247 q 101 417 33 350 q 275 514 169 483 q 194 585 222 539 q 165 690 165 632 q 168 729 165 715 q 313 924 190 853 q 625 996 436 996 m 697 1347 q 784 1315 751 1347 q 817 1229 817 1282 q 765 1108 817 1157 q 640 1058 714 1058 q 553 1091 586 1058 q 521 1176 521 1124 q 572 1298 521 1249 q 697 1347 624 1347 z "},"Ẹ":{"ha":936,"x_min":17,"x_max":981,"o":"m 625 996 q 826 975 729 996 q 981 921 924 954 l 849 710 q 730 749 794 735 q 603 764 665 764 q 478 737 525 764 q 431 668 431 710 q 459 621 431 638 q 532 604 488 604 l 788 604 l 746 390 l 490 390 q 372 365 418 390 q 326 296 326 340 q 367 235 326 257 q 474 213 407 213 q 640 237 554 213 q 789 297 726 261 l 857 88 q 645 10 768 39 q 400 -19 522 -19 q 207 10 294 -19 q 68 94 119 39 q 17 222 17 149 q 19 260 17 247 q 101 417 33 350 q 275 514 169 483 q 194 585 222 539 q 165 690 165 632 q 168 729 165 715 q 313 924 190 853 q 625 996 436 996 m 408 -92 q 495 -124 463 -92 q 528 -210 528 -157 q 476 -331 528 -282 q 351 -381 425 -381 q 265 -348 297 -381 q 232 -262 232 -315 q 283 -141 232 -190 q 408 -92 335 -92 z "},"È":{"ha":936,"x_min":17,"x_max":981,"o":"m 625 996 q 826 975 729 996 q 981 921 924 954 l 849 710 q 730 749 794 735 q 603 764 665 764 q 478 737 525 764 q 431 668 431 710 q 459 621 431 638 q 532 604 488 604 l 788 604 l 746 390 l 490 390 q 372 365 418 390 q 326 296 326 340 q 367 235 326 257 q 474 213 407 213 q 640 237 554 213 q 789 297 726 261 l 857 88 q 645 10 768 39 q 400 -19 522 -19 q 207 10 294 -19 q 68 94 119 39 q 17 222 17 149 q 19 260 17 247 q 101 417 33 350 q 275 514 169 483 q 194 585 222 539 q 165 690 165 632 q 168 729 165 715 q 313 924 190 853 q 625 996 436 996 m 651 1300 l 801 1064 l 617 1050 l 431 1219 l 651 1300 z "},"Ẻ":{"ha":936,"x_min":17,"x_max":981,"o":"m 625 996 q 826 975 729 996 q 981 921 924 954 l 849 710 q 730 749 794 735 q 603 764 665 764 q 478 737 525 764 q 431 668 431 710 q 459 621 431 638 q 532 604 488 604 l 788 604 l 746 390 l 490 390 q 372 365 418 390 q 326 296 326 340 q 367 235 326 257 q 474 213 407 213 q 640 237 554 213 q 789 297 726 261 l 857 88 q 645 10 768 39 q 400 -19 522 -19 q 207 10 294 -19 q 68 94 119 39 q 17 222 17 149 q 19 260 17 247 q 101 417 33 350 q 275 514 169 483 q 194 585 222 539 q 165 690 165 632 q 168 729 165 715 q 313 924 190 853 q 625 996 436 996 m 715 1375 q 818 1344 782 1375 q 854 1264 854 1314 q 686 1040 854 1154 l 576 1089 q 639 1148 617 1118 q 661 1200 661 1178 q 653 1222 661 1214 q 629 1231 644 1231 q 572 1211 600 1231 l 524 1319 q 715 1375 626 1375 z "},"Ȇ":{"ha":936,"x_min":17,"x_max":981,"o":"m 625 996 q 826 975 729 996 q 981 921 924 954 l 849 710 q 730 749 794 735 q 603 764 665 764 q 478 737 525 764 q 431 668 431 710 q 459 621 431 638 q 532 604 488 604 l 788 604 l 746 390 l 490 390 q 372 365 418 390 q 326 296 326 340 q 367 235 326 257 q 474 213 407 213 q 640 237 554 213 q 789 297 726 261 l 857 88 q 645 10 768 39 q 400 -19 522 -19 q 207 10 294 -19 q 68 94 119 39 q 17 222 17 149 q 19 260 17 247 q 101 417 33 350 q 275 514 169 483 q 194 585 222 539 q 165 690 165 632 q 168 729 165 715 q 313 924 190 853 q 625 996 436 996 m 713 1058 q 701 1113 717 1092 q 656 1133 685 1133 q 601 1113 625 1133 q 568 1058 578 1092 l 397 1058 q 501 1227 424 1164 q 686 1290 579 1290 q 833 1240 779 1290 q 888 1104 888 1190 q 883 1058 888 1082 l 713 1058 z "},"Ē":{"ha":936,"x_min":17,"x_max":981,"o":"m 625 996 q 826 975 729 996 q 981 921 924 954 l 849 710 q 730 749 794 735 q 603 764 665 764 q 478 737 525 764 q 431 668 431 710 q 459 621 431 638 q 532 604 488 604 l 788 604 l 746 390 l 490 390 q 372 365 418 390 q 326 296 326 340 q 367 235 326 257 q 474 213 407 213 q 640 237 554 213 q 789 297 726 261 l 857 88 q 645 10 768 39 q 400 -19 522 -19 q 207 10 294 -19 q 68 94 119 39 q 17 222 17 149 q 19 260 17 247 q 101 417 33 350 q 275 514 169 483 q 194 585 222 539 q 165 690 165 632 q 168 729 165 715 q 313 924 190 853 q 625 996 436 996 m 432 1221 l 914 1221 l 882 1061 l 400 1061 l 432 1221 z "},"Ḗ":{"ha":936,"x_min":17,"x_max":981,"o":"m 625 996 q 826 975 729 996 q 981 921 924 954 l 849 710 q 730 749 794 735 q 603 764 665 764 q 478 737 525 764 q 431 668 431 710 q 459 621 431 638 q 532 604 488 604 l 788 604 l 746 390 l 490 390 q 372 365 418 390 q 326 296 326 340 q 367 235 326 257 q 474 213 407 213 q 640 237 554 213 q 789 297 726 261 l 857 88 q 645 10 768 39 q 400 -19 522 -19 q 207 10 294 -19 q 68 94 119 39 q 17 222 17 149 q 19 260 17 247 q 101 417 33 350 q 275 514 169 483 q 194 585 222 539 q 165 690 165 632 q 168 729 165 715 q 313 924 190 853 q 625 996 436 996 z "},"Ḕ":{"ha":936,"x_min":17,"x_max":981,"o":"m 625 996 q 826 975 729 996 q 981 921 924 954 l 849 710 q 730 749 794 735 q 603 764 665 764 q 478 737 525 764 q 431 668 431 710 q 459 621 431 638 q 532 604 488 604 l 788 604 l 746 390 l 490 390 q 372 365 418 390 q 326 296 326 340 q 367 235 326 257 q 474 213 407 213 q 640 237 554 213 q 789 297 726 261 l 857 88 q 645 10 768 39 q 400 -19 522 -19 q 207 10 294 -19 q 68 94 119 39 q 17 222 17 149 q 19 260 17 247 q 101 417 33 350 q 275 514 169 483 q 194 585 222 539 q 165 690 165 632 q 168 729 165 715 q 313 924 190 853 q 625 996 436 996 z "},"Ę":{"ha":936,"x_min":17,"x_max":981,"o":"m 474 213 q 640 237 554 213 q 789 297 726 261 l 857 88 q 736 -33 783 31 q 689 -139 689 -96 q 713 -167 689 -167 q 751 -156 729 -167 l 764 -299 q 619 -331 685 -331 q 520 -301 557 -331 q 483 -211 483 -271 q 513 -103 483 -153 q 608 1 543 -53 q 400 -19 507 -19 q 207 10 294 -19 q 68 94 119 39 q 17 222 17 149 q 19 260 17 247 q 101 417 33 350 q 275 514 169 483 q 194 585 222 539 q 165 690 165 632 q 168 729 165 715 q 313 924 190 853 q 625 996 436 996 q 826 975 729 996 q 981 921 924 954 l 849 710 q 730 749 794 735 q 603 764 665 764 q 478 737 525 764 q 431 668 431 710 q 459 621 431 638 q 532 604 488 604 l 788 604 l 746 390 l 490 390 q 372 365 418 390 q 326 296 326 340 q 367 235 326 257 q 474 213 407 213 z "},"Ẽ":{"ha":936,"x_min":17,"x_max":981,"o":"m 625 996 q 826 975 729 996 q 981 921 924 954 l 849 710 q 730 749 794 735 q 603 764 665 764 q 478 737 525 764 q 431 668 431 710 q 459 621 431 638 q 532 604 488 604 l 788 604 l 746 390 l 490 390 q 372 365 418 390 q 326 296 326 340 q 367 235 326 257 q 474 213 407 213 q 640 237 554 213 q 789 297 726 261 l 857 88 q 645 10 768 39 q 400 -19 522 -19 q 207 10 294 -19 q 68 94 119 39 q 17 222 17 149 q 19 260 17 247 q 101 417 33 350 q 275 514 169 483 q 194 585 222 539 q 165 690 165 632 q 168 729 165 715 q 313 924 190 853 q 625 996 436 996 m 953 1288 q 885 1113 929 1169 q 767 1056 840 1056 q 704 1066 732 1056 q 646 1094 676 1076 q 593 1115 610 1115 q 542 1060 554 1115 l 392 1060 q 460 1234 414 1176 q 579 1292 506 1292 q 639 1282 613 1292 q 699 1254 665 1272 q 728 1240 714 1246 q 751 1233 742 1233 q 784 1247 772 1233 q 803 1288 796 1260 l 953 1288 z "},"F":{"ha":785,"x_min":-10,"x_max":904,"o":"m 561 750 q 460 714 504 750 q 406 626 417 678 l 392 554 l 747 554 l 703 332 l 347 332 l 281 0 l -10 0 l 122 654 q 267 901 153 811 q 549 992 382 992 q 745 972 650 992 q 904 921 840 951 l 806 692 q 681 734 750 718 q 561 750 613 750 z "},"G":{"ha":1043,"x_min":50,"x_max":1043,"o":"m 772 510 l 1021 510 l 921 0 l 710 0 l 719 50 q 494 -19 606 -19 q 264 40 365 -19 q 106 203 163 99 q 50 439 50 308 q 129 721 50 594 q 344 919 208 847 q 643 992 479 992 q 864 951 756 992 q 1043 842 972 911 l 860 644 q 750 722 815 693 q 621 751 685 751 q 485 713 547 751 q 385 608 422 675 q 347 460 347 540 q 374 338 347 392 q 447 252 400 283 q 553 221 493 221 q 645 240 599 221 q 731 294 692 260 l 772 510 z "},"Ğ":{"ha":1043,"x_min":50,"x_max":1043,"o":"m 772 510 l 1021 510 l 921 0 l 710 0 l 719 50 q 494 -19 606 -19 q 264 40 365 -19 q 106 203 163 99 q 50 439 50 308 q 129 721 50 594 q 344 919 208 847 q 643 992 479 992 q 864 951 756 992 q 1043 842 972 911 l 860 644 q 750 722 815 693 q 621 751 685 751 q 485 713 547 751 q 385 608 422 675 q 347 460 347 540 q 374 338 347 392 q 447 252 400 283 q 553 221 493 221 q 645 240 599 221 q 731 294 692 260 l 772 510 m 610 1274 q 622 1219 606 1240 q 667 1199 638 1199 q 721 1219 697 1199 q 754 1274 744 1240 l 925 1274 q 821 1105 899 1168 q 636 1042 743 1042 q 489 1092 543 1042 q 435 1228 435 1142 q 439 1274 435 1251 l 610 1274 z "},"Ǧ":{"ha":1043,"x_min":50,"x_max":1043,"o":"m 772 510 l 1021 510 l 921 0 l 710 0 l 719 50 q 494 -19 606 -19 q 264 40 365 -19 q 106 203 163 99 q 50 439 50 308 q 129 721 50 594 q 344 919 208 847 q 643 992 479 992 q 864 951 756 992 q 1043 842 972 911 l 860 644 q 750 722 815 693 q 621 751 685 751 q 485 713 547 751 q 385 608 422 675 q 347 460 347 540 q 374 338 347 392 q 447 252 400 283 q 553 221 493 221 q 645 240 599 221 q 731 294 692 260 l 772 510 m 767 1265 l 953 1265 l 758 1047 l 518 1047 l 407 1265 l 593 1265 l 661 1169 l 767 1265 z "},"Ĝ":{"ha":1043,"x_min":50,"x_max":1043,"o":"m 772 510 l 1021 510 l 921 0 l 710 0 l 719 50 q 494 -19 606 -19 q 264 40 365 -19 q 106 203 163 99 q 50 439 50 308 q 129 721 50 594 q 344 919 208 847 q 643 992 479 992 q 864 951 756 992 q 1043 842 972 911 l 860 644 q 750 722 815 693 q 621 751 685 751 q 485 713 547 751 q 385 608 422 675 q 347 460 347 540 q 374 338 347 392 q 447 252 400 283 q 553 221 493 221 q 645 240 599 221 q 731 294 692 260 l 772 510 m 910 1049 l 724 1049 l 656 1144 l 550 1049 l 364 1049 l 558 1267 l 799 1267 l 910 1049 z "},"Ģ":{"ha":1043,"x_min":50,"x_max":1043,"o":"m 772 510 l 1021 510 l 921 0 l 710 0 l 719 50 q 494 -19 606 -19 q 264 40 365 -19 q 106 203 163 99 q 50 439 50 308 q 129 721 50 594 q 344 919 208 847 q 643 992 479 992 q 864 951 756 992 q 1043 842 972 911 l 860 644 q 750 722 815 693 q 621 751 685 751 q 485 713 547 751 q 385 608 422 675 q 347 460 347 540 q 374 338 347 392 q 447 252 400 283 q 553 221 493 221 q 645 240 599 221 q 731 294 692 260 l 772 510 m 418 -83 l 640 -83 l 486 -332 l 331 -332 l 418 -83 z "},"Ġ":{"ha":1043,"x_min":50,"x_max":1043,"o":"m 772 510 l 1021 510 l 921 0 l 710 0 l 719 50 q 494 -19 606 -19 q 264 40 365 -19 q 106 203 163 99 q 50 439 50 308 q 129 721 50 594 q 344 919 208 847 q 643 992 479 992 q 864 951 756 992 q 1043 842 972 911 l 860 644 q 750 722 815 693 q 621 751 685 751 q 485 713 547 751 q 385 608 422 675 q 347 460 347 540 q 374 338 347 392 q 447 252 400 283 q 553 221 493 221 q 645 240 599 221 q 731 294 692 260 l 772 510 m 693 1336 q 780 1303 747 1336 q 813 1218 813 1271 q 761 1097 813 1146 q 636 1047 710 1047 q 549 1080 582 1047 q 517 1165 517 1113 q 568 1287 517 1238 q 693 1336 619 1336 z "},"Ḡ":{"ha":1043,"x_min":50,"x_max":1043,"o":"m 772 510 l 1021 510 l 921 0 l 710 0 l 719 50 q 494 -19 606 -19 q 264 40 365 -19 q 106 203 163 99 q 50 439 50 308 q 129 721 50 594 q 344 919 208 847 q 643 992 479 992 q 864 951 756 992 q 1043 842 972 911 l 860 644 q 750 722 815 693 q 621 751 685 751 q 485 713 547 751 q 385 608 422 675 q 347 460 347 540 q 374 338 347 392 q 447 252 400 283 q 553 221 493 221 q 645 240 599 221 q 731 294 692 260 l 772 510 m 428 1210 l 910 1210 l 878 1050 l 396 1050 l 428 1210 z "},"H":{"ha":1194,"x_min":60,"x_max":1178,"o":"m 889 974 l 1178 974 l 983 0 l 694 0 l 767 363 l 421 363 l 349 0 l 60 0 l 254 974 l 543 974 l 465 585 l 811 585 l 889 974 z "},"Ħ":{"ha":1215,"x_min":69,"x_max":1276,"o":"m 1276 842 l 1251 715 l 1138 715 l 994 0 l 704 0 l 776 363 l 431 363 l 358 0 l 69 0 l 213 715 l 99 715 l 124 843 l 238 843 l 264 974 l 553 974 l 526 843 l 872 842 l 899 974 l 1189 974 l 1163 842 l 1276 842 m 821 585 l 847 715 l 501 715 l 475 585 l 821 585 z "},"Ḫ":{"ha":1194,"x_min":60,"x_max":1178,"o":"m 889 974 l 1178 974 l 983 0 l 694 0 l 767 363 l 421 363 l 349 0 l 60 0 l 254 974 l 543 974 l 465 585 l 811 585 l 889 974 m 433 -85 q 445 -139 429 -118 q 490 -160 461 -160 q 544 -139 521 -160 q 578 -85 568 -118 l 749 -85 q 644 -253 722 -190 q 460 -317 567 -317 q 313 -267 367 -317 q 258 -131 258 -217 q 263 -85 258 -108 l 433 -85 z "},"Ĥ":{"ha":1194,"x_min":60,"x_max":1178,"o":"m 889 974 l 1178 974 l 983 0 l 694 0 l 767 363 l 421 363 l 349 0 l 60 0 l 254 974 l 543 974 l 465 585 l 811 585 l 889 974 m 1004 1049 l 818 1049 l 750 1144 l 644 1049 l 458 1049 l 653 1267 l 893 1267 l 1004 1049 z "},"Ḥ":{"ha":1194,"x_min":60,"x_max":1178,"o":"m 889 974 l 1178 974 l 983 0 l 694 0 l 767 363 l 421 363 l 349 0 l 60 0 l 254 974 l 543 974 l 465 585 l 811 585 l 889 974 m 506 -92 q 592 -124 560 -92 q 625 -210 625 -157 q 574 -331 625 -282 q 449 -381 522 -381 q 362 -348 394 -381 q 329 -262 329 -315 q 381 -141 329 -190 q 506 -92 432 -92 z "},"I":{"ha":717,"x_min":-15,"x_max":778,"o":"m 733 751 l 578 751 l 472 222 l 626 222 l 583 0 l -15 0 l 28 222 l 183 222 l 289 751 l 135 751 l 179 974 l 778 974 l 733 751 z "},"Ĳ":{"ha":1485,"x_min":-15,"x_max":1536,"o":"m 733 751 l 578 751 l 472 222 l 626 222 l 583 0 l -15 0 l 28 222 l 183 222 l 289 751 l 135 751 l 179 974 l 778 974 l 733 751 m 1536 974 l 1376 172 q 1239 -68 1344 15 q 975 -151 1133 -151 q 636 19 760 -151 l 793 194 q 881 117 833 143 q 967 92 929 92 q 1048 122 1013 92 q 1093 201 1083 153 l 1201 743 l 869 743 l 914 974 l 1536 974 z "},"Í":{"ha":717,"x_min":-15,"x_max":778,"o":"m 733 751 l 578 751 l 472 222 l 626 222 l 583 0 l -15 0 l 28 222 l 183 222 l 289 751 l 135 751 l 179 974 l 778 974 l 733 751 m 529 1289 l 750 1208 l 536 1039 l 353 1053 l 529 1289 z "},"Ĭ":{"ha":717,"x_min":-15,"x_max":779,"o":"m 733 751 l 578 751 l 472 222 l 626 222 l 583 0 l -15 0 l 28 222 l 183 222 l 289 751 l 135 751 l 179 974 l 778 974 l 733 751 m 464 1274 q 476 1219 460 1240 q 521 1199 492 1199 q 575 1219 551 1199 q 608 1274 599 1240 l 779 1274 q 675 1105 753 1168 q 490 1042 597 1042 q 343 1092 397 1042 q 289 1228 289 1142 q 293 1274 289 1251 l 464 1274 z "},"Î":{"ha":717,"x_min":-15,"x_max":778,"o":"m 733 751 l 578 751 l 472 222 l 626 222 l 583 0 l -15 0 l 28 222 l 183 222 l 289 751 l 135 751 l 179 974 l 778 974 l 733 751 m 765 1049 l 579 1049 l 511 1144 l 406 1049 l 219 1049 l 414 1267 l 654 1267 l 765 1049 z "},"Ȉ":{"ha":717,"x_min":-15,"x_max":778,"o":"m 733 751 l 578 751 l 472 222 l 626 222 l 583 0 l -15 0 l 28 222 l 183 222 l 289 751 l 135 751 l 179 974 l 778 974 l 733 751 m 404 1288 l 471 1050 l 274 1036 l 183 1217 l 404 1288 m 694 1288 l 761 1050 l 564 1036 l 475 1217 l 694 1288 z "},"Ï":{"ha":717,"x_min":-15,"x_max":778,"o":"m 733 751 l 578 751 l 472 222 l 626 222 l 583 0 l -15 0 l 28 222 l 183 222 l 289 751 l 135 751 l 179 974 l 778 974 l 733 751 m 400 1276 q 469 1250 443 1276 q 494 1181 494 1224 q 453 1085 494 1125 q 356 1046 413 1046 q 286 1072 313 1046 q 260 1140 260 1099 q 301 1237 260 1197 q 400 1276 342 1276 m 674 1276 q 742 1250 717 1276 q 767 1181 767 1224 q 726 1085 767 1125 q 629 1046 686 1046 q 560 1072 586 1046 q 533 1140 533 1099 q 574 1237 533 1197 q 674 1276 615 1276 z "},"Ḯ":{"ha":717,"x_min":-15,"x_max":785,"o":"m 733 751 l 578 751 l 472 222 l 626 222 l 583 0 l -15 0 l 28 222 l 183 222 l 289 751 l 135 751 l 179 974 l 778 974 l 733 751 z "},"İ":{"ha":717,"x_min":-15,"x_max":778,"o":"m 733 751 l 578 751 l 472 222 l 626 222 l 583 0 l -15 0 l 28 222 l 183 222 l 289 751 l 135 751 l 179 974 l 778 974 l 733 751 m 549 1336 q 635 1303 603 1336 q 668 1218 668 1271 q 617 1097 668 1146 q 492 1047 565 1047 q 405 1080 438 1047 q 372 1165 372 1113 q 424 1287 372 1238 q 549 1336 475 1336 z "},"Ị":{"ha":717,"x_min":-15,"x_max":778,"o":"m 733 751 l 578 751 l 472 222 l 626 222 l 583 0 l -15 0 l 28 222 l 183 222 l 289 751 l 135 751 l 179 974 l 778 974 l 733 751 m 272 -92 q 359 -124 326 -92 q 392 -210 392 -157 q 340 -331 392 -282 q 215 -381 289 -381 q 128 -348 161 -381 q 96 -262 96 -315 q 147 -141 96 -190 q 272 -92 199 -92 z "},"Ì":{"ha":717,"x_min":-15,"x_max":778,"o":"m 733 751 l 578 751 l 472 222 l 626 222 l 583 0 l -15 0 l 28 222 l 183 222 l 289 751 l 135 751 l 179 974 l 778 974 l 733 751 m 503 1289 l 653 1053 l 468 1039 l 282 1208 l 503 1289 z "},"Ỉ":{"ha":717,"x_min":-15,"x_max":778,"o":"m 733 751 l 578 751 l 472 222 l 626 222 l 583 0 l -15 0 l 28 222 l 183 222 l 289 751 l 135 751 l 179 974 l 778 974 l 733 751 m 567 1364 q 669 1333 633 1364 q 706 1253 706 1303 q 538 1029 706 1143 l 428 1078 q 490 1137 468 1107 q 513 1189 513 1167 q 504 1211 513 1203 q 481 1219 496 1219 q 424 1200 451 1219 l 375 1308 q 567 1364 478 1364 z "},"Ȋ":{"ha":717,"x_min":-15,"x_max":778,"o":"m 733 751 l 578 751 l 472 222 l 626 222 l 583 0 l -15 0 l 28 222 l 183 222 l 289 751 l 135 751 l 179 974 l 778 974 l 733 751 m 564 1047 q 552 1101 568 1081 q 507 1122 536 1122 q 453 1101 476 1122 q 419 1047 429 1081 l 249 1047 q 353 1216 275 1153 q 538 1279 431 1279 q 685 1229 631 1279 q 739 1093 739 1179 q 735 1047 739 1071 l 564 1047 z "},"Ī":{"ha":717,"x_min":-15,"x_max":778,"o":"m 733 751 l 578 751 l 472 222 l 626 222 l 583 0 l -15 0 l 28 222 l 183 222 l 289 751 l 135 751 l 179 974 l 778 974 l 733 751 m 283 1210 l 765 1210 l 733 1050 l 251 1050 l 283 1210 z "},"Į":{"ha":717,"x_min":-15,"x_max":778,"o":"m 578 751 l 472 222 l 626 222 l 583 0 l 353 0 q 258 -72 290 -39 q 225 -140 225 -106 q 249 -167 225 -167 q 289 -156 264 -167 l 301 -299 q 151 -331 221 -331 q 53 -297 86 -331 q 21 -208 21 -264 q 133 0 21 -103 l -15 0 l 28 222 l 183 222 l 289 751 l 135 751 l 179 974 l 778 974 l 733 751 l 578 751 z "},"Ĩ":{"ha":717,"x_min":-15,"x_max":804,"o":"m 733 751 l 578 751 l 472 222 l 626 222 l 583 0 l -15 0 l 28 222 l 183 222 l 289 751 l 135 751 l 179 974 l 778 974 l 733 751 m 804 1276 q 736 1101 781 1158 q 618 1044 692 1044 q 556 1055 583 1044 q 497 1083 528 1065 q 444 1104 461 1104 q 393 1049 406 1104 l 243 1049 q 311 1223 265 1165 q 431 1281 357 1281 q 490 1271 464 1281 q 550 1243 517 1261 q 579 1228 565 1235 q 603 1222 593 1222 q 635 1235 624 1222 q 654 1276 647 1249 l 804 1276 z "},"J":{"ha":768,"x_min":-81,"x_max":819,"o":"m 819 974 l 660 172 q 522 -68 628 15 q 258 -151 417 -151 q -81 19 43 -151 l 76 194 q 165 117 117 143 q 250 92 213 92 q 331 122 296 92 q 376 201 367 153 l 485 743 l 153 743 l 197 974 l 819 974 z "},"Ĵ":{"ha":768,"x_min":-81,"x_max":819,"o":"m 819 974 l 660 172 q 522 -68 628 15 q 258 -151 417 -151 q -81 19 43 -151 l 76 194 q 165 117 117 143 q 250 92 213 92 q 331 122 296 92 q 376 201 367 153 l 485 743 l 153 743 l 197 974 l 819 974 m 790 1049 l 604 1049 l 536 1144 l 431 1049 l 244 1049 l 439 1267 l 679 1267 l 790 1049 z "},"K":{"ha":1053,"x_min":6,"x_max":1156,"o":"m 1156 974 l 718 565 l 972 0 l 636 0 l 485 347 l 336 208 l 294 0 l 6 0 l 200 974 l 489 974 l 411 585 l 810 974 l 1156 974 z "},"Ķ":{"ha":1053,"x_min":6,"x_max":1156,"o":"m 1156 974 l 718 565 l 972 0 l 636 0 l 485 347 l 336 208 l 294 0 l 6 0 l 200 974 l 489 974 l 411 585 l 810 974 l 1156 974 m 307 -83 l 529 -83 l 375 -332 l 219 -332 l 307 -83 z "},"L":{"ha":797,"x_min":6,"x_max":753,"o":"m 343 242 l 753 242 l 704 0 l 6 0 l 200 974 l 489 974 l 343 242 z "},"Ǉ":{"ha":1564,"x_min":6,"x_max":1617,"o":"m 343 242 l 753 242 l 704 0 l 6 0 l 200 974 l 489 974 l 343 242 m 1617 974 l 1457 172 q 1319 -68 1425 15 q 1056 -151 1214 -151 q 717 19 840 -151 l 874 194 q 962 117 914 143 q 1047 92 1010 92 q 1128 122 1093 92 q 1174 201 1164 153 l 1282 743 l 950 743 l 994 974 l 1617 974 z "},"Ĺ":{"ha":797,"x_min":6,"x_max":753,"o":"m 343 242 l 753 242 l 704 0 l 6 0 l 200 974 l 489 974 l 343 242 m 389 1289 l 610 1208 l 396 1039 l 213 1053 l 389 1289 z "},"Ľ":{"ha":797,"x_min":6,"x_max":833,"o":"m 343 242 l 753 242 l 704 0 l 6 0 l 200 974 l 489 974 l 343 242 m 628 971 l 833 971 l 731 658 l 567 658 l 628 971 z "},"Ļ":{"ha":797,"x_min":6,"x_max":753,"o":"m 343 242 l 753 242 l 704 0 l 6 0 l 200 974 l 489 974 l 343 242 m 228 -83 l 450 -83 l 296 -332 l 140 -332 l 228 -83 z "},"Ŀ":{"ha":797,"x_min":6,"x_max":792,"o":"m 343 242 l 753 242 l 704 0 l 6 0 l 200 974 l 489 974 l 343 242 m 672 697 q 759 665 726 697 q 792 579 792 632 q 740 458 792 507 q 615 408 689 408 q 528 441 561 408 q 496 526 496 474 q 547 648 496 599 q 672 697 599 697 z "},"Ḷ":{"ha":797,"x_min":6,"x_max":753,"o":"m 343 242 l 753 242 l 704 0 l 6 0 l 200 974 l 489 974 l 343 242 m 340 -92 q 427 -124 394 -92 q 460 -210 460 -157 q 408 -331 460 -282 q 283 -381 357 -381 q 197 -348 229 -381 q 164 -262 164 -315 q 215 -141 164 -190 q 340 -92 267 -92 z "},"ǈ":{"ha":1247,"x_min":6,"x_max":1276,"o":"m 343 242 l 753 242 l 704 0 l 6 0 l 200 974 l 489 974 l 343 242 m 669 -58 q 711 -62 686 -62 q 776 -37 749 -62 q 813 28 804 -11 l 957 756 l 1238 756 l 1081 -37 q 974 -217 1057 -154 q 765 -281 890 -281 q 592 -247 675 -281 l 669 -58 m 1157 1115 q 1244 1083 1211 1115 q 1276 997 1276 1050 q 1225 876 1276 925 q 1100 826 1174 826 q 1013 859 1046 826 q 981 944 981 892 q 1032 1066 981 1017 q 1157 1115 1083 1115 z "},"Ḻ":{"ha":797,"x_min":6,"x_max":753,"o":"m 343 242 l 753 242 l 704 0 l 6 0 l 200 974 l 489 974 l 343 242 m 136 -106 l 539 -106 l 507 -267 l 104 -267 l 136 -106 z "},"Ł":{"ha":849,"x_min":6,"x_max":804,"o":"m 396 242 l 804 242 l 756 0 l 57 0 l 131 367 l 6 308 l 35 460 l 161 518 l 251 974 l 542 974 l 481 668 l 654 749 l 624 597 l 450 517 l 396 242 z "},"M":{"ha":1621,"x_min":6,"x_max":1617,"o":"m 1364 990 q 1549 920 1482 990 q 1617 731 1617 850 q 1606 632 1617 688 l 1479 0 l 1186 0 l 1299 563 q 1304 613 1304 586 q 1276 699 1304 668 q 1193 731 1247 731 q 1067 678 1122 731 q 996 543 1013 625 l 888 0 l 594 0 l 707 563 q 713 611 713 599 q 683 699 713 667 q 600 731 654 731 q 476 679 531 731 q 404 547 421 628 l 294 0 l 6 0 l 200 974 l 489 974 l 461 836 q 602 950 522 910 q 772 990 682 990 q 939 937 875 990 q 1019 788 1003 883 q 1169 937 1081 883 q 1364 990 1258 990 z "},"Ṃ":{"ha":1621,"x_min":6,"x_max":1617,"o":"m 1364 990 q 1549 920 1482 990 q 1617 731 1617 850 q 1606 632 1617 688 l 1479 0 l 1186 0 l 1299 563 q 1304 613 1304 586 q 1276 699 1304 668 q 1193 731 1247 731 q 1067 678 1122 731 q 996 543 1013 625 l 888 0 l 594 0 l 707 563 q 713 611 713 599 q 683 699 713 667 q 600 731 654 731 q 476 679 531 731 q 404 547 421 628 l 294 0 l 6 0 l 200 974 l 489 974 l 461 836 q 602 950 522 910 q 772 990 682 990 q 939 937 875 990 q 1019 788 1003 883 q 1169 937 1081 883 q 1364 990 1258 990 m 718 -92 q 805 -124 772 -92 q 838 -210 838 -157 q 786 -331 838 -282 q 661 -381 735 -381 q 574 -348 607 -381 q 542 -262 542 -315 q 593 -141 542 -190 q 718 -92 644 -92 z "},"N":{"ha":1060,"x_min":6,"x_max":1054,"o":"m 786 990 q 983 919 911 990 q 1054 725 1054 849 q 1044 632 1054 679 l 917 0 l 625 0 l 736 563 q 742 608 742 596 q 710 698 742 665 q 621 731 678 731 q 482 680 542 731 q 404 547 422 629 l 294 0 l 6 0 l 200 974 l 489 974 l 461 832 q 608 949 525 908 q 786 990 692 990 z "},"Ǌ":{"ha":1826,"x_min":6,"x_max":1879,"o":"m 786 990 q 983 919 911 990 q 1054 725 1054 849 q 1044 632 1054 679 l 917 0 l 625 0 l 736 563 q 742 608 742 596 q 710 698 742 665 q 621 731 678 731 q 482 680 542 731 q 404 547 422 629 l 294 0 l 6 0 l 200 974 l 489 974 l 461 832 q 608 949 525 908 q 786 990 692 990 m 1879 974 l 1719 172 q 1582 -68 1688 15 q 1318 -151 1476 -151 q 979 19 1103 -151 l 1136 194 q 1224 117 1176 143 q 1310 92 1272 92 q 1391 122 1356 92 q 1436 201 1426 153 l 1544 743 l 1213 743 l 1257 974 l 1879 974 z "},"Ń":{"ha":1060,"x_min":6,"x_max":1054,"o":"m 786 990 q 983 919 911 990 q 1054 725 1054 849 q 1044 632 1054 679 l 917 0 l 625 0 l 736 563 q 742 608 742 596 q 710 698 742 665 q 621 731 678 731 q 482 680 542 731 q 404 547 422 629 l 294 0 l 6 0 l 200 974 l 489 974 l 461 832 q 608 949 525 908 q 786 990 692 990 m 753 1289 l 974 1208 l 760 1039 l 576 1053 l 753 1289 z "},"Ň":{"ha":1060,"x_min":6,"x_max":1054,"o":"m 786 990 q 983 919 911 990 q 1054 725 1054 849 q 1044 632 1054 679 l 917 0 l 625 0 l 736 563 q 742 608 742 596 q 710 698 742 665 q 621 731 678 731 q 482 680 542 731 q 404 547 422 629 l 294 0 l 6 0 l 200 974 l 489 974 l 461 832 q 608 949 525 908 q 786 990 692 990 m 844 1265 l 1031 1265 l 836 1047 l 596 1047 l 485 1265 l 671 1265 l 739 1169 l 844 1265 z "},"Ņ":{"ha":1060,"x_min":6,"x_max":1054,"o":"m 786 990 q 983 919 911 990 q 1054 725 1054 849 q 1044 632 1054 679 l 917 0 l 625 0 l 736 563 q 742 608 742 596 q 710 698 742 665 q 621 731 678 731 q 482 680 542 731 q 404 547 422 629 l 294 0 l 6 0 l 200 974 l 489 974 l 461 832 q 608 949 525 908 q 786 990 692 990 m 326 -83 l 549 -83 l 394 -332 l 239 -332 l 326 -83 z "},"Ṅ":{"ha":1060,"x_min":6,"x_max":1054,"o":"m 786 990 q 983 919 911 990 q 1054 725 1054 849 q 1044 632 1054 679 l 917 0 l 625 0 l 736 563 q 742 608 742 596 q 710 698 742 665 q 621 731 678 731 q 482 680 542 731 q 404 547 422 629 l 294 0 l 6 0 l 200 974 l 489 974 l 461 832 q 608 949 525 908 q 786 990 692 990 m 772 1336 q 859 1303 826 1336 q 892 1218 892 1271 q 840 1097 892 1146 q 715 1047 789 1047 q 628 1080 661 1047 q 596 1165 596 1113 q 647 1287 596 1238 q 772 1336 699 1336 z "},"Ṇ":{"ha":1060,"x_min":6,"x_max":1054,"o":"m 786 990 q 983 919 911 990 q 1054 725 1054 849 q 1044 632 1054 679 l 917 0 l 625 0 l 736 563 q 742 608 742 596 q 710 698 742 665 q 621 731 678 731 q 482 680 542 731 q 404 547 422 629 l 294 0 l 6 0 l 200 974 l 489 974 l 461 832 q 608 949 525 908 q 786 990 692 990 m 439 -92 q 526 -124 493 -92 q 558 -210 558 -157 q 507 -331 558 -282 q 382 -381 456 -381 q 295 -348 328 -381 q 263 -262 263 -315 q 314 -141 263 -190 q 439 -92 365 -92 z "},"Ŋ":{"ha":1060,"x_min":6,"x_max":1050,"o":"m 782 974 q 978 903 907 974 q 1050 708 1050 832 q 1040 615 1050 663 l 917 0 q 770 -225 881 -144 q 503 -306 660 -306 q 274 -239 368 -306 l 411 -22 q 535 -62 479 -62 q 595 -42 571 -62 q 628 18 619 -21 l 733 546 q 739 592 739 579 q 706 681 739 649 q 617 714 674 714 q 478 663 538 714 q 401 531 419 613 l 294 0 l 6 0 l 200 974 l 489 974 l 457 815 q 604 933 521 892 q 782 974 688 974 z "},"ǋ":{"ha":1510,"x_min":6,"x_max":1539,"o":"m 786 990 q 983 919 911 990 q 1054 725 1054 849 q 1044 632 1054 679 l 917 0 l 625 0 l 736 563 q 742 608 742 596 q 710 698 742 665 q 621 731 678 731 q 482 680 542 731 q 404 547 422 629 l 294 0 l 6 0 l 200 974 l 489 974 l 461 832 q 608 949 525 908 q 786 990 692 990 m 932 -58 q 974 -62 949 -62 q 1039 -37 1011 -62 q 1075 28 1067 -11 l 1219 756 l 1500 756 l 1343 -37 q 1236 -217 1319 -154 q 1028 -281 1153 -281 q 854 -247 938 -281 l 932 -58 m 1419 1115 q 1506 1083 1474 1115 q 1539 997 1539 1050 q 1488 876 1539 925 q 1363 826 1436 826 q 1276 859 1308 826 q 1243 944 1243 892 q 1294 1066 1243 1017 q 1419 1115 1346 1115 z "},"Ṉ":{"ha":1060,"x_min":6,"x_max":1054,"o":"m 786 990 q 983 919 911 990 q 1054 725 1054 849 q 1044 632 1054 679 l 917 0 l 625 0 l 736 563 q 742 608 742 596 q 710 698 742 665 q 621 731 678 731 q 482 680 542 731 q 404 547 422 629 l 294 0 l 6 0 l 200 974 l 489 974 l 461 832 q 608 949 525 908 q 786 990 692 990 m 235 -106 l 638 -106 l 606 -267 l 203 -267 l 235 -106 z "},"Ñ":{"ha":1060,"x_min":6,"x_max":1054,"o":"m 786 990 q 983 919 911 990 q 1054 725 1054 849 q 1044 632 1054 679 l 917 0 l 625 0 l 736 563 q 742 608 742 596 q 710 698 742 665 q 621 731 678 731 q 482 680 542 731 q 404 547 422 629 l 294 0 l 6 0 l 200 974 l 489 974 l 461 832 q 608 949 525 908 q 786 990 692 990 m 1028 1276 q 960 1101 1004 1158 q 842 1044 915 1044 q 779 1055 807 1044 q 721 1083 751 1065 q 668 1104 685 1104 q 617 1049 629 1104 l 467 1049 q 535 1223 489 1165 q 654 1281 581 1281 q 714 1271 688 1281 q 774 1243 740 1261 q 803 1228 789 1235 q 826 1222 817 1222 q 859 1235 847 1222 q 878 1276 871 1249 l 1028 1276 z "},"O":{"ha":1124,"x_min":51,"x_max":1118,"o":"m 636 992 q 886 933 776 992 q 1057 769 996 874 q 1118 533 1118 665 q 1040 253 1118 379 q 828 53 963 126 q 533 -19 694 -19 q 283 40 393 -19 q 113 205 174 100 q 51 443 51 310 q 129 723 51 597 q 341 920 207 849 q 636 992 475 992 m 615 751 q 485 713 547 751 q 386 608 424 675 q 349 463 349 542 q 377 340 349 394 q 454 253 406 285 q 561 221 503 221 q 690 260 631 221 q 785 366 750 299 q 821 514 821 433 q 794 635 821 581 q 721 720 768 689 q 615 751 674 751 z "},"Ó":{"ha":1124,"x_min":51,"x_max":1118,"o":"m 636 992 q 886 933 776 992 q 1057 769 996 874 q 1118 533 1118 665 q 1040 253 1118 379 q 828 53 963 126 q 533 -19 694 -19 q 283 40 393 -19 q 113 205 174 100 q 51 443 51 310 q 129 723 51 597 q 341 920 207 849 q 636 992 475 992 m 615 751 q 485 713 547 751 q 386 608 424 675 q 349 463 349 542 q 377 340 349 394 q 454 253 406 285 q 561 221 503 221 q 690 260 631 221 q 785 366 750 299 q 821 514 821 433 q 794 635 821 581 q 721 720 768 689 q 615 751 674 751 m 683 1289 l 904 1208 l 690 1039 l 507 1053 l 683 1289 z "},"Ŏ":{"ha":1124,"x_min":51,"x_max":1118,"o":"m 636 992 q 886 933 776 992 q 1057 769 996 874 q 1118 533 1118 665 q 1040 253 1118 379 q 828 53 963 126 q 533 -19 694 -19 q 283 40 393 -19 q 113 205 174 100 q 51 443 51 310 q 129 723 51 597 q 341 920 207 849 q 636 992 475 992 m 615 751 q 485 713 547 751 q 386 608 424 675 q 349 463 349 542 q 377 340 349 394 q 454 253 406 285 q 561 221 503 221 q 690 260 631 221 q 785 366 750 299 q 821 514 821 433 q 794 635 821 581 q 721 720 768 689 q 615 751 674 751 m 618 1274 q 630 1219 614 1240 q 675 1199 646 1199 q 729 1219 706 1199 q 763 1274 753 1240 l 933 1274 q 829 1105 907 1168 q 644 1042 751 1042 q 497 1092 551 1042 q 443 1228 443 1142 q 447 1274 443 1251 l 618 1274 z "},"Ô":{"ha":1124,"x_min":51,"x_max":1118,"o":"m 636 992 q 886 933 776 992 q 1057 769 996 874 q 1118 533 1118 665 q 1040 253 1118 379 q 828 53 963 126 q 533 -19 694 -19 q 283 40 393 -19 q 113 205 174 100 q 51 443 51 310 q 129 723 51 597 q 341 920 207 849 q 636 992 475 992 m 615 751 q 485 713 547 751 q 386 608 424 675 q 349 463 349 542 q 377 340 349 394 q 454 253 406 285 q 561 221 503 221 q 690 260 631 221 q 785 366 750 299 q 821 514 821 433 q 794 635 821 581 q 721 720 768 689 q 615 751 674 751 m 919 1049 l 733 1049 l 665 1144 l 560 1049 l 374 1049 l 568 1267 l 808 1267 l 919 1049 z "},"Ố":{"ha":1124,"x_min":51,"x_max":1118,"o":"m 636 992 q 886 933 776 992 q 1057 769 996 874 q 1118 533 1118 665 q 1040 253 1118 379 q 828 53 963 126 q 533 -19 694 -19 q 283 40 393 -19 q 113 205 174 100 q 51 443 51 310 q 129 723 51 597 q 341 920 207 849 q 636 992 475 992 m 615 751 q 485 713 547 751 q 386 608 424 675 q 349 463 349 542 q 377 340 349 394 q 454 253 406 285 q 561 221 503 221 q 690 260 631 221 q 785 366 750 299 q 821 514 821 433 q 794 635 821 581 q 721 720 768 689 q 615 751 674 751 m 947 1044 l 735 1044 l 664 1136 l 557 1044 l 346 1044 l 544 1225 l 810 1225 l 947 1044 m 751 1501 l 933 1394 l 701 1271 l 544 1311 l 751 1501 z "},"Ộ":{"ha":1124,"x_min":51,"x_max":1118,"o":"m 636 992 q 886 933 776 992 q 1057 769 996 874 q 1118 533 1118 665 q 1040 253 1118 379 q 828 53 963 126 q 533 -19 694 -19 q 283 40 393 -19 q 113 205 174 100 q 51 443 51 310 q 129 723 51 597 q 341 920 207 849 q 636 992 475 992 m 615 751 q 485 713 547 751 q 386 608 424 675 q 349 463 349 542 q 377 340 349 394 q 454 253 406 285 q 561 221 503 221 q 690 260 631 221 q 785 366 750 299 q 821 514 821 433 q 794 635 821 581 q 721 720 768 689 q 615 751 674 751 m 525 -92 q 612 -124 579 -92 q 644 -210 644 -157 q 593 -331 644 -282 q 468 -381 542 -381 q 381 -348 414 -381 q 349 -262 349 -315 q 400 -141 349 -190 q 525 -92 451 -92 m 975 1049 l 789 1049 l 721 1144 l 615 1049 l 429 1049 l 624 1267 l 864 1267 l 975 1049 z "},"Ồ":{"ha":1124,"x_min":51,"x_max":1118,"o":"m 636 992 q 886 933 776 992 q 1057 769 996 874 q 1118 533 1118 665 q 1040 253 1118 379 q 828 53 963 126 q 533 -19 694 -19 q 283 40 393 -19 q 113 205 174 100 q 51 443 51 310 q 129 723 51 597 q 341 920 207 849 q 636 992 475 992 m 615 751 q 485 713 547 751 q 386 608 424 675 q 349 463 349 542 q 377 340 349 394 q 454 253 406 285 q 561 221 503 221 q 690 260 631 221 q 785 366 750 299 q 821 514 821 433 q 794 635 821 581 q 721 720 768 689 q 615 751 674 751 m 951 1044 l 739 1044 l 668 1136 l 561 1044 l 350 1044 l 549 1225 l 814 1225 l 951 1044 m 628 1501 l 835 1311 l 678 1271 l 447 1394 l 628 1501 z "},"Ổ":{"ha":1124,"x_min":51,"x_max":1118,"o":"m 636 992 q 886 933 776 992 q 1057 769 996 874 q 1118 533 1118 665 q 1040 253 1118 379 q 828 53 963 126 q 533 -19 694 -19 q 283 40 393 -19 q 113 205 174 100 q 51 443 51 310 q 129 723 51 597 q 341 920 207 849 q 636 992 475 992 m 615 751 q 485 713 547 751 q 386 608 424 675 q 349 463 349 542 q 377 340 349 394 q 454 253 406 285 q 561 221 503 221 q 690 260 631 221 q 785 366 750 299 q 821 514 821 433 q 794 635 821 581 q 721 720 768 689 q 615 751 674 751 m 960 1044 l 747 1044 l 676 1136 l 569 1044 l 358 1044 l 557 1225 l 822 1225 l 960 1044 m 747 1517 q 837 1492 808 1517 q 865 1429 865 1467 q 833 1348 865 1386 q 729 1269 801 1310 l 629 1310 q 678 1342 661 1328 q 694 1372 694 1357 q 669 1392 694 1392 q 622 1376 643 1392 l 576 1468 q 747 1517 668 1517 z "},"Ỗ":{"ha":1124,"x_min":51,"x_max":1118,"o":"m 636 992 q 886 933 776 992 q 1057 769 996 874 q 1118 533 1118 665 q 1040 253 1118 379 q 828 53 963 126 q 533 -19 694 -19 q 283 40 393 -19 q 113 205 174 100 q 51 443 51 310 q 129 723 51 597 q 341 920 207 849 q 636 992 475 992 m 615 751 q 485 713 547 751 q 386 608 424 675 q 349 463 349 542 q 377 340 349 394 q 454 253 406 285 q 561 221 503 221 q 690 260 631 221 q 785 366 750 299 q 821 514 821 433 q 794 635 821 581 q 721 720 768 689 q 615 751 674 751 m 971 1044 l 758 1044 l 688 1136 l 581 1044 l 369 1044 l 568 1225 l 833 1225 l 971 1044 m 1006 1467 q 944 1320 986 1368 q 828 1272 903 1272 q 763 1281 792 1272 q 696 1307 733 1290 q 661 1322 678 1315 q 632 1328 644 1328 q 597 1315 608 1328 q 581 1275 586 1303 l 451 1275 q 513 1422 471 1374 q 629 1471 556 1471 q 698 1461 667 1471 q 765 1435 729 1451 q 825 1415 807 1415 q 860 1428 847 1415 q 878 1467 872 1442 l 1006 1467 z "},"Ȍ":{"ha":1124,"x_min":51,"x_max":1118,"o":"m 636 992 q 886 933 776 992 q 1057 769 996 874 q 1118 533 1118 665 q 1040 253 1118 379 q 828 53 963 126 q 533 -19 694 -19 q 283 40 393 -19 q 113 205 174 100 q 51 443 51 310 q 129 723 51 597 q 341 920 207 849 q 636 992 475 992 m 615 751 q 485 713 547 751 q 386 608 424 675 q 349 463 349 542 q 377 340 349 394 q 454 253 406 285 q 561 221 503 221 q 690 260 631 221 q 785 366 750 299 q 821 514 821 433 q 794 635 821 581 q 721 720 768 689 q 615 751 674 751 m 558 1288 l 625 1050 l 428 1036 l 338 1217 l 558 1288 m 849 1288 l 915 1050 l 718 1036 l 629 1217 l 849 1288 z "},"Ö":{"ha":1124,"x_min":51,"x_max":1118,"o":"m 636 992 q 886 933 776 992 q 1057 769 996 874 q 1118 533 1118 665 q 1040 253 1118 379 q 828 53 963 126 q 533 -19 694 -19 q 283 40 393 -19 q 113 205 174 100 q 51 443 51 310 q 129 723 51 597 q 341 920 207 849 q 636 992 475 992 m 615 751 q 485 713 547 751 q 386 608 424 675 q 349 463 349 542 q 377 340 349 394 q 454 253 406 285 q 561 221 503 221 q 690 260 631 221 q 785 366 750 299 q 821 514 821 433 q 794 635 821 581 q 721 720 768 689 q 615 751 674 751 m 554 1276 q 623 1250 597 1276 q 649 1181 649 1224 q 608 1085 649 1125 q 510 1046 567 1046 q 440 1072 467 1046 q 414 1140 414 1099 q 455 1237 414 1197 q 554 1276 496 1276 m 828 1276 q 896 1250 871 1276 q 921 1181 921 1224 q 881 1085 921 1125 q 783 1046 840 1046 q 714 1072 740 1046 q 688 1140 688 1099 q 728 1237 688 1197 q 828 1276 769 1276 z "},"Ȫ":{"ha":1124,"x_min":51,"x_max":1118,"o":"m 636 992 q 886 933 776 992 q 1057 769 996 874 q 1118 533 1118 665 q 1040 253 1118 379 q 828 53 963 126 q 533 -19 694 -19 q 283 40 393 -19 q 113 205 174 100 q 51 443 51 310 q 129 723 51 597 q 341 920 207 849 q 636 992 475 992 m 615 751 q 485 713 547 751 q 386 608 424 675 q 349 463 349 542 q 377 340 349 394 q 454 253 406 285 q 561 221 503 221 q 690 260 631 221 q 785 366 750 299 q 821 514 821 433 q 794 635 821 581 q 721 720 768 689 q 615 751 674 751 z "},"Ȱ":{"ha":1124,"x_min":51,"x_max":1118,"o":"m 636 992 q 886 933 776 992 q 1057 769 996 874 q 1118 533 1118 665 q 1040 253 1118 379 q 828 53 963 126 q 533 -19 694 -19 q 283 40 393 -19 q 113 205 174 100 q 51 443 51 310 q 129 723 51 597 q 341 920 207 849 q 636 992 475 992 m 615 751 q 485 713 547 751 q 386 608 424 675 q 349 463 349 542 q 377 340 349 394 q 454 253 406 285 q 561 221 503 221 q 690 260 631 221 q 785 366 750 299 q 821 514 821 433 q 794 635 821 581 q 721 720 768 689 q 615 751 674 751 z "},"Ọ":{"ha":1124,"x_min":51,"x_max":1118,"o":"m 636 992 q 886 933 776 992 q 1057 769 996 874 q 1118 533 1118 665 q 1040 253 1118 379 q 828 53 963 126 q 533 -19 694 -19 q 283 40 393 -19 q 113 205 174 100 q 51 443 51 310 q 129 723 51 597 q 341 920 207 849 q 636 992 475 992 m 615 751 q 485 713 547 751 q 386 608 424 675 q 349 463 349 542 q 377 340 349 394 q 454 253 406 285 q 561 221 503 221 q 690 260 631 221 q 785 366 750 299 q 821 514 821 433 q 794 635 821 581 q 721 720 768 689 q 615 751 674 751 m 525 -92 q 612 -124 579 -92 q 644 -210 644 -157 q 593 -331 644 -282 q 468 -381 542 -381 q 381 -348 414 -381 q 349 -262 349 -315 q 400 -141 349 -190 q 525 -92 451 -92 z "},"Ò":{"ha":1124,"x_min":51,"x_max":1118,"o":"m 636 992 q 886 933 776 992 q 1057 769 996 874 q 1118 533 1118 665 q 1040 253 1118 379 q 828 53 963 126 q 533 -19 694 -19 q 283 40 393 -19 q 113 205 174 100 q 51 443 51 310 q 129 723 51 597 q 341 920 207 849 q 636 992 475 992 m 615 751 q 485 713 547 751 q 386 608 424 675 q 349 463 349 542 q 377 340 349 394 q 454 253 406 285 q 561 221 503 221 q 690 260 631 221 q 785 366 750 299 q 821 514 821 433 q 794 635 821 581 q 721 720 768 689 q 615 751 674 751 m 657 1289 l 807 1053 l 622 1039 l 436 1208 l 657 1289 z "},"Ỏ":{"ha":1124,"x_min":51,"x_max":1118,"o":"m 636 992 q 886 933 776 992 q 1057 769 996 874 q 1118 533 1118 665 q 1040 253 1118 379 q 828 53 963 126 q 533 -19 694 -19 q 283 40 393 -19 q 113 205 174 100 q 51 443 51 310 q 129 723 51 597 q 341 920 207 849 q 636 992 475 992 m 615 751 q 485 713 547 751 q 386 608 424 675 q 349 463 349 542 q 377 340 349 394 q 454 253 406 285 q 561 221 503 221 q 690 260 631 221 q 785 366 750 299 q 821 514 821 433 q 794 635 821 581 q 721 720 768 689 q 615 751 674 751 m 721 1364 q 824 1333 788 1364 q 860 1253 860 1303 q 692 1029 860 1143 l 582 1078 q 644 1137 622 1107 q 667 1189 667 1167 q 658 1211 667 1203 q 635 1219 650 1219 q 578 1200 606 1219 l 529 1308 q 721 1364 632 1364 z "},"Ơ":{"ha":1179,"x_min":51,"x_max":1228,"o":"m 1211 1186 q 1228 1082 1228 1132 q 1174 917 1228 989 q 1028 814 1119 846 q 1118 533 1118 696 q 1040 253 1118 379 q 828 53 963 126 q 533 -19 694 -19 q 283 40 393 -19 q 113 205 174 100 q 51 443 51 310 q 129 723 51 597 q 341 920 207 849 q 636 992 475 992 q 858 946 756 992 l 858 947 l 861 946 l 875 939 q 907 933 888 933 q 980 969 951 933 q 1008 1051 1008 1004 q 993 1113 1008 1082 l 1211 1186 m 561 221 q 690 260 631 221 q 785 366 750 299 q 821 514 821 433 q 794 635 821 581 q 721 720 768 689 q 615 751 674 751 q 485 713 547 751 q 386 608 424 675 q 349 463 349 542 q 377 340 349 394 q 454 253 406 285 q 561 221 503 221 z "},"Ớ":{"ha":1179,"x_min":51,"x_max":1228,"o":"m 1211 1186 q 1228 1082 1228 1132 q 1174 917 1228 989 q 1028 814 1119 846 q 1118 533 1118 696 q 1040 253 1118 379 q 828 53 963 126 q 533 -19 694 -19 q 283 40 393 -19 q 113 205 174 100 q 51 443 51 310 q 129 723 51 597 q 341 920 207 849 q 636 992 475 992 q 858 946 756 992 l 858 947 l 861 946 l 875 939 q 907 933 888 933 q 980 969 951 933 q 1008 1051 1008 1004 q 993 1113 1008 1082 l 1211 1186 m 561 221 q 690 260 631 221 q 785 366 750 299 q 821 514 821 433 q 794 635 821 581 q 721 720 768 689 q 615 751 674 751 q 485 713 547 751 q 386 608 424 675 q 349 463 349 542 q 377 340 349 394 q 454 253 406 285 q 561 221 503 221 m 683 1289 l 904 1208 l 690 1039 l 507 1053 l 683 1289 z "},"Ợ":{"ha":1179,"x_min":51,"x_max":1228,"o":"m 1211 1186 q 1228 1082 1228 1132 q 1174 917 1228 989 q 1028 814 1119 846 q 1118 533 1118 696 q 1040 253 1118 379 q 828 53 963 126 q 533 -19 694 -19 q 283 40 393 -19 q 113 205 174 100 q 51 443 51 310 q 129 723 51 597 q 341 920 207 849 q 636 992 475 992 q 858 946 756 992 l 858 947 l 861 946 l 875 939 q 907 933 888 933 q 980 969 951 933 q 1008 1051 1008 1004 q 993 1113 1008 1082 l 1211 1186 m 561 221 q 690 260 631 221 q 785 366 750 299 q 821 514 821 433 q 794 635 821 581 q 721 720 768 689 q 615 751 674 751 q 485 713 547 751 q 386 608 424 675 q 349 463 349 542 q 377 340 349 394 q 454 253 406 285 q 561 221 503 221 m 525 -92 q 612 -124 579 -92 q 644 -210 644 -157 q 593 -331 644 -282 q 468 -381 542 -381 q 381 -348 414 -381 q 349 -262 349 -315 q 400 -141 349 -190 q 525 -92 451 -92 z "},"Ờ":{"ha":1179,"x_min":51,"x_max":1228,"o":"m 1211 1186 q 1228 1082 1228 1132 q 1174 917 1228 989 q 1028 814 1119 846 q 1118 533 1118 696 q 1040 253 1118 379 q 828 53 963 126 q 533 -19 694 -19 q 283 40 393 -19 q 113 205 174 100 q 51 443 51 310 q 129 723 51 597 q 341 920 207 849 q 636 992 475 992 q 858 946 756 992 l 858 947 l 861 946 l 875 939 q 907 933 888 933 q 980 969 951 933 q 1008 1051 1008 1004 q 993 1113 1008 1082 l 1211 1186 m 561 221 q 690 260 631 221 q 785 366 750 299 q 821 514 821 433 q 794 635 821 581 q 721 720 768 689 q 615 751 674 751 q 485 713 547 751 q 386 608 424 675 q 349 463 349 542 q 377 340 349 394 q 454 253 406 285 q 561 221 503 221 m 656 1289 l 806 1053 l 621 1039 l 435 1208 l 656 1289 z "},"Ở":{"ha":1179,"x_min":51,"x_max":1228,"o":"m 1211 1186 q 1228 1082 1228 1132 q 1174 917 1228 989 q 1028 814 1119 846 q 1118 533 1118 696 q 1040 253 1118 379 q 828 53 963 126 q 533 -19 694 -19 q 283 40 393 -19 q 113 205 174 100 q 51 443 51 310 q 129 723 51 597 q 341 920 207 849 q 636 992 475 992 q 858 946 756 992 l 858 947 l 861 946 l 875 939 q 907 933 888 933 q 980 969 951 933 q 1008 1051 1008 1004 q 993 1113 1008 1082 l 1211 1186 m 561 221 q 690 260 631 221 q 785 366 750 299 q 821 514 821 433 q 794 635 821 581 q 721 720 768 689 q 615 751 674 751 q 485 713 547 751 q 386 608 424 675 q 349 463 349 542 q 377 340 349 394 q 454 253 406 285 q 561 221 503 221 m 721 1364 q 824 1333 788 1364 q 860 1253 860 1303 q 692 1029 860 1143 l 582 1078 q 644 1137 622 1107 q 667 1189 667 1167 q 658 1211 667 1203 q 635 1219 650 1219 q 578 1200 606 1219 l 529 1308 q 721 1364 632 1364 z "},"Ỡ":{"ha":1179,"x_min":51,"x_max":1228,"o":"m 1211 1186 q 1228 1082 1228 1132 q 1174 917 1228 989 q 1028 814 1119 846 q 1118 533 1118 696 q 1040 253 1118 379 q 828 53 963 126 q 533 -19 694 -19 q 283 40 393 -19 q 113 205 174 100 q 51 443 51 310 q 129 723 51 597 q 341 920 207 849 q 636 992 475 992 q 858 946 756 992 l 858 947 l 861 946 l 875 939 q 907 933 888 933 q 980 969 951 933 q 1008 1051 1008 1004 q 993 1113 1008 1082 l 1211 1186 m 561 221 q 690 260 631 221 q 785 366 750 299 q 821 514 821 433 q 794 635 821 581 q 721 720 768 689 q 615 751 674 751 q 485 713 547 751 q 386 608 424 675 q 349 463 349 542 q 377 340 349 394 q 454 253 406 285 q 561 221 503 221 m 958 1276 q 890 1101 935 1158 q 772 1044 846 1044 q 710 1055 738 1044 q 651 1083 682 1065 q 599 1104 615 1104 q 547 1049 560 1104 l 397 1049 q 465 1223 419 1165 q 585 1281 511 1281 q 644 1271 618 1281 q 704 1243 671 1261 q 733 1228 719 1235 q 757 1222 747 1222 q 790 1235 778 1222 q 808 1276 801 1249 l 958 1276 z "},"Ő":{"ha":1124,"x_min":51,"x_max":1118,"o":"m 636 992 q 886 933 776 992 q 1057 769 996 874 q 1118 533 1118 665 q 1040 253 1118 379 q 828 53 963 126 q 533 -19 694 -19 q 283 40 393 -19 q 113 205 174 100 q 51 443 51 310 q 129 723 51 597 q 341 920 207 849 q 636 992 475 992 m 615 751 q 485 713 547 751 q 386 608 424 675 q 349 463 349 542 q 377 340 349 394 q 454 253 406 285 q 561 221 503 221 q 690 260 631 221 q 785 366 750 299 q 821 514 821 433 q 794 635 821 581 q 721 720 768 689 q 615 751 674 751 m 515 1290 l 707 1219 l 581 1039 l 388 1053 l 515 1290 m 806 1290 l 997 1219 l 871 1039 l 678 1053 l 806 1290 z "},"Ȏ":{"ha":1124,"x_min":51,"x_max":1118,"o":"m 636 992 q 886 933 776 992 q 1057 769 996 874 q 1118 533 1118 665 q 1040 253 1118 379 q 828 53 963 126 q 533 -19 694 -19 q 283 40 393 -19 q 113 205 174 100 q 51 443 51 310 q 129 723 51 597 q 341 920 207 849 q 636 992 475 992 m 615 751 q 485 713 547 751 q 386 608 424 675 q 349 463 349 542 q 377 340 349 394 q 454 253 406 285 q 561 221 503 221 q 690 260 631 221 q 785 366 750 299 q 821 514 821 433 q 794 635 821 581 q 721 720 768 689 q 615 751 674 751 m 718 1047 q 706 1101 722 1081 q 661 1122 690 1122 q 607 1101 631 1122 q 574 1047 583 1081 l 403 1047 q 507 1216 429 1153 q 692 1279 585 1279 q 839 1229 785 1279 q 893 1093 893 1179 q 889 1047 893 1071 l 718 1047 z "},"Ō":{"ha":1124,"x_min":51,"x_max":1118,"o":"m 636 992 q 886 933 776 992 q 1057 769 996 874 q 1118 533 1118 665 q 1040 253 1118 379 q 828 53 963 126 q 533 -19 694 -19 q 283 40 393 -19 q 113 205 174 100 q 51 443 51 310 q 129 723 51 597 q 341 920 207 849 q 636 992 475 992 m 615 751 q 485 713 547 751 q 386 608 424 675 q 349 463 349 542 q 377 340 349 394 q 454 253 406 285 q 561 221 503 221 q 690 260 631 221 q 785 366 750 299 q 821 514 821 433 q 794 635 821 581 q 721 720 768 689 q 615 751 674 751 m 438 1210 l 919 1210 l 888 1050 l 406 1050 l 438 1210 z "},"Ṓ":{"ha":1124,"x_min":51,"x_max":1118,"o":"m 636 992 q 886 933 776 992 q 1057 769 996 874 q 1118 533 1118 665 q 1040 253 1118 379 q 828 53 963 126 q 533 -19 694 -19 q 283 40 393 -19 q 113 205 174 100 q 51 443 51 310 q 129 723 51 597 q 341 920 207 849 q 636 992 475 992 m 615 751 q 485 713 547 751 q 386 608 424 675 q 349 463 349 542 q 377 340 349 394 q 454 253 406 285 q 561 221 503 221 q 690 260 631 221 q 785 366 750 299 q 821 514 821 433 q 794 635 821 581 q 721 720 768 689 q 615 751 674 751 m 457 1200 l 882 1200 l 853 1049 l 428 1049 l 457 1200 m 743 1492 l 925 1385 l 693 1261 l 536 1301 l 743 1492 z "},"Ṑ":{"ha":1124,"x_min":51,"x_max":1118,"o":"m 636 992 q 886 933 776 992 q 1057 769 996 874 q 1118 533 1118 665 q 1040 253 1118 379 q 828 53 963 126 q 533 -19 694 -19 q 283 40 393 -19 q 113 205 174 100 q 51 443 51 310 q 129 723 51 597 q 341 920 207 849 q 636 992 475 992 m 615 751 q 485 713 547 751 q 386 608 424 675 q 349 463 349 542 q 377 340 349 394 q 454 253 406 285 q 561 221 503 221 q 690 260 631 221 q 785 366 750 299 q 821 514 821 433 q 794 635 821 581 q 721 720 768 689 q 615 751 674 751 m 465 1200 l 890 1200 l 861 1049 l 436 1049 l 465 1200 m 624 1492 l 831 1301 l 674 1261 l 443 1385 l 624 1492 z "},"Ǫ":{"ha":1124,"x_min":51,"x_max":1118,"o":"m 1118 533 q 1053 276 1118 394 q 878 83 989 158 q 760 -35 806 26 q 715 -139 715 -97 q 739 -167 715 -167 q 778 -156 756 -167 l 790 -299 q 646 -331 711 -331 q 547 -301 583 -331 q 510 -211 510 -271 q 535 -110 510 -157 q 615 -14 561 -64 q 533 -19 581 -19 q 283 40 393 -19 q 113 205 174 100 q 51 443 51 310 q 129 723 51 597 q 341 920 207 849 q 636 992 475 992 q 886 933 776 992 q 1057 769 996 874 q 1118 533 1118 665 m 349 463 q 377 340 349 394 q 454 253 406 285 q 561 221 503 221 q 690 260 631 221 q 785 366 750 299 q 821 514 821 433 q 794 635 821 581 q 721 720 768 689 q 615 751 674 751 q 485 713 547 751 q 386 608 424 675 q 349 463 349 542 z "},"Ø":{"ha":1124,"x_min":51,"x_max":1118,"o":"m 965 879 q 1078 728 1039 817 q 1118 533 1118 639 q 1040 253 1118 379 q 828 53 963 126 q 533 -19 694 -19 q 317 24 415 -19 l 242 -76 l 74 -76 l 203 94 q 91 247 131 157 q 51 443 51 338 q 129 723 51 597 q 341 920 207 849 q 636 992 475 992 q 851 950 750 992 l 926 1049 l 1094 1049 l 965 879 m 349 463 q 382 331 349 390 l 690 736 q 615 751 653 751 q 485 713 547 751 q 386 608 424 675 q 349 463 349 542 m 561 221 q 690 260 631 221 q 785 366 750 299 q 821 514 821 433 q 789 646 821 589 l 481 239 q 561 221 517 221 z "},"Ǿ":{"ha":1124,"x_min":51,"x_max":1118,"o":"m 965 879 q 1078 728 1039 817 q 1118 533 1118 639 q 1040 253 1118 379 q 828 53 963 126 q 533 -19 694 -19 q 317 24 415 -19 l 242 -76 l 74 -76 l 203 94 q 91 247 131 157 q 51 443 51 338 q 129 723 51 597 q 341 920 207 849 q 636 992 475 992 q 851 950 750 992 l 926 1049 l 1094 1049 l 965 879 m 349 463 q 382 331 349 390 l 690 736 q 615 751 653 751 q 485 713 547 751 q 386 608 424 675 q 349 463 349 542 m 561 221 q 690 260 631 221 q 785 366 750 299 q 821 514 821 433 q 789 646 821 589 l 481 239 q 561 221 517 221 m 733 1289 l 954 1208 l 740 1039 l 557 1053 l 733 1289 z "},"Õ":{"ha":1124,"x_min":51,"x_max":1118,"o":"m 636 992 q 886 933 776 992 q 1057 769 996 874 q 1118 533 1118 665 q 1040 253 1118 379 q 828 53 963 126 q 533 -19 694 -19 q 283 40 393 -19 q 113 205 174 100 q 51 443 51 310 q 129 723 51 597 q 341 920 207 849 q 636 992 475 992 m 615 751 q 485 713 547 751 q 386 608 424 675 q 349 463 349 542 q 377 340 349 394 q 454 253 406 285 q 561 221 503 221 q 690 260 631 221 q 785 366 750 299 q 821 514 821 433 q 794 635 821 581 q 721 720 768 689 q 615 751 674 751 m 958 1276 q 890 1101 935 1158 q 772 1044 846 1044 q 710 1055 738 1044 q 651 1083 682 1065 q 599 1104 615 1104 q 547 1049 560 1104 l 397 1049 q 465 1223 419 1165 q 585 1281 511 1281 q 644 1271 618 1281 q 704 1243 671 1261 q 733 1228 719 1235 q 757 1222 747 1222 q 790 1235 778 1222 q 808 1276 801 1249 l 958 1276 z "},"Ṍ":{"ha":1124,"x_min":51,"x_max":1118,"o":"m 636 992 q 886 933 776 992 q 1057 769 996 874 q 1118 533 1118 665 q 1040 253 1118 379 q 828 53 963 126 q 533 -19 694 -19 q 283 40 393 -19 q 113 205 174 100 q 51 443 51 310 q 129 723 51 597 q 341 920 207 849 q 636 992 475 992 m 615 751 q 485 713 547 751 q 386 608 424 675 q 349 463 349 542 q 377 340 349 394 q 454 253 406 285 q 561 221 503 221 q 690 260 631 221 q 785 366 750 299 q 821 514 821 433 q 794 635 821 581 q 721 720 768 689 q 615 751 674 751 z "},"Ṏ":{"ha":1124,"x_min":51,"x_max":1118,"o":"m 636 992 q 886 933 776 992 q 1057 769 996 874 q 1118 533 1118 665 q 1040 253 1118 379 q 828 53 963 126 q 533 -19 694 -19 q 283 40 393 -19 q 113 205 174 100 q 51 443 51 310 q 129 723 51 597 q 341 920 207 849 q 636 992 475 992 m 615 751 q 485 713 547 751 q 386 608 424 675 q 349 463 349 542 q 377 340 349 394 q 454 253 406 285 q 561 221 503 221 q 690 260 631 221 q 785 366 750 299 q 821 514 821 433 q 794 635 821 581 q 721 720 768 689 q 615 751 674 751 z "},"Ȭ":{"ha":1124,"x_min":51,"x_max":1118,"o":"m 636 992 q 886 933 776 992 q 1057 769 996 874 q 1118 533 1118 665 q 1040 253 1118 379 q 828 53 963 126 q 533 -19 694 -19 q 283 40 393 -19 q 113 205 174 100 q 51 443 51 310 q 129 723 51 597 q 341 920 207 849 q 636 992 475 992 m 615 751 q 485 713 547 751 q 386 608 424 675 q 349 463 349 542 q 377 340 349 394 q 454 253 406 285 q 561 221 503 221 q 690 260 631 221 q 785 366 750 299 q 821 514 821 433 q 794 635 821 581 q 721 720 768 689 q 615 751 674 751 z "},"Œ":{"ha":1565,"x_min":51,"x_max":1614,"o":"m 1061 751 l 1032 599 l 1490 599 l 1446 376 l 988 376 l 957 222 l 1478 222 l 1432 0 l 536 0 q 288 58 399 0 q 115 219 178 115 q 51 456 51 324 q 129 717 51 599 q 340 905 207 836 q 635 974 474 974 l 1614 974 l 1569 751 l 1061 751 m 668 231 l 771 739 l 611 739 q 479 703 539 739 q 384 604 419 667 q 349 465 349 542 q 408 297 349 364 q 561 231 467 231 l 668 231 z "},"P":{"ha":967,"x_min":6,"x_max":978,"o":"m 643 974 q 891 901 804 974 q 978 697 978 829 q 920 468 978 567 q 754 315 863 369 q 500 261 646 261 l 347 261 l 294 0 l 6 0 l 200 974 l 643 974 m 531 485 q 652 529 607 485 q 697 649 697 574 q 668 725 697 699 q 583 751 639 751 l 444 751 l 392 485 l 531 485 z "},"Þ":{"ha":982,"x_min":6,"x_max":968,"o":"m 618 850 q 875 775 782 850 q 968 569 968 700 q 906 351 968 447 q 733 202 844 256 q 476 149 621 149 l 324 149 l 294 0 l 6 0 l 200 974 l 489 974 l 464 850 l 618 850 m 510 368 q 623 413 581 368 q 665 529 665 458 q 638 603 665 576 q 561 629 611 629 l 419 629 l 368 368 l 510 368 z "},"Q":{"ha":1124,"x_min":51,"x_max":1118,"o":"m 1118 533 q 1054 277 1118 394 q 878 83 990 160 q 625 -12 765 7 l 588 -206 l 324 -206 l 365 6 q 136 169 221 51 q 51 443 51 286 q 129 723 51 597 q 341 920 207 849 q 636 992 475 992 q 886 933 776 992 q 1057 769 996 874 q 1118 533 1118 665 m 561 221 q 690 260 631 221 q 785 366 750 299 q 821 514 821 433 q 794 635 821 581 q 721 720 768 689 q 615 751 674 751 q 485 713 547 751 q 386 608 424 675 q 349 463 349 542 q 377 340 349 394 q 454 253 406 285 q 561 221 503 221 z "},"R":{"ha":1007,"x_min":6,"x_max":1006,"o":"m 1006 696 q 945 466 1006 565 q 772 314 885 367 l 904 0 l 578 0 l 500 261 l 347 261 l 294 0 l 6 0 l 200 974 l 656 974 q 915 901 825 974 q 1006 696 1006 829 m 392 485 l 558 485 q 680 529 635 485 q 725 649 725 574 q 696 725 725 699 q 611 751 667 751 l 444 751 l 392 485 z "},"Ŕ":{"ha":1007,"x_min":6,"x_max":1006,"o":"m 1006 696 q 945 466 1006 565 q 772 314 885 367 l 904 0 l 578 0 l 500 261 l 347 261 l 294 0 l 6 0 l 200 974 l 656 974 q 915 901 825 974 q 1006 696 1006 829 m 392 485 l 558 485 q 680 529 635 485 q 725 649 725 574 q 696 725 725 699 q 611 751 667 751 l 444 751 l 392 485 m 657 1289 l 878 1208 l 664 1039 l 481 1053 l 657 1289 z "},"Ř":{"ha":1007,"x_min":6,"x_max":1006,"o":"m 1006 696 q 945 466 1006 565 q 772 314 885 367 l 904 0 l 578 0 l 500 261 l 347 261 l 294 0 l 6 0 l 200 974 l 656 974 q 915 901 825 974 q 1006 696 1006 829 m 392 485 l 558 485 q 680 529 635 485 q 725 649 725 574 q 696 725 725 699 q 611 751 667 751 l 444 751 l 392 485 m 749 1265 l 935 1265 l 740 1047 l 500 1047 l 389 1265 l 575 1265 l 643 1169 l 749 1265 z "},"Ŗ":{"ha":1007,"x_min":6,"x_max":1006,"o":"m 1006 696 q 945 466 1006 565 q 772 314 885 367 l 904 0 l 578 0 l 500 261 l 347 261 l 294 0 l 6 0 l 200 974 l 656 974 q 915 901 825 974 q 1006 696 1006 829 m 392 485 l 558 485 q 680 529 635 485 q 725 649 725 574 q 696 725 725 699 q 611 751 667 751 l 444 751 l 392 485 m 294 -83 l 517 -83 l 363 -332 l 207 -332 l 294 -83 z "},"Ȑ":{"ha":1007,"x_min":6,"x_max":1006,"o":"m 1006 696 q 945 466 1006 565 q 772 314 885 367 l 904 0 l 578 0 l 500 261 l 347 261 l 294 0 l 6 0 l 200 974 l 656 974 q 915 901 825 974 q 1006 696 1006 829 m 392 485 l 558 485 q 680 529 635 485 q 725 649 725 574 q 696 725 725 699 q 611 751 667 751 l 444 751 l 392 485 m 532 1288 l 599 1050 l 401 1036 l 311 1217 l 532 1288 m 822 1288 l 889 1050 l 692 1036 l 603 1217 l 822 1288 z "},"Ṛ":{"ha":1007,"x_min":6,"x_max":1006,"o":"m 1006 696 q 945 466 1006 565 q 772 314 885 367 l 904 0 l 578 0 l 500 261 l 347 261 l 294 0 l 6 0 l 200 974 l 656 974 q 915 901 825 974 q 1006 696 1006 829 m 392 485 l 558 485 q 680 529 635 485 q 725 649 725 574 q 696 725 725 699 q 611 751 667 751 l 444 751 l 392 485 m 407 -92 q 494 -124 461 -92 q 526 -210 526 -157 q 475 -331 526 -282 q 350 -381 424 -381 q 263 -348 296 -381 q 231 -262 231 -315 q 282 -141 231 -190 q 407 -92 333 -92 z "},"Ȓ":{"ha":1007,"x_min":6,"x_max":1006,"o":"m 1006 696 q 945 466 1006 565 q 772 314 885 367 l 904 0 l 578 0 l 500 261 l 347 261 l 294 0 l 6 0 l 200 974 l 656 974 q 915 901 825 974 q 1006 696 1006 829 m 392 485 l 558 485 q 680 529 635 485 q 725 649 725 574 q 696 725 725 699 q 611 751 667 751 l 444 751 l 392 485 m 692 1047 q 680 1101 696 1081 q 635 1122 664 1122 q 581 1101 604 1122 q 547 1047 557 1081 l 376 1047 q 481 1216 403 1153 q 665 1279 558 1279 q 813 1229 758 1279 q 867 1093 867 1179 q 863 1047 867 1071 l 692 1047 z "},"Ṟ":{"ha":1007,"x_min":6,"x_max":1006,"o":"m 1006 696 q 945 466 1006 565 q 772 314 885 367 l 904 0 l 578 0 l 500 261 l 347 261 l 294 0 l 6 0 l 200 974 l 656 974 q 915 901 825 974 q 1006 696 1006 829 m 392 485 l 558 485 q 680 529 635 485 q 725 649 725 574 q 696 725 725 699 q 611 751 667 751 l 444 751 l 392 485 m 203 -106 l 606 -106 l 574 -267 l 171 -267 l 203 -106 z "},"S":{"ha":892,"x_min":-31,"x_max":925,"o":"m 529 994 q 743 964 638 994 q 925 882 849 933 l 794 658 q 632 735 722 703 q 482 768 542 768 q 419 753 442 768 q 396 708 396 738 q 435 650 396 671 q 557 604 474 629 q 709 549 650 575 q 812 467 768 522 q 856 324 856 413 q 797 135 856 213 q 641 20 739 58 q 424 -18 543 -18 q 176 24 299 -18 q -31 140 54 67 l 101 361 q 269 253 168 297 q 447 208 371 208 q 526 228 497 208 q 554 283 554 247 q 515 341 554 321 q 392 385 476 361 q 240 438 300 411 q 137 517 181 464 q 93 656 93 569 q 148 835 93 758 q 301 953 203 911 q 529 994 400 994 z "},"Ś":{"ha":892,"x_min":-31,"x_max":925,"o":"m 529 994 q 743 964 638 994 q 925 882 849 933 l 794 658 q 632 735 722 703 q 482 768 542 768 q 419 753 442 768 q 396 708 396 738 q 435 650 396 671 q 557 604 474 629 q 709 549 650 575 q 812 467 768 522 q 856 324 856 413 q 797 135 856 213 q 641 20 739 58 q 424 -18 543 -18 q 176 24 299 -18 q -31 140 54 67 l 101 361 q 269 253 168 297 q 447 208 371 208 q 526 228 497 208 q 554 283 554 247 q 515 341 554 321 q 392 385 476 361 q 240 438 300 411 q 137 517 181 464 q 93 656 93 569 q 148 835 93 758 q 301 953 203 911 q 529 994 400 994 m 579 1289 l 800 1208 l 586 1039 l 403 1053 l 579 1289 z "},"Ṥ":{"ha":892,"x_min":-31,"x_max":925,"o":"m 529 994 q 743 964 638 994 q 925 882 849 933 l 794 658 q 632 735 722 703 q 482 768 542 768 q 419 753 442 768 q 396 708 396 738 q 435 650 396 671 q 557 604 474 629 q 709 549 650 575 q 812 467 768 522 q 856 324 856 413 q 797 135 856 213 q 641 20 739 58 q 424 -18 543 -18 q 176 24 299 -18 q -31 140 54 67 l 101 361 q 269 253 168 297 q 447 208 371 208 q 526 228 497 208 q 554 283 554 247 q 515 341 554 321 q 392 385 476 361 q 240 438 300 411 q 137 517 181 464 q 93 656 93 569 q 148 835 93 758 q 301 953 203 911 q 529 994 400 994 z "},"Ꞌ":{"ha":453,"x_min":86,"x_max":486,"o":"m 197 974 l 486 974 l 339 413 l 86 413 l 197 974 z "},"Š":{"ha":892,"x_min":-31,"x_max":925,"o":"m 529 994 q 743 964 638 994 q 925 882 849 933 l 794 658 q 632 735 722 703 q 482 768 542 768 q 419 753 442 768 q 396 708 396 738 q 435 650 396 671 q 557 604 474 629 q 709 549 650 575 q 812 467 768 522 q 856 324 856 413 q 797 135 856 213 q 641 20 739 58 q 424 -18 543 -18 q 176 24 299 -18 q -31 140 54 67 l 101 361 q 269 253 168 297 q 447 208 371 208 q 526 228 497 208 q 554 283 554 247 q 515 341 554 321 q 392 385 476 361 q 240 438 300 411 q 137 517 181 464 q 93 656 93 569 q 148 835 93 758 q 301 953 203 911 q 529 994 400 994 m 671 1265 l 857 1265 l 663 1047 l 422 1047 l 311 1265 l 497 1265 l 565 1169 l 671 1265 z "},"Ṧ":{"ha":892,"x_min":-31,"x_max":925,"o":"m 529 994 q 743 964 638 994 q 925 882 849 933 l 794 658 q 632 735 722 703 q 482 768 542 768 q 419 753 442 768 q 396 708 396 738 q 435 650 396 671 q 557 604 474 629 q 709 549 650 575 q 812 467 768 522 q 856 324 856 413 q 797 135 856 213 q 641 20 739 58 q 424 -18 543 -18 q 176 24 299 -18 q -31 140 54 67 l 101 361 q 269 253 168 297 q 447 208 371 208 q 526 228 497 208 q 554 283 554 247 q 515 341 554 321 q 392 385 476 361 q 240 438 300 411 q 137 517 181 464 q 93 656 93 569 q 148 835 93 758 q 301 953 203 911 q 529 994 400 994 z "},"Ş":{"ha":892,"x_min":-31,"x_max":925,"o":"m 396 708 q 435 650 396 671 q 557 604 474 629 q 709 549 650 575 q 812 467 768 522 q 856 324 856 413 q 804 145 856 219 q 665 31 753 71 q 468 -17 576 -10 l 435 -74 q 508 -113 485 -86 q 532 -175 532 -140 q 469 -292 532 -253 q 317 -332 407 -332 q 161 -303 235 -332 l 225 -179 q 293 -193 257 -193 q 340 -183 321 -193 q 358 -158 358 -172 q 338 -135 358 -143 q 286 -126 317 -126 l 256 -126 l 314 -10 q 125 44 215 6 q -31 140 35 83 l 101 361 q 269 253 168 297 q 447 208 371 208 q 526 228 497 208 q 554 283 554 247 q 515 341 554 321 q 392 385 476 361 q 240 438 300 411 q 137 517 181 464 q 93 656 93 569 q 148 835 93 758 q 301 953 203 911 q 529 994 400 994 q 743 964 638 994 q 925 882 849 933 l 794 658 q 632 735 722 703 q 482 768 542 768 q 419 753 442 768 q 396 708 396 738 z "},"Ŝ":{"ha":892,"x_min":-31,"x_max":925,"o":"m 529 994 q 743 964 638 994 q 925 882 849 933 l 794 658 q 632 735 722 703 q 482 768 542 768 q 419 753 442 768 q 396 708 396 738 q 435 650 396 671 q 557 604 474 629 q 709 549 650 575 q 812 467 768 522 q 856 324 856 413 q 797 135 856 213 q 641 20 739 58 q 424 -18 543 -18 q 176 24 299 -18 q -31 140 54 67 l 101 361 q 269 253 168 297 q 447 208 371 208 q 526 228 497 208 q 554 283 554 247 q 515 341 554 321 q 392 385 476 361 q 240 438 300 411 q 137 517 181 464 q 93 656 93 569 q 148 835 93 758 q 301 953 203 911 q 529 994 400 994 m 815 1049 l 629 1049 l 561 1144 l 456 1049 l 269 1049 l 464 1267 l 704 1267 l 815 1049 z "},"Ș":{"ha":892,"x_min":-31,"x_max":925,"o":"m 529 994 q 743 964 638 994 q 925 882 849 933 l 794 658 q 632 735 722 703 q 482 768 542 768 q 419 753 442 768 q 396 708 396 738 q 435 650 396 671 q 557 604 474 629 q 709 549 650 575 q 812 467 768 522 q 856 324 856 413 q 797 135 856 213 q 641 20 739 58 q 424 -18 543 -18 q 176 24 299 -18 q -31 140 54 67 l 101 361 q 269 253 168 297 q 447 208 371 208 q 526 228 497 208 q 554 283 554 247 q 515 341 554 321 q 392 385 476 361 q 240 438 300 411 q 137 517 181 464 q 93 656 93 569 q 148 835 93 758 q 301 953 203 911 q 529 994 400 994 m 267 -83 l 489 -83 l 335 -332 l 179 -332 l 267 -83 z "},"Ṡ":{"ha":892,"x_min":-31,"x_max":925,"o":"m 529 994 q 743 964 638 994 q 925 882 849 933 l 794 658 q 632 735 722 703 q 482 768 542 768 q 419 753 442 768 q 396 708 396 738 q 435 650 396 671 q 557 604 474 629 q 709 549 650 575 q 812 467 768 522 q 856 324 856 413 q 797 135 856 213 q 641 20 739 58 q 424 -18 543 -18 q 176 24 299 -18 q -31 140 54 67 l 101 361 q 269 253 168 297 q 447 208 371 208 q 526 228 497 208 q 554 283 554 247 q 515 341 554 321 q 392 385 476 361 q 240 438 300 411 q 137 517 181 464 q 93 656 93 569 q 148 835 93 758 q 301 953 203 911 q 529 994 400 994 m 599 1336 q 685 1303 653 1336 q 718 1218 718 1271 q 667 1097 718 1146 q 542 1047 615 1047 q 455 1080 488 1047 q 422 1165 422 1113 q 474 1287 422 1238 q 599 1336 525 1336 z "},"Ṣ":{"ha":892,"x_min":-31,"x_max":925,"o":"m 529 994 q 743 964 638 994 q 925 882 849 933 l 794 658 q 632 735 722 703 q 482 768 542 768 q 419 753 442 768 q 396 708 396 738 q 435 650 396 671 q 557 604 474 629 q 709 549 650 575 q 812 467 768 522 q 856 324 856 413 q 797 135 856 213 q 641 20 739 58 q 424 -18 543 -18 q 176 24 299 -18 q -31 140 54 67 l 101 361 q 269 253 168 297 q 447 208 371 208 q 526 228 497 208 q 554 283 554 247 q 515 341 554 321 q 392 385 476 361 q 240 438 300 411 q 137 517 181 464 q 93 656 93 569 q 148 835 93 758 q 301 953 203 911 q 529 994 400 994 m 379 -92 q 466 -124 433 -92 q 499 -210 499 -157 q 447 -331 499 -282 q 322 -381 396 -381 q 235 -348 268 -381 q 203 -262 203 -315 q 254 -141 203 -190 q 379 -92 306 -92 z "},"Ṩ":{"ha":892,"x_min":-31,"x_max":925,"o":"m 529 994 q 743 964 638 994 q 925 882 849 933 l 794 658 q 632 735 722 703 q 482 768 542 768 q 419 753 442 768 q 396 708 396 738 q 435 650 396 671 q 557 604 474 629 q 709 549 650 575 q 812 467 768 522 q 856 324 856 413 q 797 135 856 213 q 641 20 739 58 q 424 -18 543 -18 q 176 24 299 -18 q -31 140 54 67 l 101 361 q 269 253 168 297 q 447 208 371 208 q 526 228 497 208 q 554 283 554 247 q 515 341 554 321 q 392 385 476 361 q 240 438 300 411 q 137 517 181 464 q 93 656 93 569 q 148 835 93 758 q 301 953 203 911 q 529 994 400 994 m 379 -92 q 466 -124 433 -92 q 499 -210 499 -157 q 447 -331 499 -282 q 322 -381 396 -381 q 235 -348 268 -381 q 203 -262 203 -315 q 254 -141 203 -190 q 379 -92 306 -92 m 613 1336 q 699 1303 667 1336 q 732 1218 732 1271 q 681 1097 732 1146 q 556 1047 629 1047 q 469 1080 501 1047 q 436 1165 436 1113 q 488 1287 436 1238 q 613 1336 539 1336 z "},"ẞ":{"ha":1022,"x_min":-6,"x_max":1000,"o":"m 826 549 q 935 472 897 524 q 974 349 974 421 q 969 301 974 326 q 834 82 950 164 q 528 0 718 0 l 414 0 l 456 215 l 525 215 q 629 244 589 215 q 675 321 669 272 q 676 335 676 325 q 647 390 676 371 q 563 408 618 408 l 532 408 l 563 569 l 740 742 q 646 756 696 756 q 475 696 544 756 q 385 531 406 636 l 282 0 l -6 0 l 93 508 q 288 860 136 735 q 668 986 440 986 q 1000 886 868 986 l 961 685 l 826 549 z "},"Ə":{"ha":1053,"x_min":25,"x_max":1049,"o":"m 576 992 q 822 933 714 992 q 989 772 929 875 q 1049 538 1049 668 q 974 256 1049 383 q 769 55 899 129 q 488 -19 640 -19 q 249 35 347 -19 q 96 176 150 89 q 25 367 42 263 l 728 639 q 660 722 704 692 q 560 751 615 751 q 440 718 496 751 q 346 628 383 685 l 165 831 q 349 950 244 908 q 576 992 454 992 m 511 221 q 674 292 610 221 q 750 471 738 364 l 349 311 q 415 246 372 271 q 511 221 457 221 z "},"T":{"ha":972,"x_min":119,"x_max":1040,"o":"m 922 663 q 696 739 818 719 l 549 0 l 260 0 l 408 740 q 151 663 272 718 l 119 878 q 353 963 231 933 q 601 992 476 992 q 838 963 725 992 q 1040 876 950 933 l 922 663 z "},"Ŧ":{"ha":972,"x_min":119,"x_max":1040,"o":"m 922 663 q 696 739 818 719 l 649 499 l 808 499 l 779 349 l 618 349 l 549 0 l 260 0 l 329 349 l 158 349 l 188 499 l 360 499 l 408 740 q 151 663 272 718 l 119 878 q 353 963 231 933 q 601 992 476 992 q 838 963 725 992 q 1040 876 950 933 l 922 663 z "},"Ť":{"ha":972,"x_min":119,"x_max":1040,"o":"m 922 663 q 696 739 818 719 l 549 0 l 260 0 l 408 740 q 151 663 272 718 l 119 878 q 353 963 231 933 q 601 992 476 992 q 838 963 725 992 q 1040 876 950 933 l 922 663 m 749 1265 l 935 1265 l 740 1047 l 500 1047 l 389 1265 l 575 1265 l 643 1169 l 749 1265 z "},"Ţ":{"ha":972,"x_min":119,"x_max":1040,"o":"m 922 663 q 696 739 818 719 l 549 0 l 486 0 l 443 -74 q 517 -113 493 -86 q 540 -175 540 -140 q 478 -292 540 -253 q 325 -332 415 -332 q 169 -303 243 -332 l 233 -179 q 301 -193 265 -193 q 348 -183 329 -193 q 367 -158 367 -172 q 346 -135 367 -143 q 294 -126 325 -126 l 264 -126 l 328 0 l 260 0 l 408 740 q 151 663 272 718 l 119 878 q 353 963 231 933 q 601 992 476 992 q 838 963 725 992 q 1040 876 950 933 l 922 663 z "},"Ț":{"ha":972,"x_min":119,"x_max":1040,"o":"m 922 663 q 696 739 818 719 l 549 0 l 260 0 l 408 740 q 151 663 272 718 l 119 878 q 353 963 231 933 q 601 992 476 992 q 838 963 725 992 q 1040 876 950 933 l 922 663 m 275 -83 l 497 -83 l 343 -332 l 188 -332 l 275 -83 z "},"Ṭ":{"ha":972,"x_min":119,"x_max":1040,"o":"m 922 663 q 696 739 818 719 l 549 0 l 260 0 l 408 740 q 151 663 272 718 l 119 878 q 353 963 231 933 q 601 992 476 992 q 838 963 725 992 q 1040 876 950 933 l 922 663 m 388 -92 q 474 -124 442 -92 q 507 -210 507 -157 q 456 -331 507 -282 q 331 -381 404 -381 q 244 -348 276 -381 q 211 -262 211 -315 q 263 -141 211 -190 q 388 -92 314 -92 z "},"Ṯ":{"ha":972,"x_min":119,"x_max":1040,"o":"m 922 663 q 696 739 818 719 l 549 0 l 260 0 l 408 740 q 151 663 272 718 l 119 878 q 353 963 231 933 q 601 992 476 992 q 838 963 725 992 q 1040 876 950 933 l 922 663 m 183 -106 l 586 -106 l 554 -267 l 151 -267 l 183 -106 z "},"U":{"ha":1060,"x_min":50,"x_max":1097,"o":"m 317 -17 q 121 54 192 -17 q 50 247 50 125 q 60 342 50 294 l 186 974 l 479 974 l 367 410 q 361 364 361 376 q 394 276 361 308 q 483 243 426 243 q 622 294 563 243 q 699 426 681 344 l 808 974 l 1097 974 l 903 0 l 614 0 l 643 142 q 496 24 579 65 q 317 -17 413 -17 z "},"Ú":{"ha":1060,"x_min":50,"x_max":1097,"o":"m 317 -17 q 121 54 192 -17 q 50 247 50 125 q 60 342 50 294 l 186 974 l 479 974 l 367 410 q 361 364 361 376 q 394 276 361 308 q 483 243 426 243 q 622 294 563 243 q 699 426 681 344 l 808 974 l 1097 974 l 903 0 l 614 0 l 643 142 q 496 24 579 65 q 317 -17 413 -17 m 700 1289 l 921 1208 l 707 1039 l 524 1053 l 700 1289 z "},"Ŭ":{"ha":1060,"x_min":50,"x_max":1097,"o":"m 317 -17 q 121 54 192 -17 q 50 247 50 125 q 60 342 50 294 l 186 974 l 479 974 l 367 410 q 361 364 361 376 q 394 276 361 308 q 483 243 426 243 q 622 294 563 243 q 699 426 681 344 l 808 974 l 1097 974 l 903 0 l 614 0 l 643 142 q 496 24 579 65 q 317 -17 413 -17 m 635 1274 q 647 1219 631 1240 q 692 1199 663 1199 q 746 1219 722 1199 q 779 1274 769 1240 l 950 1274 q 846 1105 924 1168 q 661 1042 768 1042 q 514 1092 568 1042 q 460 1228 460 1142 q 464 1274 460 1251 l 635 1274 z "},"Û":{"ha":1060,"x_min":50,"x_max":1097,"o":"m 317 -17 q 121 54 192 -17 q 50 247 50 125 q 60 342 50 294 l 186 974 l 479 974 l 367 410 q 361 364 361 376 q 394 276 361 308 q 483 243 426 243 q 622 294 563 243 q 699 426 681 344 l 808 974 l 1097 974 l 903 0 l 614 0 l 643 142 q 496 24 579 65 q 317 -17 413 -17 m 936 1049 l 750 1049 l 682 1144 l 576 1049 l 390 1049 l 585 1267 l 825 1267 l 936 1049 z "},"Ȕ":{"ha":1060,"x_min":50,"x_max":1097,"o":"m 317 -17 q 121 54 192 -17 q 50 247 50 125 q 60 342 50 294 l 186 974 l 479 974 l 367 410 q 361 364 361 376 q 394 276 361 308 q 483 243 426 243 q 622 294 563 243 q 699 426 681 344 l 808 974 l 1097 974 l 903 0 l 614 0 l 643 142 q 496 24 579 65 q 317 -17 413 -17 m 575 1288 l 642 1050 l 444 1036 l 354 1217 l 575 1288 m 865 1288 l 932 1050 l 735 1036 l 646 1217 l 865 1288 z "},"Ü":{"ha":1060,"x_min":50,"x_max":1097,"o":"m 317 -17 q 121 54 192 -17 q 50 247 50 125 q 60 342 50 294 l 186 974 l 479 974 l 367 410 q 361 364 361 376 q 394 276 361 308 q 483 243 426 243 q 622 294 563 243 q 699 426 681 344 l 808 974 l 1097 974 l 903 0 l 614 0 l 643 142 q 496 24 579 65 q 317 -17 413 -17 m 571 1276 q 640 1250 614 1276 q 665 1181 665 1224 q 624 1085 665 1125 q 526 1046 583 1046 q 457 1072 483 1046 q 431 1140 431 1099 q 472 1237 431 1197 q 571 1276 513 1276 m 844 1276 q 913 1250 888 1276 q 938 1181 938 1224 q 897 1085 938 1125 q 800 1046 857 1046 q 731 1072 757 1046 q 704 1140 704 1099 q 745 1237 704 1197 q 844 1276 786 1276 z "},"Ụ":{"ha":1060,"x_min":50,"x_max":1097,"o":"m 317 -17 q 121 54 192 -17 q 50 247 50 125 q 60 342 50 294 l 186 974 l 479 974 l 367 410 q 361 364 361 376 q 394 276 361 308 q 483 243 426 243 q 622 294 563 243 q 699 426 681 344 l 808 974 l 1097 974 l 903 0 l 614 0 l 643 142 q 496 24 579 65 q 317 -17 413 -17 m 438 -92 q 524 -124 492 -92 q 557 -210 557 -157 q 506 -331 557 -282 q 381 -381 454 -381 q 294 -348 326 -381 q 261 -262 261 -315 q 313 -141 261 -190 q 438 -92 364 -92 z "},"Ù":{"ha":1060,"x_min":50,"x_max":1097,"o":"m 317 -17 q 121 54 192 -17 q 50 247 50 125 q 60 342 50 294 l 186 974 l 479 974 l 367 410 q 361 364 361 376 q 394 276 361 308 q 483 243 426 243 q 622 294 563 243 q 699 426 681 344 l 808 974 l 1097 974 l 903 0 l 614 0 l 643 142 q 496 24 579 65 q 317 -17 413 -17 m 674 1289 l 824 1053 l 639 1039 l 453 1208 l 674 1289 z "},"Ủ":{"ha":1060,"x_min":50,"x_max":1097,"o":"m 317 -17 q 121 54 192 -17 q 50 247 50 125 q 60 342 50 294 l 186 974 l 479 974 l 367 410 q 361 364 361 376 q 394 276 361 308 q 483 243 426 243 q 622 294 563 243 q 699 426 681 344 l 808 974 l 1097 974 l 903 0 l 614 0 l 643 142 q 496 24 579 65 q 317 -17 413 -17 m 738 1364 q 840 1333 804 1364 q 876 1253 876 1303 q 708 1029 876 1143 l 599 1078 q 661 1137 639 1107 q 683 1189 683 1167 q 675 1211 683 1203 q 651 1219 667 1219 q 594 1200 622 1219 l 546 1308 q 738 1364 649 1364 z "},"Ư":{"ha":1158,"x_min":50,"x_max":1293,"o":"m 1283 1186 q 1293 1100 1293 1143 q 1236 935 1293 1000 q 1072 846 1179 869 l 903 0 l 614 0 l 643 142 q 496 24 579 65 q 317 -17 413 -17 q 121 54 192 -17 q 50 247 50 125 q 60 342 50 294 l 186 974 l 479 974 l 367 410 q 361 364 361 376 q 394 276 361 308 q 483 243 426 243 q 622 294 563 243 q 699 426 681 344 l 808 974 l 996 974 q 1063 1001 1040 974 q 1086 1067 1086 1028 q 1075 1114 1086 1092 l 1283 1186 z "},"Ứ":{"ha":1158,"x_min":50,"x_max":1293,"o":"m 1283 1186 q 1293 1100 1293 1143 q 1236 935 1293 1000 q 1072 846 1179 869 l 903 0 l 614 0 l 643 142 q 496 24 579 65 q 317 -17 413 -17 q 121 54 192 -17 q 50 247 50 125 q 60 342 50 294 l 186 974 l 479 974 l 367 410 q 361 364 361 376 q 394 276 361 308 q 483 243 426 243 q 622 294 563 243 q 699 426 681 344 l 808 974 l 996 974 q 1063 1001 1040 974 q 1086 1067 1086 1028 q 1075 1114 1086 1092 l 1283 1186 m 700 1289 l 921 1208 l 707 1039 l 524 1053 l 700 1289 z "},"Ự":{"ha":1157,"x_min":50,"x_max":1293,"o":"m 1283 1186 q 1293 1100 1293 1143 q 1236 935 1293 1000 q 1072 846 1179 869 l 903 0 l 614 0 l 643 142 q 496 24 579 65 q 317 -17 413 -17 q 121 54 192 -17 q 50 247 50 125 q 60 342 50 294 l 186 974 l 479 974 l 367 410 q 361 364 361 376 q 394 276 361 308 q 483 243 426 243 q 622 294 563 243 q 699 426 681 344 l 808 974 l 996 974 q 1063 1001 1040 974 q 1086 1067 1086 1028 q 1075 1114 1086 1092 l 1283 1186 m 438 -92 q 524 -124 492 -92 q 557 -210 557 -157 q 506 -331 557 -282 q 381 -381 454 -381 q 294 -348 326 -381 q 261 -262 261 -315 q 313 -141 261 -190 q 438 -92 364 -92 z "},"Ừ":{"ha":1158,"x_min":50,"x_max":1293,"o":"m 1283 1186 q 1293 1100 1293 1143 q 1236 935 1293 1000 q 1072 846 1179 869 l 903 0 l 614 0 l 643 142 q 496 24 579 65 q 317 -17 413 -17 q 121 54 192 -17 q 50 247 50 125 q 60 342 50 294 l 186 974 l 479 974 l 367 410 q 361 364 361 376 q 394 276 361 308 q 483 243 426 243 q 622 294 563 243 q 699 426 681 344 l 808 974 l 996 974 q 1063 1001 1040 974 q 1086 1067 1086 1028 q 1075 1114 1086 1092 l 1283 1186 m 674 1289 l 824 1053 l 639 1039 l 453 1208 l 674 1289 z "},"Ử":{"ha":1158,"x_min":50,"x_max":1293,"o":"m 1283 1186 q 1293 1100 1293 1143 q 1236 935 1293 1000 q 1072 846 1179 869 l 903 0 l 614 0 l 643 142 q 496 24 579 65 q 317 -17 413 -17 q 121 54 192 -17 q 50 247 50 125 q 60 342 50 294 l 186 974 l 479 974 l 367 410 q 361 364 361 376 q 394 276 361 308 q 483 243 426 243 q 622 294 563 243 q 699 426 681 344 l 808 974 l 996 974 q 1063 1001 1040 974 q 1086 1067 1086 1028 q 1075 1114 1086 1092 l 1283 1186 m 738 1364 q 840 1333 804 1364 q 876 1253 876 1303 q 708 1029 876 1143 l 599 1078 q 661 1137 639 1107 q 683 1189 683 1167 q 675 1211 683 1203 q 651 1219 667 1219 q 594 1200 622 1219 l 546 1308 q 738 1364 649 1364 z "},"Ữ":{"ha":1158,"x_min":50,"x_max":1293,"o":"m 1283 1186 q 1293 1100 1293 1143 q 1236 935 1293 1000 q 1072 846 1179 869 l 903 0 l 614 0 l 643 142 q 496 24 579 65 q 317 -17 413 -17 q 121 54 192 -17 q 50 247 50 125 q 60 342 50 294 l 186 974 l 479 974 l 367 410 q 361 364 361 376 q 394 276 361 308 q 483 243 426 243 q 622 294 563 243 q 699 426 681 344 l 808 974 l 996 974 q 1063 1001 1040 974 q 1086 1067 1086 1028 q 1075 1114 1086 1092 l 1283 1186 m 975 1276 q 907 1101 951 1158 q 789 1044 863 1044 q 726 1055 754 1044 q 668 1083 699 1065 q 615 1104 632 1104 q 564 1049 576 1104 l 414 1049 q 482 1223 436 1165 q 601 1281 528 1281 q 661 1271 635 1281 q 721 1243 688 1261 q 750 1228 736 1235 q 774 1222 764 1222 q 806 1235 794 1222 q 825 1276 818 1249 l 975 1276 z "},"Ű":{"ha":1060,"x_min":50,"x_max":1097,"o":"m 317 -17 q 121 54 192 -17 q 50 247 50 125 q 60 342 50 294 l 186 974 l 479 974 l 367 410 q 361 364 361 376 q 394 276 361 308 q 483 243 426 243 q 622 294 563 243 q 699 426 681 344 l 808 974 l 1097 974 l 903 0 l 614 0 l 643 142 q 496 24 579 65 q 317 -17 413 -17 m 532 1290 l 724 1219 l 597 1039 l 404 1053 l 532 1290 m 822 1290 l 1014 1219 l 888 1039 l 694 1053 l 822 1290 z "},"Ȗ":{"ha":1060,"x_min":50,"x_max":1097,"o":"m 317 -17 q 121 54 192 -17 q 50 247 50 125 q 60 342 50 294 l 186 974 l 479 974 l 367 410 q 361 364 361 376 q 394 276 361 308 q 483 243 426 243 q 622 294 563 243 q 699 426 681 344 l 808 974 l 1097 974 l 903 0 l 614 0 l 643 142 q 496 24 579 65 q 317 -17 413 -17 m 735 1047 q 723 1101 739 1081 q 678 1122 707 1122 q 624 1101 647 1122 q 590 1047 600 1081 l 419 1047 q 524 1216 446 1153 q 708 1279 601 1279 q 856 1229 801 1279 q 910 1093 910 1179 q 906 1047 910 1071 l 735 1047 z "},"Ū":{"ha":1060,"x_min":50,"x_max":1097,"o":"m 317 -17 q 121 54 192 -17 q 50 247 50 125 q 60 342 50 294 l 186 974 l 479 974 l 367 410 q 361 364 361 376 q 394 276 361 308 q 483 243 426 243 q 622 294 563 243 q 699 426 681 344 l 808 974 l 1097 974 l 903 0 l 614 0 l 643 142 q 496 24 579 65 q 317 -17 413 -17 m 454 1210 l 936 1210 l 904 1050 l 422 1050 l 454 1210 z "},"Ṻ":{"ha":1060,"x_min":50,"x_max":1097,"o":"m 317 -17 q 121 54 192 -17 q 50 247 50 125 q 60 342 50 294 l 186 974 l 479 974 l 367 410 q 361 364 361 376 q 394 276 361 308 q 483 243 426 243 q 622 294 563 243 q 699 426 681 344 l 808 974 l 1097 974 l 903 0 l 614 0 l 643 142 q 496 24 579 65 q 317 -17 413 -17 z "},"Ų":{"ha":1060,"x_min":50,"x_max":1097,"o":"m 1097 974 l 903 0 l 832 0 q 737 -72 769 -39 q 704 -140 704 -106 q 728 -167 704 -167 q 768 -156 743 -167 l 781 -299 q 631 -331 700 -331 q 533 -297 565 -331 q 500 -208 500 -264 q 614 3 500 -101 l 643 142 q 496 24 579 65 q 317 -17 413 -17 q 121 54 192 -17 q 50 247 50 125 q 60 342 50 294 l 186 974 l 479 974 l 367 410 q 361 364 361 376 q 394 276 361 308 q 483 243 426 243 q 622 294 563 243 q 699 426 681 344 l 808 974 l 1097 974 z "},"Ů":{"ha":1060,"x_min":50,"x_max":1097,"o":"m 317 -17 q 121 54 192 -17 q 50 247 50 125 q 60 342 50 294 l 186 974 l 479 974 l 367 410 q 361 364 361 376 q 394 276 361 308 q 483 243 426 243 q 622 294 563 243 q 699 426 681 344 l 808 974 l 1097 974 l 903 0 l 614 0 l 643 142 q 496 24 579 65 q 317 -17 413 -17 m 710 1358 q 817 1315 775 1358 q 860 1210 860 1272 q 833 1117 860 1160 q 763 1048 807 1074 q 669 1022 719 1022 q 562 1065 604 1022 q 519 1169 519 1107 q 546 1263 519 1219 q 617 1333 572 1307 q 710 1358 661 1358 m 697 1247 q 651 1228 671 1247 q 632 1181 632 1208 q 646 1146 632 1160 q 682 1132 660 1132 q 728 1151 708 1132 q 747 1197 747 1171 q 733 1233 747 1218 q 697 1247 719 1247 z "},"Ũ":{"ha":1060,"x_min":50,"x_max":1097,"o":"m 317 -17 q 121 54 192 -17 q 50 247 50 125 q 60 342 50 294 l 186 974 l 479 974 l 367 410 q 361 364 361 376 q 394 276 361 308 q 483 243 426 243 q 622 294 563 243 q 699 426 681 344 l 808 974 l 1097 974 l 903 0 l 614 0 l 643 142 q 496 24 579 65 q 317 -17 413 -17 m 975 1276 q 907 1101 951 1158 q 789 1044 863 1044 q 726 1055 754 1044 q 668 1083 699 1065 q 615 1104 632 1104 q 564 1049 576 1104 l 414 1049 q 482 1223 436 1165 q 601 1281 528 1281 q 661 1271 635 1281 q 721 1243 688 1261 q 750 1228 736 1235 q 774 1222 764 1222 q 806 1235 794 1222 q 825 1276 818 1249 l 975 1276 z "},"Ṹ":{"ha":1060,"x_min":50,"x_max":1097,"o":"m 317 -17 q 121 54 192 -17 q 50 247 50 125 q 60 342 50 294 l 186 974 l 479 974 l 367 410 q 361 364 361 376 q 394 276 361 308 q 483 243 426 243 q 622 294 563 243 q 699 426 681 344 l 808 974 l 1097 974 l 903 0 l 614 0 l 643 142 q 496 24 579 65 q 317 -17 413 -17 m 1000 1240 q 939 1094 981 1142 q 822 1046 897 1046 q 757 1055 786 1046 q 690 1081 728 1064 q 656 1095 672 1089 q 626 1101 639 1101 q 592 1089 603 1101 q 575 1049 581 1076 l 446 1049 q 508 1196 465 1147 q 624 1244 550 1244 q 692 1235 661 1244 q 760 1208 724 1225 q 819 1189 801 1189 q 854 1202 842 1189 q 872 1240 867 1215 l 1000 1240 m 817 1529 l 999 1422 l 767 1299 l 610 1339 l 817 1529 z "},"V":{"ha":1039,"x_min":114,"x_max":1163,"o":"m 867 974 l 1163 974 l 625 0 l 326 0 l 114 974 l 424 974 l 535 299 l 867 974 z "},"W":{"ha":1590,"x_min":63,"x_max":1638,"o":"m 1524 383 q 1434 176 1501 268 q 1269 32 1367 83 q 1060 -19 1171 -19 q 871 28 954 -19 q 753 150 788 75 q 590 28 690 75 q 382 -19 489 -19 q 213 19 285 -19 q 101 130 140 58 q 63 294 63 201 q 71 383 63 338 l 185 974 l 474 974 l 360 383 q 356 346 356 363 q 388 255 356 289 q 475 221 421 221 q 589 267 539 221 q 653 383 639 313 l 767 974 l 1056 974 l 942 383 q 938 347 938 365 q 972 256 938 290 q 1061 221 1006 221 q 1172 267 1124 221 q 1235 383 1221 313 l 1349 974 l 1638 974 l 1524 383 z "},"Ẃ":{"ha":1590,"x_min":63,"x_max":1638,"o":"m 1524 383 q 1434 176 1501 268 q 1269 32 1367 83 q 1060 -19 1171 -19 q 871 28 954 -19 q 753 150 788 75 q 590 28 690 75 q 382 -19 489 -19 q 213 19 285 -19 q 101 130 140 58 q 63 294 63 201 q 71 383 63 338 l 185 974 l 474 974 l 360 383 q 356 346 356 363 q 388 255 356 289 q 475 221 421 221 q 589 267 539 221 q 653 383 639 313 l 767 974 l 1056 974 l 942 383 q 938 347 938 365 q 972 256 938 290 q 1061 221 1006 221 q 1172 267 1124 221 q 1235 383 1221 313 l 1349 974 l 1638 974 l 1524 383 m 964 1289 l 1185 1208 l 971 1039 l 788 1053 l 964 1289 z "},"Ŵ":{"ha":1590,"x_min":63,"x_max":1638,"o":"m 1524 383 q 1434 176 1501 268 q 1269 32 1367 83 q 1060 -19 1171 -19 q 871 28 954 -19 q 753 150 788 75 q 590 28 690 75 q 382 -19 489 -19 q 213 19 285 -19 q 101 130 140 58 q 63 294 63 201 q 71 383 63 338 l 185 974 l 474 974 l 360 383 q 356 346 356 363 q 388 255 356 289 q 475 221 421 221 q 589 267 539 221 q 653 383 639 313 l 767 974 l 1056 974 l 942 383 q 938 347 938 365 q 972 256 938 290 q 1061 221 1006 221 q 1172 267 1124 221 q 1235 383 1221 313 l 1349 974 l 1638 974 l 1524 383 m 1200 1049 l 1014 1049 l 946 1144 l 840 1049 l 654 1049 l 849 1267 l 1089 1267 l 1200 1049 z "},"Ẅ":{"ha":1590,"x_min":63,"x_max":1638,"o":"m 1524 383 q 1434 176 1501 268 q 1269 32 1367 83 q 1060 -19 1171 -19 q 871 28 954 -19 q 753 150 788 75 q 590 28 690 75 q 382 -19 489 -19 q 213 19 285 -19 q 101 130 140 58 q 63 294 63 201 q 71 383 63 338 l 185 974 l 474 974 l 360 383 q 356 346 356 363 q 388 255 356 289 q 475 221 421 221 q 589 267 539 221 q 653 383 639 313 l 767 974 l 1056 974 l 942 383 q 938 347 938 365 q 972 256 938 290 q 1061 221 1006 221 q 1172 267 1124 221 q 1235 383 1221 313 l 1349 974 l 1638 974 l 1524 383 m 835 1276 q 903 1250 878 1276 q 929 1181 929 1224 q 888 1085 929 1125 q 790 1046 847 1046 q 721 1072 747 1046 q 694 1140 694 1099 q 735 1237 694 1197 q 835 1276 776 1276 m 1108 1276 q 1176 1250 1151 1276 q 1201 1181 1201 1224 q 1161 1085 1201 1125 q 1064 1046 1121 1046 q 994 1072 1021 1046 q 968 1140 968 1099 q 1009 1237 968 1197 q 1108 1276 1050 1276 z "},"Ẁ":{"ha":1590,"x_min":63,"x_max":1638,"o":"m 1524 383 q 1434 176 1501 268 q 1269 32 1367 83 q 1060 -19 1171 -19 q 871 28 954 -19 q 753 150 788 75 q 590 28 690 75 q 382 -19 489 -19 q 213 19 285 -19 q 101 130 140 58 q 63 294 63 201 q 71 383 63 338 l 185 974 l 474 974 l 360 383 q 356 346 356 363 q 388 255 356 289 q 475 221 421 221 q 589 267 539 221 q 653 383 639 313 l 767 974 l 1056 974 l 942 383 q 938 347 938 365 q 972 256 938 290 q 1061 221 1006 221 q 1172 267 1124 221 q 1235 383 1221 313 l 1349 974 l 1638 974 l 1524 383 m 938 1289 l 1088 1053 l 903 1039 l 717 1208 l 938 1289 z "},"X":{"ha":1063,"x_min":-65,"x_max":1118,"o":"m 1118 974 l 722 508 l 986 0 l 639 0 l 501 278 l 274 0 l -65 0 l 361 496 l 118 974 l 454 974 l 574 719 l 778 974 l 1118 974 z "},"Y":{"ha":1035,"x_min":7,"x_max":1088,"o":"m 1088 974 l 944 254 q 846 38 919 129 q 660 -102 772 -53 q 414 -151 549 -151 q 183 -112 293 -151 q 7 -10 74 -72 l 143 172 q 260 112 190 133 q 393 90 329 90 q 569 145 493 90 q 661 283 644 200 l 674 343 q 545 247 618 281 q 389 213 472 213 q 178 292 256 213 q 101 503 101 371 q 111 597 101 550 l 186 974 l 475 974 l 401 601 q 397 563 397 581 q 427 486 397 513 q 514 460 457 460 q 655 512 593 460 q 732 642 717 564 l 799 974 l 1088 974 z "},"Ý":{"ha":1035,"x_min":7,"x_max":1088,"o":"m 1088 974 l 944 254 q 846 38 919 129 q 660 -102 772 -53 q 414 -151 549 -151 q 183 -112 293 -151 q 7 -10 74 -72 l 143 172 q 260 112 190 133 q 393 90 329 90 q 569 145 493 90 q 661 283 644 200 l 674 343 q 545 247 618 281 q 389 213 472 213 q 178 292 256 213 q 101 503 101 371 q 111 597 101 550 l 186 974 l 475 974 l 401 601 q 397 563 397 581 q 427 486 397 513 q 514 460 457 460 q 655 512 593 460 q 732 642 717 564 l 799 974 l 1088 974 m 689 1289 l 910 1208 l 696 1039 l 513 1053 l 689 1289 z "},"Ŷ":{"ha":1035,"x_min":7,"x_max":1088,"o":"m 1088 974 l 944 254 q 846 38 919 129 q 660 -102 772 -53 q 414 -151 549 -151 q 183 -112 293 -151 q 7 -10 74 -72 l 143 172 q 260 112 190 133 q 393 90 329 90 q 569 145 493 90 q 661 283 644 200 l 674 343 q 545 247 618 281 q 389 213 472 213 q 178 292 256 213 q 101 503 101 371 q 111 597 101 550 l 186 974 l 475 974 l 401 601 q 397 563 397 581 q 427 486 397 513 q 514 460 457 460 q 655 512 593 460 q 732 642 717 564 l 799 974 l 1088 974 m 925 1049 l 739 1049 l 671 1144 l 565 1049 l 379 1049 l 574 1267 l 814 1267 l 925 1049 z "},"Ÿ":{"ha":1035,"x_min":7,"x_max":1088,"o":"m 1088 974 l 944 254 q 846 38 919 129 q 660 -102 772 -53 q 414 -151 549 -151 q 183 -112 293 -151 q 7 -10 74 -72 l 143 172 q 260 112 190 133 q 393 90 329 90 q 569 145 493 90 q 661 283 644 200 l 674 343 q 545 247 618 281 q 389 213 472 213 q 178 292 256 213 q 101 503 101 371 q 111 597 101 550 l 186 974 l 475 974 l 401 601 q 397 563 397 581 q 427 486 397 513 q 514 460 457 460 q 655 512 593 460 q 732 642 717 564 l 799 974 l 1088 974 m 560 1276 q 628 1250 603 1276 q 654 1181 654 1224 q 613 1085 654 1125 q 515 1046 572 1046 q 446 1072 472 1046 q 419 1140 419 1099 q 460 1237 419 1197 q 560 1276 501 1276 m 833 1276 q 901 1250 876 1276 q 926 1181 926 1224 q 886 1085 926 1125 q 789 1046 846 1046 q 719 1072 746 1046 q 693 1140 693 1099 q 734 1237 693 1197 q 833 1276 775 1276 z "},"Ẏ":{"ha":1035,"x_min":7,"x_max":1088,"o":"m 1088 974 l 944 254 q 846 38 919 129 q 660 -102 772 -53 q 414 -151 549 -151 q 183 -112 293 -151 q 7 -10 74 -72 l 143 172 q 260 112 190 133 q 393 90 329 90 q 569 145 493 90 q 661 283 644 200 l 674 343 q 545 247 618 281 q 389 213 472 213 q 178 292 256 213 q 101 503 101 371 q 111 597 101 550 l 186 974 l 475 974 l 401 601 q 397 563 397 581 q 427 486 397 513 q 514 460 457 460 q 655 512 593 460 q 732 642 717 564 l 799 974 l 1088 974 m 708 1336 q 795 1303 763 1336 q 828 1218 828 1271 q 776 1097 828 1146 q 651 1047 725 1047 q 565 1080 597 1047 q 532 1165 532 1113 q 583 1287 532 1238 q 708 1336 635 1336 z "},"Ỵ":{"ha":1035,"x_min":7,"x_max":1088,"o":"m 1088 974 l 944 254 q 846 38 919 129 q 660 -102 772 -53 q 414 -151 549 -151 q 183 -112 293 -151 q 7 -10 74 -72 l 143 172 q 260 112 190 133 q 393 90 329 90 q 569 145 493 90 q 661 283 644 200 l 674 343 q 545 247 618 281 q 389 213 472 213 q 178 292 256 213 q 101 503 101 371 q 111 597 101 550 l 186 974 l 475 974 l 401 601 q 397 563 397 581 q 427 486 397 513 q 514 460 457 460 q 655 512 593 460 q 732 642 717 564 l 799 974 l 1088 974 m 399 -239 q 485 -272 453 -239 q 518 -357 518 -304 q 467 -478 518 -429 q 342 -528 415 -528 q 255 -495 288 -528 q 222 -410 222 -462 q 274 -288 222 -337 q 399 -239 325 -239 z "},"Ỳ":{"ha":1035,"x_min":7,"x_max":1088,"o":"m 1088 974 l 944 254 q 846 38 919 129 q 660 -102 772 -53 q 414 -151 549 -151 q 183 -112 293 -151 q 7 -10 74 -72 l 143 172 q 260 112 190 133 q 393 90 329 90 q 569 145 493 90 q 661 283 644 200 l 674 343 q 545 247 618 281 q 389 213 472 213 q 178 292 256 213 q 101 503 101 371 q 111 597 101 550 l 186 974 l 475 974 l 401 601 q 397 563 397 581 q 427 486 397 513 q 514 460 457 460 q 655 512 593 460 q 732 642 717 564 l 799 974 l 1088 974 m 663 1289 l 813 1053 l 628 1039 l 442 1208 l 663 1289 z "},"Ỷ":{"ha":1035,"x_min":7,"x_max":1088,"o":"m 1088 974 l 944 254 q 846 38 919 129 q 660 -102 772 -53 q 414 -151 549 -151 q 183 -112 293 -151 q 7 -10 74 -72 l 143 172 q 260 112 190 133 q 393 90 329 90 q 569 145 493 90 q 661 283 644 200 l 674 343 q 545 247 618 281 q 389 213 472 213 q 178 292 256 213 q 101 503 101 371 q 111 597 101 550 l 186 974 l 475 974 l 401 601 q 397 563 397 581 q 427 486 397 513 q 514 460 457 460 q 655 512 593 460 q 732 642 717 564 l 799 974 l 1088 974 m 726 1364 q 829 1333 793 1364 q 865 1253 865 1303 q 697 1029 865 1143 l 588 1078 q 650 1137 628 1107 q 672 1189 672 1167 q 664 1211 672 1203 q 640 1219 656 1219 q 583 1200 611 1219 l 535 1308 q 726 1364 638 1364 z "},"Ȳ":{"ha":1035,"x_min":7,"x_max":1088,"o":"m 1088 974 l 944 254 q 846 38 919 129 q 660 -102 772 -53 q 414 -151 549 -151 q 183 -112 293 -151 q 7 -10 74 -72 l 143 172 q 260 112 190 133 q 393 90 329 90 q 569 145 493 90 q 661 283 644 200 l 674 343 q 545 247 618 281 q 389 213 472 213 q 178 292 256 213 q 101 503 101 371 q 111 597 101 550 l 186 974 l 475 974 l 401 601 q 397 563 397 581 q 427 486 397 513 q 514 460 457 460 q 655 512 593 460 q 732 642 717 564 l 799 974 l 1088 974 m 443 1210 l 925 1210 l 893 1050 l 411 1050 l 443 1210 z "},"Ỹ":{"ha":1035,"x_min":7,"x_max":1088,"o":"m 1088 974 l 944 254 q 846 38 919 129 q 660 -102 772 -53 q 414 -151 549 -151 q 183 -112 293 -151 q 7 -10 74 -72 l 143 172 q 260 112 190 133 q 393 90 329 90 q 569 145 493 90 q 661 283 644 200 l 674 343 q 545 247 618 281 q 389 213 472 213 q 178 292 256 213 q 101 503 101 371 q 111 597 101 550 l 186 974 l 475 974 l 401 601 q 397 563 397 581 q 427 486 397 513 q 514 460 457 460 q 655 512 593 460 q 732 642 717 564 l 799 974 l 1088 974 m 964 1276 q 896 1101 940 1158 q 778 1044 851 1044 q 715 1055 743 1044 q 657 1083 688 1065 q 604 1104 621 1104 q 553 1049 565 1104 l 403 1049 q 471 1223 425 1165 q 590 1281 517 1281 q 650 1271 624 1281 q 710 1243 676 1261 q 739 1228 725 1235 q 763 1222 753 1222 q 795 1235 783 1222 q 814 1276 807 1249 l 964 1276 z "},"Z":{"ha":960,"x_min":-26,"x_max":1003,"o":"m 1003 974 l 974 790 l 750 571 l 867 571 l 831 392 l 568 392 l 397 225 l 889 225 l 851 0 l -26 0 l 4 182 l 242 414 l 118 414 l 154 593 l 424 593 l 583 749 l 115 749 l 151 974 l 1003 974 z "},"Ź":{"ha":960,"x_min":-26,"x_max":1003,"o":"m 1003 974 l 974 790 l 750 571 l 867 571 l 831 392 l 568 392 l 397 225 l 889 225 l 851 0 l -26 0 l 4 182 l 242 414 l 118 414 l 154 593 l 424 593 l 583 749 l 115 749 l 151 974 l 1003 974 m 638 1289 l 858 1208 l 644 1039 l 461 1053 l 638 1289 z "},"Ž":{"ha":960,"x_min":-26,"x_max":1003,"o":"m 1003 974 l 974 790 l 750 571 l 867 571 l 831 392 l 568 392 l 397 225 l 889 225 l 851 0 l -26 0 l 4 182 l 242 414 l 118 414 l 154 593 l 424 593 l 583 749 l 115 749 l 151 974 l 1003 974 m 729 1265 l 915 1265 l 721 1047 l 481 1047 l 369 1265 l 556 1265 l 624 1169 l 729 1265 z "},"Ż":{"ha":960,"x_min":-26,"x_max":1003,"o":"m 1003 974 l 974 790 l 750 571 l 867 571 l 831 392 l 568 392 l 397 225 l 889 225 l 851 0 l -26 0 l 4 182 l 242 414 l 118 414 l 154 593 l 424 593 l 583 749 l 115 749 l 151 974 l 1003 974 m 657 1336 q 744 1303 711 1336 q 776 1218 776 1271 q 725 1097 776 1146 q 600 1047 674 1047 q 513 1080 546 1047 q 481 1165 481 1113 q 532 1287 481 1238 q 657 1336 583 1336 z "},"Ẓ":{"ha":960,"x_min":-26,"x_max":1003,"o":"m 1003 974 l 974 790 l 750 571 l 867 571 l 831 392 l 568 392 l 397 225 l 889 225 l 851 0 l -26 0 l 4 182 l 242 414 l 118 414 l 154 593 l 424 593 l 583 749 l 115 749 l 151 974 l 1003 974 m 419 -92 q 506 -124 474 -92 q 539 -210 539 -157 q 488 -331 539 -282 q 363 -381 436 -381 q 276 -348 308 -381 q 243 -262 243 -315 q 294 -141 243 -190 q 419 -92 346 -92 z "},"a":{"ha":1000,"x_min":25,"x_max":949,"o":"m 311 -10 q 163 32 228 -10 q 61 148 97 74 q 25 319 25 222 q 77 545 25 443 q 220 706 129 647 q 419 765 311 765 q 554 734 497 765 q 643 643 611 703 l 665 756 l 946 756 l 853 290 q 849 263 849 274 q 858 237 849 244 q 889 229 868 229 q 949 242 919 229 l 900 -1 q 817 -12 851 -12 q 679 24 733 -12 q 597 135 625 60 l 592 151 q 463 32 536 74 q 311 -10 390 -10 m 424 200 q 506 227 468 200 q 567 300 544 254 q 589 400 589 346 q 557 499 589 461 q 471 536 525 536 q 390 509 426 536 q 331 437 353 482 q 308 338 308 392 q 340 237 308 274 q 424 200 371 200 z "},"á":{"ha":1000,"x_min":25,"x_max":949,"o":"m 311 -10 q 163 32 228 -10 q 61 148 97 74 q 25 319 25 222 q 77 545 25 443 q 220 706 129 647 q 419 765 311 765 q 554 734 497 765 q 643 643 611 703 l 665 756 l 946 756 l 853 290 q 849 263 849 274 q 858 237 849 244 q 889 229 868 229 q 949 242 919 229 l 900 -1 q 817 -12 851 -12 q 679 24 733 -12 q 597 135 625 60 l 592 151 q 463 32 536 74 q 311 -10 390 -10 m 424 200 q 506 227 468 200 q 567 300 544 254 q 589 400 589 346 q 557 499 589 461 q 471 536 525 536 q 390 509 426 536 q 331 437 353 482 q 308 338 308 392 q 340 237 308 274 q 424 200 371 200 m 575 1076 l 796 996 l 582 826 l 399 840 l 575 1076 z "},"ă":{"ha":1000,"x_min":25,"x_max":949,"o":"m 311 -10 q 163 32 228 -10 q 61 148 97 74 q 25 319 25 222 q 77 545 25 443 q 220 706 129 647 q 419 765 311 765 q 554 734 497 765 q 643 643 611 703 l 665 756 l 946 756 l 853 290 q 849 263 849 274 q 858 237 849 244 q 889 229 868 229 q 949 242 919 229 l 900 -1 q 817 -12 851 -12 q 679 24 733 -12 q 597 135 625 60 l 592 151 q 463 32 536 74 q 311 -10 390 -10 m 424 200 q 506 227 468 200 q 567 300 544 254 q 589 400 589 346 q 557 499 589 461 q 471 536 525 536 q 390 509 426 536 q 331 437 353 482 q 308 338 308 392 q 340 237 308 274 q 424 200 371 200 m 510 1063 q 522 1008 506 1029 q 567 988 538 988 q 621 1008 597 988 q 654 1063 644 1029 l 825 1063 q 721 894 799 957 q 536 831 643 831 q 389 881 443 831 q 335 1017 335 931 q 339 1063 335 1040 l 510 1063 z "},"ắ":{"ha":1000,"x_min":25,"x_max":949,"o":"m 311 -10 q 163 32 228 -10 q 61 148 97 74 q 25 319 25 222 q 77 545 25 443 q 220 706 129 647 q 419 765 311 765 q 554 734 497 765 q 643 643 611 703 l 665 756 l 946 756 l 853 290 q 849 263 849 274 q 858 237 849 244 q 889 229 868 229 q 949 242 919 229 l 900 -1 q 817 -12 851 -12 q 679 24 733 -12 q 597 135 625 60 l 592 151 q 463 32 536 74 q 311 -10 390 -10 m 424 200 q 506 227 468 200 q 567 300 544 254 q 589 400 589 346 q 557 499 589 461 q 471 536 525 536 q 390 509 426 536 q 331 437 353 482 q 308 338 308 392 q 340 237 308 274 q 424 200 371 200 m 494 1043 q 511 998 492 1015 q 565 981 531 981 q 627 998 600 981 q 663 1043 654 1015 l 824 1043 q 722 891 800 947 q 538 835 644 835 q 386 881 442 835 q 331 1008 331 928 q 333 1043 331 1018 l 494 1043 m 643 1289 l 825 1182 l 593 1058 l 436 1099 l 643 1289 z "},"ặ":{"ha":1000,"x_min":25,"x_max":949,"o":"m 311 -10 q 163 32 228 -10 q 61 148 97 74 q 25 319 25 222 q 77 545 25 443 q 220 706 129 647 q 419 765 311 765 q 554 734 497 765 q 643 643 611 703 l 665 756 l 946 756 l 853 290 q 849 263 849 274 q 858 237 849 244 q 889 229 868 229 q 949 242 919 229 l 900 -1 q 817 -12 851 -12 q 679 24 733 -12 q 597 135 625 60 l 592 151 q 463 32 536 74 q 311 -10 390 -10 m 424 200 q 506 227 468 200 q 567 300 544 254 q 589 400 589 346 q 557 499 589 461 q 471 536 525 536 q 390 509 426 536 q 331 437 353 482 q 308 338 308 392 q 340 237 308 274 q 424 200 371 200 m 385 -92 q 472 -124 439 -92 q 504 -210 504 -157 q 453 -331 504 -282 q 328 -381 401 -381 q 241 -348 274 -381 q 208 -262 208 -315 q 260 -141 208 -190 q 385 -92 311 -92 m 501 1063 q 513 1008 497 1029 q 558 988 529 988 q 613 1008 589 988 q 646 1063 636 1029 l 817 1063 q 713 894 790 957 q 528 831 635 831 q 381 881 435 831 q 326 1017 326 931 q 331 1063 326 1040 l 501 1063 z "},"ằ":{"ha":1000,"x_min":25,"x_max":949,"o":"m 311 -10 q 163 32 228 -10 q 61 148 97 74 q 25 319 25 222 q 77 545 25 443 q 220 706 129 647 q 419 765 311 765 q 554 734 497 765 q 643 643 611 703 l 665 756 l 946 756 l 853 290 q 849 263 849 274 q 858 237 849 244 q 889 229 868 229 q 949 242 919 229 l 900 -1 q 817 -12 851 -12 q 679 24 733 -12 q 597 135 625 60 l 592 151 q 463 32 536 74 q 311 -10 390 -10 m 424 200 q 506 227 468 200 q 567 300 544 254 q 589 400 589 346 q 557 499 589 461 q 471 536 525 536 q 390 509 426 536 q 331 437 353 482 q 308 338 308 392 q 340 237 308 274 q 424 200 371 200 m 494 1043 q 511 998 492 1015 q 565 981 531 981 q 627 998 600 981 q 663 1043 654 1015 l 824 1043 q 722 891 800 947 q 538 835 644 835 q 386 881 442 835 q 331 1008 331 928 q 333 1043 331 1018 l 494 1043 m 515 1289 l 722 1099 l 565 1058 l 335 1182 l 515 1289 z "},"ẳ":{"ha":1000,"x_min":25,"x_max":949,"o":"m 311 -10 q 163 32 228 -10 q 61 148 97 74 q 25 319 25 222 q 77 545 25 443 q 220 706 129 647 q 419 765 311 765 q 554 734 497 765 q 643 643 611 703 l 665 756 l 946 756 l 853 290 q 849 263 849 274 q 858 237 849 244 q 889 229 868 229 q 949 242 919 229 l 900 -1 q 817 -12 851 -12 q 679 24 733 -12 q 597 135 625 60 l 592 151 q 463 32 536 74 q 311 -10 390 -10 m 424 200 q 506 227 468 200 q 567 300 544 254 q 589 400 589 346 q 557 499 589 461 q 471 536 525 536 q 390 509 426 536 q 331 437 353 482 q 308 338 308 392 q 340 237 308 274 q 424 200 371 200 m 493 1043 q 510 998 490 1015 q 564 981 529 981 q 626 998 599 981 q 661 1043 653 1015 l 822 1043 q 721 891 799 947 q 536 835 643 835 q 385 881 440 835 q 329 1008 329 928 q 332 1043 329 1018 l 493 1043 m 625 1304 q 715 1279 686 1304 q 743 1217 743 1254 q 711 1135 743 1174 q 607 1057 679 1097 l 507 1097 q 556 1130 539 1115 q 572 1160 572 1144 q 547 1179 572 1179 q 500 1164 521 1179 l 454 1256 q 625 1304 546 1304 z "},"ẵ":{"ha":1000,"x_min":25,"x_max":949,"o":"m 311 -10 q 163 32 228 -10 q 61 148 97 74 q 25 319 25 222 q 77 545 25 443 q 220 706 129 647 q 419 765 311 765 q 554 734 497 765 q 643 643 611 703 l 665 756 l 946 756 l 853 290 q 849 263 849 274 q 858 237 849 244 q 889 229 868 229 q 949 242 919 229 l 900 -1 q 817 -12 851 -12 q 679 24 733 -12 q 597 135 625 60 l 592 151 q 463 32 536 74 q 311 -10 390 -10 m 424 200 q 506 227 468 200 q 567 300 544 254 q 589 400 589 346 q 557 499 589 461 q 471 536 525 536 q 390 509 426 536 q 331 437 353 482 q 308 338 308 392 q 340 237 308 274 q 424 200 371 200 m 493 1043 q 510 998 490 1015 q 564 981 529 981 q 626 998 599 981 q 661 1043 653 1015 l 822 1043 q 721 891 799 947 q 536 835 643 835 q 385 881 440 835 q 329 1008 329 928 q 332 1043 329 1018 l 493 1043 m 867 1293 q 806 1147 847 1194 q 689 1099 764 1099 q 624 1108 653 1099 q 557 1133 594 1117 q 522 1148 539 1142 q 493 1154 506 1154 q 458 1142 469 1154 q 442 1101 447 1129 l 313 1101 q 374 1249 332 1200 q 490 1297 417 1297 q 559 1288 528 1297 q 626 1261 590 1278 q 686 1242 668 1242 q 721 1255 708 1242 q 739 1293 733 1268 l 867 1293 z "},"â":{"ha":1000,"x_min":25,"x_max":949,"o":"m 311 -10 q 163 32 228 -10 q 61 148 97 74 q 25 319 25 222 q 77 545 25 443 q 220 706 129 647 q 419 765 311 765 q 554 734 497 765 q 643 643 611 703 l 665 756 l 946 756 l 853 290 q 849 263 849 274 q 858 237 849 244 q 889 229 868 229 q 949 242 919 229 l 900 -1 q 817 -12 851 -12 q 679 24 733 -12 q 597 135 625 60 l 592 151 q 463 32 536 74 q 311 -10 390 -10 m 424 200 q 506 227 468 200 q 567 300 544 254 q 589 400 589 346 q 557 499 589 461 q 471 536 525 536 q 390 509 426 536 q 331 437 353 482 q 308 338 308 392 q 340 237 308 274 q 424 200 371 200 m 813 846 l 626 846 l 558 942 l 453 846 l 267 846 l 461 1064 l 701 1064 l 813 846 z "},"ấ":{"ha":1000,"x_min":25,"x_max":949,"o":"m 311 -10 q 163 32 228 -10 q 61 148 97 74 q 25 319 25 222 q 77 545 25 443 q 220 706 129 647 q 419 765 311 765 q 554 734 497 765 q 643 643 611 703 l 665 756 l 946 756 l 853 290 q 849 263 849 274 q 858 237 849 244 q 889 229 868 229 q 949 242 919 229 l 900 -1 q 817 -12 851 -12 q 679 24 733 -12 q 597 135 625 60 l 592 151 q 463 32 536 74 q 311 -10 390 -10 m 424 200 q 506 227 468 200 q 567 300 544 254 q 589 400 589 346 q 557 499 589 461 q 471 536 525 536 q 390 509 426 536 q 331 437 353 482 q 308 338 308 392 q 340 237 308 274 q 424 200 371 200 m 840 835 l 628 835 l 557 926 l 450 835 l 239 835 l 438 1015 l 703 1015 l 840 835 m 644 1292 l 826 1185 l 594 1061 l 438 1101 l 644 1292 z "},"ậ":{"ha":1000,"x_min":25,"x_max":949,"o":"m 311 -10 q 163 32 228 -10 q 61 148 97 74 q 25 319 25 222 q 77 545 25 443 q 220 706 129 647 q 419 765 311 765 q 554 734 497 765 q 643 643 611 703 l 665 756 l 946 756 l 853 290 q 849 263 849 274 q 858 237 849 244 q 889 229 868 229 q 949 242 919 229 l 900 -1 q 817 -12 851 -12 q 679 24 733 -12 q 597 135 625 60 l 592 151 q 463 32 536 74 q 311 -10 390 -10 m 424 200 q 506 227 468 200 q 567 300 544 254 q 589 400 589 346 q 557 499 589 461 q 471 536 525 536 q 390 509 426 536 q 331 437 353 482 q 308 338 308 392 q 340 237 308 274 q 424 200 371 200 m 385 -92 q 472 -124 439 -92 q 504 -210 504 -157 q 453 -331 504 -282 q 328 -381 401 -381 q 241 -348 274 -381 q 208 -262 208 -315 q 260 -141 208 -190 q 385 -92 311 -92 m 804 846 l 618 846 l 550 942 l 444 846 l 258 846 l 453 1064 l 693 1064 l 804 846 z "},"ầ":{"ha":1000,"x_min":25,"x_max":949,"o":"m 311 -10 q 163 32 228 -10 q 61 148 97 74 q 25 319 25 222 q 77 545 25 443 q 220 706 129 647 q 419 765 311 765 q 554 734 497 765 q 643 643 611 703 l 665 756 l 946 756 l 853 290 q 849 263 849 274 q 858 237 849 244 q 889 229 868 229 q 949 242 919 229 l 900 -1 q 817 -12 851 -12 q 679 24 733 -12 q 597 135 625 60 l 592 151 q 463 32 536 74 q 311 -10 390 -10 m 424 200 q 506 227 468 200 q 567 300 544 254 q 589 400 589 346 q 557 499 589 461 q 471 536 525 536 q 390 509 426 536 q 331 437 353 482 q 308 338 308 392 q 340 237 308 274 q 424 200 371 200 m 840 835 l 628 835 l 557 926 l 450 835 l 239 835 l 438 1015 l 703 1015 l 840 835 m 517 1292 l 724 1101 l 567 1061 l 336 1185 l 517 1292 z "},"ẩ":{"ha":1000,"x_min":25,"x_max":949,"o":"m 311 -10 q 163 32 228 -10 q 61 148 97 74 q 25 319 25 222 q 77 545 25 443 q 220 706 129 647 q 419 765 311 765 q 554 734 497 765 q 643 643 611 703 l 665 756 l 946 756 l 853 290 q 849 263 849 274 q 858 237 849 244 q 889 229 868 229 q 949 242 919 229 l 900 -1 q 817 -12 851 -12 q 679 24 733 -12 q 597 135 625 60 l 592 151 q 463 32 536 74 q 311 -10 390 -10 m 424 200 q 506 227 468 200 q 567 300 544 254 q 589 400 589 346 q 557 499 589 461 q 471 536 525 536 q 390 509 426 536 q 331 437 353 482 q 308 338 308 392 q 340 237 308 274 q 424 200 371 200 m 838 835 l 625 835 l 554 926 l 447 835 l 236 835 l 435 1015 l 700 1015 l 838 835 m 625 1307 q 715 1282 686 1307 q 743 1219 743 1257 q 711 1138 743 1176 q 607 1060 679 1100 l 507 1100 q 556 1133 539 1118 q 572 1163 572 1147 q 547 1182 572 1182 q 500 1167 521 1182 l 454 1258 q 625 1307 546 1307 z "},"ẫ":{"ha":1000,"x_min":25,"x_max":949,"o":"m 311 -10 q 163 32 228 -10 q 61 148 97 74 q 25 319 25 222 q 77 545 25 443 q 220 706 129 647 q 419 765 311 765 q 554 734 497 765 q 643 643 611 703 l 665 756 l 946 756 l 853 290 q 849 263 849 274 q 858 237 849 244 q 889 229 868 229 q 949 242 919 229 l 900 -1 q 817 -12 851 -12 q 679 24 733 -12 q 597 135 625 60 l 592 151 q 463 32 536 74 q 311 -10 390 -10 m 424 200 q 506 227 468 200 q 567 300 544 254 q 589 400 589 346 q 557 499 589 461 q 471 536 525 536 q 390 509 426 536 q 331 437 353 482 q 308 338 308 392 q 340 237 308 274 q 424 200 371 200 m 839 835 l 626 835 l 556 926 l 449 835 l 238 835 l 436 1015 l 701 1015 l 839 835 m 874 1257 q 813 1110 854 1158 q 696 1063 771 1063 q 631 1072 660 1063 q 564 1097 601 1081 q 529 1112 546 1106 q 500 1118 513 1118 q 465 1106 476 1118 q 449 1065 454 1093 l 319 1065 q 381 1213 339 1164 q 497 1261 424 1261 q 566 1251 535 1261 q 633 1225 597 1242 q 693 1206 675 1206 q 728 1219 715 1206 q 746 1257 740 1232 l 874 1257 z "},"ȁ":{"ha":1000,"x_min":25,"x_max":949,"o":"m 311 -10 q 163 32 228 -10 q 61 148 97 74 q 25 319 25 222 q 77 545 25 443 q 220 706 129 647 q 419 765 311 765 q 554 734 497 765 q 643 643 611 703 l 665 756 l 946 756 l 853 290 q 849 263 849 274 q 858 237 849 244 q 889 229 868 229 q 949 242 919 229 l 900 -1 q 817 -12 851 -12 q 679 24 733 -12 q 597 135 625 60 l 592 151 q 463 32 536 74 q 311 -10 390 -10 m 424 200 q 506 227 468 200 q 567 300 544 254 q 589 400 589 346 q 557 499 589 461 q 471 536 525 536 q 390 509 426 536 q 331 437 353 482 q 308 338 308 392 q 340 237 308 274 q 424 200 371 200 m 450 1078 l 517 840 l 319 826 l 229 1007 l 450 1078 m 740 1078 l 807 840 l 610 826 l 521 1007 l 740 1078 z "},"ä":{"ha":1000,"x_min":25,"x_max":949,"o":"m 311 -10 q 163 32 228 -10 q 61 148 97 74 q 25 319 25 222 q 77 545 25 443 q 220 706 129 647 q 419 765 311 765 q 554 734 497 765 q 643 643 611 703 l 665 756 l 946 756 l 853 290 q 849 263 849 274 q 858 237 849 244 q 889 229 868 229 q 949 242 919 229 l 900 -1 q 817 -12 851 -12 q 679 24 733 -12 q 597 135 625 60 l 592 151 q 463 32 536 74 q 311 -10 390 -10 m 424 200 q 506 227 468 200 q 567 300 544 254 q 589 400 589 346 q 557 499 589 461 q 471 536 525 536 q 390 509 426 536 q 331 437 353 482 q 308 338 308 392 q 340 237 308 274 q 424 200 371 200 m 447 1075 q 516 1049 490 1075 q 542 979 542 1022 q 501 884 542 924 q 403 844 460 844 q 333 871 360 844 q 307 939 307 897 q 348 1035 307 996 q 447 1075 389 1075 m 721 1075 q 789 1049 764 1075 q 814 979 814 1022 q 774 884 814 924 q 676 844 733 844 q 607 871 633 844 q 581 939 581 897 q 622 1035 581 996 q 721 1075 663 1075 z "},"ạ":{"ha":1000,"x_min":25,"x_max":949,"o":"m 311 -10 q 163 32 228 -10 q 61 148 97 74 q 25 319 25 222 q 77 545 25 443 q 220 706 129 647 q 419 765 311 765 q 554 734 497 765 q 643 643 611 703 l 665 756 l 946 756 l 853 290 q 849 263 849 274 q 858 237 849 244 q 889 229 868 229 q 949 242 919 229 l 900 -1 q 817 -12 851 -12 q 679 24 733 -12 q 597 135 625 60 l 592 151 q 463 32 536 74 q 311 -10 390 -10 m 424 200 q 506 227 468 200 q 567 300 544 254 q 589 400 589 346 q 557 499 589 461 q 471 536 525 536 q 390 509 426 536 q 331 437 353 482 q 308 338 308 392 q 340 237 308 274 q 424 200 371 200 m 385 -92 q 472 -124 439 -92 q 504 -210 504 -157 q 453 -331 504 -282 q 328 -381 401 -381 q 241 -348 274 -381 q 208 -262 208 -315 q 260 -141 208 -190 q 385 -92 311 -92 z "},"à":{"ha":1000,"x_min":25,"x_max":949,"o":"m 311 -10 q 163 32 228 -10 q 61 148 97 74 q 25 319 25 222 q 77 545 25 443 q 220 706 129 647 q 419 765 311 765 q 554 734 497 765 q 643 643 611 703 l 665 756 l 946 756 l 853 290 q 849 263 849 274 q 858 237 849 244 q 889 229 868 229 q 949 242 919 229 l 900 -1 q 817 -12 851 -12 q 679 24 733 -12 q 597 135 625 60 l 592 151 q 463 32 536 74 q 311 -10 390 -10 m 424 200 q 506 227 468 200 q 567 300 544 254 q 589 400 589 346 q 557 499 589 461 q 471 536 525 536 q 390 509 426 536 q 331 437 353 482 q 308 338 308 392 q 340 237 308 274 q 424 200 371 200 m 547 1076 l 697 840 l 513 826 l 326 996 l 547 1076 z "},"ả":{"ha":1000,"x_min":25,"x_max":949,"o":"m 311 -10 q 163 32 228 -10 q 61 148 97 74 q 25 319 25 222 q 77 545 25 443 q 220 706 129 647 q 419 765 311 765 q 554 734 497 765 q 643 643 611 703 l 665 756 l 946 756 l 853 290 q 849 263 849 274 q 858 237 849 244 q 889 229 868 229 q 949 242 919 229 l 900 -1 q 817 -12 851 -12 q 679 24 733 -12 q 597 135 625 60 l 592 151 q 463 32 536 74 q 311 -10 390 -10 m 424 200 q 506 227 468 200 q 567 300 544 254 q 589 400 589 346 q 557 499 589 461 q 471 536 525 536 q 390 509 426 536 q 331 437 353 482 q 308 338 308 392 q 340 237 308 274 q 424 200 371 200 m 613 1147 q 715 1117 679 1147 q 750 1035 750 1086 q 583 813 750 924 l 474 861 q 536 920 514 890 q 558 972 558 950 q 550 994 558 986 q 526 1003 542 1003 q 469 982 499 1003 l 419 1090 q 613 1147 521 1147 z "},"ȃ":{"ha":1000,"x_min":25,"x_max":949,"o":"m 311 -10 q 163 32 228 -10 q 61 148 97 74 q 25 319 25 222 q 77 545 25 443 q 220 706 129 647 q 419 765 311 765 q 554 734 497 765 q 643 643 611 703 l 665 756 l 946 756 l 853 290 q 849 263 849 274 q 858 237 849 244 q 889 229 868 229 q 949 242 919 229 l 900 -1 q 817 -12 851 -12 q 679 24 733 -12 q 597 135 625 60 l 592 151 q 463 32 536 74 q 311 -10 390 -10 m 424 200 q 506 227 468 200 q 567 300 544 254 q 589 400 589 346 q 557 499 589 461 q 471 536 525 536 q 390 509 426 536 q 331 437 353 482 q 308 338 308 392 q 340 237 308 274 q 424 200 371 200 m 608 829 q 597 883 613 863 q 551 904 581 904 q 497 883 521 904 q 464 829 474 863 l 293 829 q 397 998 319 935 q 582 1061 475 1061 q 729 1011 675 1061 q 783 875 783 961 q 779 829 783 853 l 608 829 z "},"ā":{"ha":1000,"x_min":25,"x_max":949,"o":"m 311 -10 q 163 32 228 -10 q 61 148 97 74 q 25 319 25 222 q 77 545 25 443 q 220 706 129 647 q 419 765 311 765 q 554 734 497 765 q 643 643 611 703 l 665 756 l 946 756 l 853 290 q 849 263 849 274 q 858 237 849 244 q 889 229 868 229 q 949 242 919 229 l 900 -1 q 817 -12 851 -12 q 679 24 733 -12 q 597 135 625 60 l 592 151 q 463 32 536 74 q 311 -10 390 -10 m 424 200 q 506 227 468 200 q 567 300 544 254 q 589 400 589 346 q 557 499 589 461 q 471 536 525 536 q 390 509 426 536 q 331 437 353 482 q 308 338 308 392 q 340 237 308 274 q 424 200 371 200 m 361 1044 l 797 1044 l 767 885 l 329 885 l 361 1044 z "},"ą":{"ha":1000,"x_min":25,"x_max":949,"o":"m 844 -32 q 788 -75 808 -54 q 768 -121 768 -96 q 792 -146 768 -146 q 831 -136 807 -146 l 846 -274 q 697 -306 761 -306 q 598 -272 632 -306 q 564 -186 564 -239 q 696 14 564 -83 q 597 135 631 49 l 592 151 q 463 32 536 74 q 311 -10 390 -10 q 163 32 228 -10 q 61 148 97 74 q 25 319 25 222 q 77 545 25 443 q 220 706 129 647 q 419 765 311 765 q 554 734 497 765 q 643 643 611 703 l 665 756 l 946 756 l 853 290 q 849 263 849 274 q 858 237 849 244 q 889 229 868 229 q 949 242 919 229 l 900 -1 q 844 -32 885 -8 m 424 200 q 506 227 468 200 q 567 300 544 254 q 589 400 589 346 q 557 499 589 461 q 471 536 525 536 q 390 509 426 536 q 331 437 353 482 q 308 338 308 392 q 340 237 308 274 q 424 200 371 200 z "},"å":{"ha":1000,"x_min":25,"x_max":949,"o":"m 311 -10 q 163 32 228 -10 q 61 148 97 74 q 25 319 25 222 q 77 545 25 443 q 220 706 129 647 q 419 765 311 765 q 554 734 497 765 q 643 643 611 703 l 665 756 l 946 756 l 853 290 q 849 263 849 274 q 858 237 849 244 q 889 229 868 229 q 949 242 919 229 l 900 -1 q 817 -12 851 -12 q 679 24 733 -12 q 597 135 625 60 l 592 151 q 463 32 536 74 q 311 -10 390 -10 m 424 200 q 506 227 468 200 q 567 300 544 254 q 589 400 589 346 q 557 499 589 461 q 471 536 525 536 q 390 509 426 536 q 331 437 353 482 q 308 338 308 392 q 340 237 308 274 q 424 200 371 200 m 583 1140 q 691 1097 649 1140 q 733 992 733 1054 q 707 899 733 942 q 637 830 681 856 q 543 804 593 804 q 435 847 478 804 q 393 951 393 889 q 419 1045 393 1001 q 490 1115 446 1089 q 583 1140 535 1140 m 571 1029 q 525 1010 544 1029 q 506 963 506 990 q 519 928 506 942 q 556 914 533 914 q 601 933 582 914 q 621 979 621 953 q 607 1015 621 1000 q 571 1029 593 1029 z "},"ǻ":{"ha":1000,"x_min":25,"x_max":949,"o":"m 311 -10 q 163 32 228 -10 q 61 148 97 74 q 25 319 25 222 q 77 545 25 443 q 220 706 129 647 q 419 765 311 765 q 554 734 497 765 q 643 643 611 703 l 665 756 l 946 756 l 853 290 q 849 263 849 274 q 858 237 849 244 q 889 229 868 229 q 949 242 919 229 l 900 -1 q 817 -12 851 -12 q 679 24 733 -12 q 597 135 625 60 l 592 151 q 463 32 536 74 q 311 -10 390 -10 m 424 200 q 506 227 468 200 q 567 300 544 254 q 589 400 589 346 q 557 499 589 461 q 471 536 525 536 q 390 509 426 536 q 331 437 353 482 q 308 338 308 392 q 340 237 308 274 q 424 200 371 200 m 581 1140 q 688 1097 646 1140 q 731 992 731 1054 q 704 899 731 942 q 634 830 678 856 q 540 804 590 804 q 433 847 475 804 q 390 951 390 889 q 417 1045 390 1001 q 488 1115 443 1089 q 581 1140 532 1140 m 568 1029 q 522 1010 542 1029 q 503 963 503 990 q 517 928 503 942 q 553 914 531 914 q 599 933 579 914 q 618 979 618 953 q 604 1015 618 1000 q 568 1029 590 1029 m 663 1401 l 844 1294 l 613 1171 l 456 1211 l 663 1401 z "},"ã":{"ha":1000,"x_min":25,"x_max":949,"o":"m 311 -10 q 163 32 228 -10 q 61 148 97 74 q 25 319 25 222 q 77 545 25 443 q 220 706 129 647 q 419 765 311 765 q 554 734 497 765 q 643 643 611 703 l 665 756 l 946 756 l 853 290 q 849 263 849 274 q 858 237 849 244 q 889 229 868 229 q 949 242 919 229 l 900 -1 q 817 -12 851 -12 q 679 24 733 -12 q 597 135 625 60 l 592 151 q 463 32 536 74 q 311 -10 390 -10 m 424 200 q 506 227 468 200 q 567 300 544 254 q 589 400 589 346 q 557 499 589 461 q 471 536 525 536 q 390 509 426 536 q 331 437 353 482 q 308 338 308 392 q 340 237 308 274 q 424 200 371 200 m 849 1060 q 781 885 825 942 q 663 828 736 828 q 600 838 628 828 q 542 867 572 849 q 489 888 506 888 q 438 832 450 888 l 288 832 q 356 1006 310 949 q 475 1064 401 1064 q 535 1054 508 1064 q 594 1026 561 1044 q 624 1012 610 1018 q 647 1006 638 1006 q 680 1019 668 1006 q 699 1060 692 1032 l 849 1060 z "},"æ":{"ha":1321,"x_min":3,"x_max":1290,"o":"m 942 765 q 1197 673 1104 765 q 1290 422 1290 581 q 1289 383 1290 396 l 792 281 q 837 219 807 242 q 910 197 867 197 q 1004 221 956 197 q 1097 288 1053 244 l 1247 140 q 1086 28 1178 67 q 890 -10 994 -10 q 708 29 786 -10 q 586 139 629 68 q 455 24 535 63 q 272 -14 375 -14 q 75 47 147 -14 q 3 210 3 107 q 83 389 3 326 q 313 454 163 451 l 504 454 l 506 474 q 388 557 506 557 q 275 542 338 557 q 150 501 213 526 l 89 690 q 457 767 282 767 q 700 694 619 767 q 942 765 801 765 m 1031 482 q 1001 551 1026 528 q 933 575 975 575 q 836 533 876 575 q 783 424 796 490 l 1031 482 m 493 317 l 365 317 q 297 296 322 317 q 267 236 271 275 q 283 188 264 204 q 342 171 303 171 q 425 193 386 171 q 485 250 464 215 l 493 317 z "},"ǽ":{"ha":1321,"x_min":3,"x_max":1290,"o":"m 942 765 q 1197 673 1104 765 q 1290 422 1290 581 q 1289 383 1290 396 l 792 281 q 837 219 807 242 q 910 197 867 197 q 1004 221 956 197 q 1097 288 1053 244 l 1247 140 q 1086 28 1178 67 q 890 -10 994 -10 q 708 29 786 -10 q 586 139 629 68 q 455 24 535 63 q 272 -14 375 -14 q 75 47 147 -14 q 3 210 3 107 q 83 389 3 326 q 313 454 163 451 l 504 454 l 506 474 q 388 557 506 557 q 275 542 338 557 q 150 501 213 526 l 89 690 q 457 767 282 767 q 700 694 619 767 q 942 765 801 765 m 1031 482 q 1001 551 1026 528 q 933 575 975 575 q 836 533 876 575 q 783 424 796 490 l 1031 482 m 493 317 l 365 317 q 297 296 322 317 q 267 236 271 275 q 283 188 264 204 q 342 171 303 171 q 425 193 386 171 q 485 250 464 215 l 493 317 m 764 1076 l 985 996 l 771 826 l 588 840 l 764 1076 z "},"b":{"ha":964,"x_min":18,"x_max":938,"o":"m 651 765 q 800 724 735 765 q 901 607 865 682 q 938 435 938 532 q 885 209 938 311 q 743 48 833 107 q 544 -11 653 -11 q 410 20 467 -11 q 321 113 353 51 l 299 0 l 18 0 l 222 1031 l 503 1031 l 432 672 q 535 741 479 717 q 651 765 590 765 m 539 554 q 457 527 494 554 q 397 454 419 500 q 375 356 375 408 q 407 256 375 293 q 493 219 439 219 q 574 246 536 219 q 633 318 611 272 q 656 417 656 364 q 624 517 656 481 q 539 554 593 554 z "},"c":{"ha":803,"x_min":28,"x_max":793,"o":"m 385 -10 q 196 33 276 -10 q 72 153 115 75 q 28 335 28 231 q 83 559 28 461 q 238 711 139 657 q 465 765 338 765 q 669 714 583 765 q 793 568 754 663 l 568 463 q 524 518 553 499 q 454 538 494 538 q 353 486 393 538 q 313 354 313 435 q 342 251 313 289 q 422 213 371 213 q 550 296 507 213 l 757 186 q 608 42 706 93 q 385 -10 510 -10 z "},"ć":{"ha":803,"x_min":28,"x_max":793,"o":"m 385 -10 q 196 33 276 -10 q 72 153 115 75 q 28 335 28 231 q 83 559 28 461 q 238 711 139 657 q 465 765 338 765 q 669 714 583 765 q 793 568 754 663 l 568 463 q 524 518 553 499 q 454 538 494 538 q 353 486 393 538 q 313 354 313 435 q 342 251 313 289 q 422 213 371 213 q 550 296 507 213 l 757 186 q 608 42 706 93 q 385 -10 510 -10 m 531 1076 l 751 996 l 538 826 l 354 840 l 531 1076 z "},"č":{"ha":803,"x_min":28,"x_max":810,"o":"m 385 -10 q 196 33 276 -10 q 72 153 115 75 q 28 335 28 231 q 83 559 28 461 q 238 711 139 657 q 465 765 338 765 q 669 714 583 765 q 793 568 754 663 l 568 463 q 524 518 553 499 q 454 538 494 538 q 353 486 393 538 q 313 354 313 435 q 342 251 313 289 q 422 213 371 213 q 550 296 507 213 l 757 186 q 608 42 706 93 q 385 -10 510 -10 m 624 1063 l 810 1063 l 615 844 l 375 844 l 264 1063 l 450 1063 l 518 967 l 624 1063 z "},"ç":{"ha":803,"x_min":28,"x_max":793,"o":"m 422 213 q 550 296 507 213 l 757 186 q 624 51 710 101 q 429 -8 539 0 l 390 -74 q 464 -113 440 -86 q 488 -175 488 -140 q 425 -292 488 -253 q 272 -332 363 -332 q 117 -303 190 -332 l 181 -179 q 249 -193 213 -193 q 295 -183 276 -193 q 314 -158 314 -172 q 293 -135 314 -143 q 242 -126 272 -126 l 211 -126 l 276 3 q 94 119 160 31 q 28 335 28 207 q 83 559 28 461 q 238 711 139 657 q 465 765 338 765 q 669 714 583 765 q 793 568 754 663 l 568 463 q 524 518 553 499 q 454 538 494 538 q 353 486 393 538 q 313 354 313 435 q 342 251 313 289 q 422 213 371 213 z "},"ḉ":{"ha":803,"x_min":28,"x_max":793,"o":"m 761 996 l 547 826 l 364 840 l 540 1076 l 761 996 m 422 213 q 550 296 507 213 l 757 186 q 624 51 710 101 q 429 -8 539 0 l 390 -74 q 464 -113 440 -86 q 488 -175 488 -140 q 425 -292 488 -253 q 272 -332 363 -332 q 117 -303 190 -332 l 181 -179 q 249 -193 213 -193 q 295 -183 276 -193 q 314 -158 314 -172 q 293 -135 314 -143 q 242 -126 272 -126 l 211 -126 l 276 3 q 94 119 160 31 q 28 335 28 207 q 83 559 28 461 q 238 711 139 657 q 465 765 338 765 q 669 714 583 765 q 793 568 754 663 l 568 463 q 524 518 553 499 q 454 538 494 538 q 353 486 393 538 q 313 354 313 435 q 342 251 313 289 q 422 213 371 213 z "},"ĉ":{"ha":803,"x_min":28,"x_max":793,"o":"m 385 -10 q 196 33 276 -10 q 72 153 115 75 q 28 335 28 231 q 83 559 28 461 q 238 711 139 657 q 465 765 338 765 q 669 714 583 765 q 793 568 754 663 l 568 463 q 524 518 553 499 q 454 538 494 538 q 353 486 393 538 q 313 354 313 435 q 342 251 313 289 q 422 213 371 213 q 550 296 507 213 l 757 186 q 608 42 706 93 q 385 -10 510 -10 m 768 846 l 582 846 l 514 942 l 408 846 l 222 846 l 417 1064 l 657 1064 l 768 846 z "},"ċ":{"ha":803,"x_min":28,"x_max":793,"o":"m 385 -10 q 196 33 276 -10 q 72 153 115 75 q 28 335 28 231 q 83 559 28 461 q 238 711 139 657 q 465 765 338 765 q 669 714 583 765 q 793 568 754 663 l 568 463 q 524 518 553 499 q 454 538 494 538 q 353 486 393 538 q 313 354 313 435 q 342 251 313 289 q 422 213 371 213 q 550 296 507 213 l 757 186 q 608 42 706 93 q 385 -10 510 -10 m 547 1115 q 634 1083 601 1115 q 667 997 667 1050 q 615 876 667 925 q 490 826 564 826 q 403 859 436 826 q 371 944 371 892 q 422 1066 371 1017 q 547 1115 474 1115 z "},"d":{"ha":990,"x_min":25,"x_max":1000,"o":"m 853 289 q 850 261 850 267 q 858 235 850 243 q 888 228 867 228 q 949 240 911 228 l 900 -3 q 817 -14 853 -14 q 683 19 738 -14 q 604 114 628 53 l 596 138 q 460 28 536 67 q 311 -11 385 -11 q 164 31 229 -11 q 62 147 99 72 q 25 319 25 222 q 77 545 25 443 q 220 706 129 647 q 419 765 311 765 q 554 734 497 765 q 643 643 611 703 l 719 1031 l 1000 1031 l 853 289 m 589 400 q 557 499 589 461 q 471 536 525 536 q 390 509 426 536 q 331 437 353 482 q 308 338 308 392 q 340 237 308 274 q 424 200 371 200 q 506 227 468 200 q 567 300 544 254 q 589 400 589 346 z "},"ð":{"ha":853,"x_min":11,"x_max":851,"o":"m 671 860 q 790 674 749 775 q 832 461 832 572 q 774 217 832 324 q 613 50 717 110 q 372 -10 508 -10 q 180 27 261 -10 q 55 131 99 64 q 11 288 11 197 q 53 461 11 385 q 170 581 94 538 q 344 624 246 624 q 474 603 411 624 q 569 551 536 582 q 447 767 549 658 l 201 665 l 161 761 l 361 844 q 206 940 289 900 l 403 1043 q 585 939 500 1003 l 813 1033 l 851 935 l 671 860 m 379 219 q 481 258 442 219 q 519 347 519 296 q 493 412 519 388 q 417 436 467 436 q 318 398 357 436 q 279 306 279 360 q 306 243 279 267 q 379 219 333 219 z "},"ď":{"ha":1119,"x_min":25,"x_max":1290,"o":"m 853 289 q 850 261 850 267 q 858 235 850 243 q 888 228 867 228 q 949 240 911 228 l 900 -3 q 817 -14 853 -14 q 683 19 738 -14 q 604 114 628 53 l 596 138 q 460 28 536 67 q 311 -11 385 -11 q 164 31 229 -11 q 62 147 99 72 q 25 319 25 222 q 77 545 25 443 q 220 706 129 647 q 419 765 311 765 q 554 734 497 765 q 643 643 611 703 l 719 1031 l 1000 1031 l 853 289 m 589 400 q 557 499 589 461 q 471 536 525 536 q 390 509 426 536 q 331 437 353 482 q 308 338 308 392 q 340 237 308 274 q 424 200 371 200 q 506 227 468 200 q 567 300 544 254 q 589 400 589 346 m 1085 1031 l 1290 1031 l 1188 718 l 1024 718 l 1085 1031 z "},"đ":{"ha":981,"x_min":25,"x_max":1065,"o":"m 851 282 q 849 258 849 265 q 858 235 849 242 q 888 228 867 228 q 947 240 910 228 l 900 -3 q 819 -14 853 -14 q 685 18 740 -14 q 607 108 631 50 l 599 129 q 463 26 538 63 q 315 -11 388 -11 q 166 28 232 -11 q 63 140 100 68 q 25 303 25 211 q 76 510 25 417 q 216 659 128 604 q 413 714 304 714 q 638 607 569 714 l 674 794 l 449 794 l 475 924 l 699 924 l 719 1031 l 1000 1031 l 979 924 l 1065 924 l 1039 794 l 953 794 l 851 282 m 424 200 q 540 249 492 200 q 588 368 588 299 q 555 452 588 421 q 467 483 522 483 q 354 434 401 483 q 307 317 307 385 q 338 231 307 261 q 424 200 369 200 z "},"ḍ":{"ha":990,"x_min":25,"x_max":1000,"o":"m 853 289 q 850 261 850 267 q 858 235 850 243 q 888 228 867 228 q 949 240 911 228 l 900 -3 q 817 -14 853 -14 q 683 19 738 -14 q 604 114 628 53 l 596 138 q 460 28 536 67 q 311 -11 385 -11 q 164 31 229 -11 q 62 147 99 72 q 25 319 25 222 q 77 545 25 443 q 220 706 129 647 q 419 765 311 765 q 554 734 497 765 q 643 643 611 703 l 719 1031 l 1000 1031 l 853 289 m 589 400 q 557 499 589 461 q 471 536 525 536 q 390 509 426 536 q 331 437 353 482 q 308 338 308 392 q 340 237 308 274 q 424 200 371 200 q 506 227 468 200 q 567 300 544 254 q 589 400 589 346 m 429 -92 q 516 -124 483 -92 q 549 -210 549 -157 q 497 -331 549 -282 q 372 -381 446 -381 q 285 -348 318 -381 q 253 -262 253 -315 q 304 -141 253 -190 q 429 -92 356 -92 z "},"ḏ":{"ha":990,"x_min":25,"x_max":1000,"o":"m 853 289 q 850 261 850 267 q 858 235 850 243 q 888 228 867 228 q 949 240 911 228 l 900 -3 q 817 -14 853 -14 q 683 19 738 -14 q 604 114 628 53 l 596 138 q 460 28 536 67 q 311 -11 385 -11 q 164 31 229 -11 q 62 147 99 72 q 25 319 25 222 q 77 545 25 443 q 220 706 129 647 q 419 765 311 765 q 554 734 497 765 q 643 643 611 703 l 719 1031 l 1000 1031 l 853 289 m 589 400 q 557 499 589 461 q 471 536 525 536 q 390 509 426 536 q 331 437 353 482 q 308 338 308 392 q 340 237 308 274 q 424 200 371 200 q 506 227 468 200 q 567 300 544 254 q 589 400 589 346 m 225 -106 l 628 -106 l 596 -267 l 193 -267 l 225 -106 z "},"ǆ":{"ha":1746,"x_min":25,"x_max":1774,"o":"m 1567 844 l 1326 844 l 1215 1063 l 1401 1063 l 1469 967 l 1575 1063 l 1761 1063 l 1567 844 m 1000 1031 l 794 0 l 514 0 l 531 82 q 311 -10 435 -10 q 163 32 228 -10 q 61 148 97 74 q 25 319 25 222 q 77 545 25 443 q 220 706 129 647 q 419 765 311 765 q 554 734 497 765 q 643 643 611 703 l 719 1031 l 1000 1031 m 1774 754 l 1743 589 l 1585 444 l 1665 444 l 1638 300 l 1428 300 l 1329 210 l 1679 210 l 1636 0 l 931 0 l 961 165 l 1125 315 l 1038 315 l 1065 460 l 1283 460 l 1376 544 l 1054 544 l 1094 756 l 1774 754 m 424 200 q 506 227 468 200 q 567 300 544 254 q 589 400 589 346 q 557 499 589 461 q 471 536 525 536 q 390 509 426 536 q 331 437 353 482 q 308 338 308 392 q 340 237 308 274 q 424 200 371 200 z "},"e":{"ha":842,"x_min":28,"x_max":825,"o":"m 469 765 q 730 677 635 765 q 825 436 825 589 q 824 394 825 408 l 325 288 q 372 221 340 244 q 450 197 404 197 q 542 220 494 197 q 633 285 589 243 l 776 144 q 407 -10 629 -10 q 206 33 292 -10 q 74 154 121 76 q 28 336 28 232 q 83 558 28 461 q 239 710 139 656 q 469 765 339 765 m 556 482 q 526 551 551 526 q 461 575 501 575 q 369 536 407 575 q 318 431 331 497 l 556 482 z "},"é":{"ha":842,"x_min":28,"x_max":825,"o":"m 469 765 q 730 677 635 765 q 825 436 825 589 q 824 394 825 408 l 325 288 q 372 221 340 244 q 450 197 404 197 q 542 220 494 197 q 633 285 589 243 l 776 144 q 407 -10 629 -10 q 206 33 292 -10 q 74 154 121 76 q 28 336 28 232 q 83 558 28 461 q 239 710 139 656 q 469 765 339 765 m 556 482 q 526 551 551 526 q 461 575 501 575 q 369 536 407 575 q 318 431 331 497 l 556 482 m 533 1076 l 754 996 l 540 826 l 357 840 l 533 1076 z "},"ĕ":{"ha":842,"x_min":28,"x_max":825,"o":"m 469 765 q 730 677 635 765 q 825 436 825 589 q 824 394 825 408 l 325 288 q 372 221 340 244 q 450 197 404 197 q 542 220 494 197 q 633 285 589 243 l 776 144 q 407 -10 629 -10 q 206 33 292 -10 q 74 154 121 76 q 28 336 28 232 q 83 558 28 461 q 239 710 139 656 q 469 765 339 765 m 556 482 q 526 551 551 526 q 461 575 501 575 q 369 536 407 575 q 318 431 331 497 l 556 482 m 468 1063 q 480 1008 464 1029 q 525 988 496 988 q 579 1008 556 988 q 613 1063 603 1029 l 783 1063 q 679 894 757 957 q 494 831 601 831 q 347 881 401 831 q 293 1017 293 931 q 297 1063 293 1040 l 468 1063 z "},"ě":{"ha":842,"x_min":28,"x_max":825,"o":"m 469 765 q 730 677 635 765 q 825 436 825 589 q 824 394 825 408 l 325 288 q 372 221 340 244 q 450 197 404 197 q 542 220 494 197 q 633 285 589 243 l 776 144 q 407 -10 629 -10 q 206 33 292 -10 q 74 154 121 76 q 28 336 28 232 q 83 558 28 461 q 239 710 139 656 q 469 765 339 765 m 556 482 q 526 551 551 526 q 461 575 501 575 q 369 536 407 575 q 318 431 331 497 l 556 482 m 626 1063 l 813 1063 l 618 844 l 378 844 l 267 1063 l 453 1063 l 521 967 l 626 1063 z "},"ḝ":{"ha":842,"x_min":28,"x_max":833,"o":"m 544 831 q 397 881 451 831 q 343 1017 343 931 q 347 1063 343 1040 l 518 1063 q 530 1008 514 1029 q 575 988 546 988 q 629 1008 606 988 q 663 1063 653 1029 l 833 1063 q 729 894 807 957 q 544 831 651 831 m 469 765 q 730 677 635 765 q 825 436 825 589 q 824 394 825 408 l 325 288 q 372 221 340 244 q 450 197 404 197 q 542 220 494 197 q 633 285 589 243 l 776 144 q 472 -6 651 14 l 433 -74 q 507 -113 483 -86 q 531 -175 531 -140 q 468 -292 531 -253 q 315 -332 406 -332 q 160 -303 233 -332 l 224 -179 q 292 -193 256 -193 q 338 -183 319 -193 q 357 -158 357 -172 q 336 -135 357 -143 q 285 -126 315 -126 l 254 -126 l 317 -3 q 104 111 181 21 q 28 336 28 201 q 83 558 28 461 q 239 710 139 656 q 469 765 339 765 m 556 482 q 526 551 551 526 q 461 575 501 575 q 369 536 407 575 q 318 431 331 497 l 556 482 z "},"ê":{"ha":842,"x_min":28,"x_max":825,"o":"m 469 765 q 730 677 635 765 q 825 436 825 589 q 824 394 825 408 l 325 288 q 372 221 340 244 q 450 197 404 197 q 542 220 494 197 q 633 285 589 243 l 776 144 q 407 -10 629 -10 q 206 33 292 -10 q 74 154 121 76 q 28 336 28 232 q 83 558 28 461 q 239 710 139 656 q 469 765 339 765 m 556 482 q 526 551 551 526 q 461 575 501 575 q 369 536 407 575 q 318 431 331 497 l 556 482 m 771 846 l 585 846 l 517 942 l 411 846 l 225 846 l 419 1064 l 660 1064 l 771 846 z "},"ế":{"ha":842,"x_min":28,"x_max":825,"o":"m 469 765 q 730 677 635 765 q 825 436 825 589 q 824 394 825 408 l 325 288 q 372 221 340 244 q 450 197 404 197 q 542 220 494 197 q 633 285 589 243 l 776 144 q 407 -10 629 -10 q 206 33 292 -10 q 74 154 121 76 q 28 336 28 232 q 83 558 28 461 q 239 710 139 656 q 469 765 339 765 m 556 482 q 526 551 551 526 q 461 575 501 575 q 369 536 407 575 q 318 431 331 497 l 556 482 m 799 835 l 586 835 l 515 926 l 408 835 l 197 835 l 396 1015 l 661 1015 l 799 835 m 603 1292 l 785 1185 l 553 1061 l 396 1101 l 603 1292 z "},"ệ":{"ha":842,"x_min":28,"x_max":825,"o":"m 469 765 q 730 677 635 765 q 825 436 825 589 q 824 394 825 408 l 325 288 q 372 221 340 244 q 450 197 404 197 q 542 220 494 197 q 633 285 589 243 l 776 144 q 407 -10 629 -10 q 206 33 292 -10 q 74 154 121 76 q 28 336 28 232 q 83 558 28 461 q 239 710 139 656 q 469 765 339 765 m 556 482 q 526 551 551 526 q 461 575 501 575 q 369 536 407 575 q 318 431 331 497 l 556 482 m 378 -92 q 465 -124 432 -92 q 497 -210 497 -157 q 446 -331 497 -282 q 321 -381 394 -381 q 234 -348 267 -381 q 201 -262 201 -315 q 253 -141 201 -190 q 378 -92 304 -92 m 797 846 l 611 846 l 543 942 l 438 846 l 251 846 l 446 1064 l 686 1064 l 797 846 z "},"ề":{"ha":842,"x_min":28,"x_max":825,"o":"m 469 765 q 730 677 635 765 q 825 436 825 589 q 824 394 825 408 l 325 288 q 372 221 340 244 q 450 197 404 197 q 542 220 494 197 q 633 285 589 243 l 776 144 q 407 -10 629 -10 q 206 33 292 -10 q 74 154 121 76 q 28 336 28 232 q 83 558 28 461 q 239 710 139 656 q 469 765 339 765 m 556 482 q 526 551 551 526 q 461 575 501 575 q 369 536 407 575 q 318 431 331 497 l 556 482 m 799 835 l 586 835 l 515 926 l 408 835 l 197 835 l 396 1015 l 661 1015 l 799 835 m 475 1292 l 682 1101 l 525 1061 l 294 1185 l 475 1292 z "},"ể":{"ha":842,"x_min":28,"x_max":825,"o":"m 469 765 q 730 677 635 765 q 825 436 825 589 q 824 394 825 408 l 325 288 q 372 221 340 244 q 450 197 404 197 q 542 220 494 197 q 633 285 589 243 l 776 144 q 407 -10 629 -10 q 206 33 292 -10 q 74 154 121 76 q 28 336 28 232 q 83 558 28 461 q 239 710 139 656 q 469 765 339 765 m 556 482 q 526 551 551 526 q 461 575 501 575 q 369 536 407 575 q 318 431 331 497 l 556 482 m 796 835 l 583 835 l 513 926 l 406 835 l 194 835 l 393 1015 l 658 1015 l 796 835 m 583 1307 q 673 1282 644 1307 q 701 1219 701 1257 q 669 1138 701 1176 q 565 1060 638 1100 l 465 1100 q 514 1133 497 1118 q 531 1163 531 1147 q 506 1182 531 1182 q 458 1167 479 1182 l 413 1258 q 583 1307 504 1307 z "},"ễ":{"ha":842,"x_min":28,"x_max":832,"o":"m 469 765 q 730 677 635 765 q 825 436 825 589 q 824 394 825 408 l 325 288 q 372 221 340 244 q 450 197 404 197 q 542 220 494 197 q 633 285 589 243 l 776 144 q 407 -10 629 -10 q 206 33 292 -10 q 74 154 121 76 q 28 336 28 232 q 83 558 28 461 q 239 710 139 656 q 469 765 339 765 m 556 482 q 526 551 551 526 q 461 575 501 575 q 369 536 407 575 q 318 431 331 497 l 556 482 m 797 835 l 585 835 l 514 926 l 407 835 l 196 835 l 394 1015 l 660 1015 l 797 835 m 832 1257 q 771 1110 813 1158 q 654 1063 729 1063 q 589 1072 618 1063 q 522 1097 560 1081 q 488 1112 504 1106 q 458 1118 471 1118 q 424 1106 435 1118 q 407 1065 413 1093 l 278 1065 q 340 1213 297 1164 q 456 1261 382 1261 q 524 1251 493 1261 q 592 1225 556 1242 q 651 1206 633 1206 q 686 1219 674 1206 q 704 1257 699 1232 l 832 1257 z "},"ȅ":{"ha":842,"x_min":28,"x_max":825,"o":"m 469 765 q 730 677 635 765 q 825 436 825 589 q 824 394 825 408 l 325 288 q 372 221 340 244 q 450 197 404 197 q 542 220 494 197 q 633 285 589 243 l 776 144 q 407 -10 629 -10 q 206 33 292 -10 q 74 154 121 76 q 28 336 28 232 q 83 558 28 461 q 239 710 139 656 q 469 765 339 765 m 556 482 q 526 551 551 526 q 461 575 501 575 q 369 536 407 575 q 318 431 331 497 l 556 482 m 408 1078 l 475 840 l 278 826 l 188 1007 l 408 1078 m 699 1078 l 765 840 l 568 826 l 479 1007 l 699 1078 z "},"ë":{"ha":842,"x_min":28,"x_max":825,"o":"m 469 765 q 730 677 635 765 q 825 436 825 589 q 824 394 825 408 l 325 288 q 372 221 340 244 q 450 197 404 197 q 542 220 494 197 q 633 285 589 243 l 776 144 q 407 -10 629 -10 q 206 33 292 -10 q 74 154 121 76 q 28 336 28 232 q 83 558 28 461 q 239 710 139 656 q 469 765 339 765 m 556 482 q 526 551 551 526 q 461 575 501 575 q 369 536 407 575 q 318 431 331 497 l 556 482 m 406 1075 q 474 1049 449 1075 q 500 979 500 1022 q 459 884 500 924 q 361 844 418 844 q 292 871 318 844 q 265 939 265 897 q 306 1035 265 996 q 406 1075 347 1075 m 679 1075 q 747 1049 722 1075 q 772 979 772 1022 q 732 884 772 924 q 635 844 692 844 q 565 871 592 844 q 539 939 539 897 q 580 1035 539 996 q 679 1075 621 1075 z "},"ė":{"ha":842,"x_min":28,"x_max":825,"o":"m 469 765 q 730 677 635 765 q 825 436 825 589 q 824 394 825 408 l 325 288 q 372 221 340 244 q 450 197 404 197 q 542 220 494 197 q 633 285 589 243 l 776 144 q 407 -10 629 -10 q 206 33 292 -10 q 74 154 121 76 q 28 336 28 232 q 83 558 28 461 q 239 710 139 656 q 469 765 339 765 m 556 482 q 526 551 551 526 q 461 575 501 575 q 369 536 407 575 q 318 431 331 497 l 556 482 m 550 1115 q 637 1083 604 1115 q 669 997 669 1050 q 618 876 669 925 q 493 826 567 826 q 406 859 439 826 q 374 944 374 892 q 425 1066 374 1017 q 550 1115 476 1115 z "},"ẹ":{"ha":842,"x_min":28,"x_max":825,"o":"m 469 765 q 730 677 635 765 q 825 436 825 589 q 824 394 825 408 l 325 288 q 372 221 340 244 q 450 197 404 197 q 542 220 494 197 q 633 285 589 243 l 776 144 q 407 -10 629 -10 q 206 33 292 -10 q 74 154 121 76 q 28 336 28 232 q 83 558 28 461 q 239 710 139 656 q 469 765 339 765 m 556 482 q 526 551 551 526 q 461 575 501 575 q 369 536 407 575 q 318 431 331 497 l 556 482 m 378 -92 q 465 -124 432 -92 q 497 -210 497 -157 q 446 -331 497 -282 q 321 -381 394 -381 q 234 -348 267 -381 q 201 -262 201 -315 q 253 -141 201 -190 q 378 -92 304 -92 z "},"è":{"ha":842,"x_min":28,"x_max":825,"o":"m 469 765 q 730 677 635 765 q 825 436 825 589 q 824 394 825 408 l 325 288 q 372 221 340 244 q 450 197 404 197 q 542 220 494 197 q 633 285 589 243 l 776 144 q 407 -10 629 -10 q 206 33 292 -10 q 74 154 121 76 q 28 336 28 232 q 83 558 28 461 q 239 710 139 656 q 469 765 339 765 m 556 482 q 526 551 551 526 q 461 575 501 575 q 369 536 407 575 q 318 431 331 497 l 556 482 m 506 1076 l 656 840 l 471 826 l 285 996 l 506 1076 z "},"ẻ":{"ha":842,"x_min":28,"x_max":825,"o":"m 469 765 q 730 677 635 765 q 825 436 825 589 q 824 394 825 408 l 325 288 q 372 221 340 244 q 450 197 404 197 q 542 220 494 197 q 633 285 589 243 l 776 144 q 407 -10 629 -10 q 206 33 292 -10 q 74 154 121 76 q 28 336 28 232 q 83 558 28 461 q 239 710 139 656 q 469 765 339 765 m 556 482 q 526 551 551 526 q 461 575 501 575 q 369 536 407 575 q 318 431 331 497 l 556 482 m 571 1147 q 673 1117 638 1147 q 708 1035 708 1086 q 542 813 708 924 l 432 861 q 494 920 472 890 q 517 972 517 950 q 508 994 517 986 q 485 1003 500 1003 q 428 982 457 1003 l 378 1090 q 571 1147 479 1147 z "},"ȇ":{"ha":842,"x_min":28,"x_max":825,"o":"m 469 765 q 730 677 635 765 q 825 436 825 589 q 824 394 825 408 l 325 288 q 372 221 340 244 q 450 197 404 197 q 542 220 494 197 q 633 285 589 243 l 776 144 q 407 -10 629 -10 q 206 33 292 -10 q 74 154 121 76 q 28 336 28 232 q 83 558 28 461 q 239 710 139 656 q 469 765 339 765 m 556 482 q 526 551 551 526 q 461 575 501 575 q 369 536 407 575 q 318 431 331 497 l 556 482 m 567 829 q 555 883 571 863 q 510 904 539 904 q 456 883 479 904 q 422 829 432 863 l 251 829 q 356 998 278 935 q 540 1061 433 1061 q 688 1011 633 1061 q 742 875 742 961 q 738 829 742 853 l 567 829 z "},"ē":{"ha":842,"x_min":28,"x_max":825,"o":"m 469 765 q 730 677 635 765 q 825 436 825 589 q 824 394 825 408 l 325 288 q 372 221 340 244 q 450 197 404 197 q 542 220 494 197 q 633 285 589 243 l 776 144 q 407 -10 629 -10 q 206 33 292 -10 q 74 154 121 76 q 28 336 28 232 q 83 558 28 461 q 239 710 139 656 q 469 765 339 765 m 556 482 q 526 551 551 526 q 461 575 501 575 q 369 536 407 575 q 318 431 331 497 l 556 482 m 319 1044 l 756 1044 l 725 885 l 288 885 l 319 1044 z "},"ḗ":{"ha":842,"x_min":28,"x_max":825,"o":"m 469 765 q 730 677 635 765 q 825 436 825 589 q 824 394 825 408 l 325 288 q 372 221 340 244 q 450 197 404 197 q 542 220 494 197 q 633 285 589 243 l 776 144 q 407 -10 629 -10 q 206 33 292 -10 q 74 154 121 76 q 28 336 28 232 q 83 558 28 461 q 239 710 139 656 q 469 765 339 765 m 556 482 q 526 551 551 526 q 461 575 501 575 q 369 536 407 575 q 318 431 331 497 l 556 482 m 306 985 l 731 985 l 701 833 l 276 833 l 306 985 m 592 1276 l 774 1169 l 542 1046 l 385 1086 l 592 1276 z "},"ḕ":{"ha":842,"x_min":28,"x_max":825,"o":"m 469 765 q 730 677 635 765 q 825 436 825 589 q 824 394 825 408 l 325 288 q 372 221 340 244 q 450 197 404 197 q 542 220 494 197 q 633 285 589 243 l 776 144 q 407 -10 629 -10 q 206 33 292 -10 q 74 154 121 76 q 28 336 28 232 q 83 558 28 461 q 239 710 139 656 q 469 765 339 765 m 556 482 q 526 551 551 526 q 461 575 501 575 q 369 536 407 575 q 318 431 331 497 l 556 482 m 313 985 l 738 985 l 708 833 l 283 833 l 313 985 m 471 1276 l 678 1086 l 521 1046 l 290 1169 l 471 1276 z "},"ę":{"ha":842,"x_min":28,"x_max":825,"o":"m 469 765 q 730 677 635 765 q 825 436 825 589 q 824 394 825 408 l 325 288 q 372 221 340 244 q 450 197 404 197 q 542 220 494 197 q 633 285 589 243 l 776 144 q 700 78 744 110 q 587 -38 631 22 q 543 -139 543 -99 q 567 -167 543 -167 q 606 -156 583 -167 l 618 -299 q 474 -331 539 -331 q 374 -301 411 -331 q 338 -211 338 -271 q 365 -107 338 -156 q 450 -8 392 -58 q 407 -10 436 -10 q 206 33 292 -10 q 74 154 121 76 q 28 336 28 232 q 83 558 28 461 q 239 710 139 656 q 469 765 339 765 m 556 482 q 526 551 551 526 q 461 575 501 575 q 369 536 407 575 q 318 431 331 497 l 556 482 z "},"ẽ":{"ha":842,"x_min":28,"x_max":825,"o":"m 469 765 q 730 677 635 765 q 825 436 825 589 q 824 394 825 408 l 325 288 q 372 221 340 244 q 450 197 404 197 q 542 220 494 197 q 633 285 589 243 l 776 144 q 407 -10 629 -10 q 206 33 292 -10 q 74 154 121 76 q 28 336 28 232 q 83 558 28 461 q 239 710 139 656 q 469 765 339 765 m 556 482 q 526 551 551 526 q 461 575 501 575 q 369 536 407 575 q 318 431 331 497 l 556 482 m 807 1060 q 739 885 783 942 q 621 828 694 828 q 558 838 586 828 q 500 867 531 849 q 447 888 464 888 q 396 832 408 888 l 246 832 q 314 1006 268 949 q 433 1064 360 1064 q 493 1054 467 1064 q 553 1026 519 1044 q 582 1012 568 1018 q 606 1006 596 1006 q 638 1019 626 1006 q 657 1060 650 1032 l 807 1060 z "},"ə":{"ha":850,"x_min":25,"x_max":822,"o":"m 443 765 q 644 722 558 765 q 776 601 729 679 q 822 418 822 522 q 766 196 822 293 q 609 44 710 99 q 378 -10 508 -10 q 119 78 214 -10 q 25 319 25 167 q 26 361 25 347 l 526 467 q 478 533 511 510 q 400 557 446 557 q 308 535 356 557 q 217 471 260 513 l 74 611 q 443 765 224 765 m 389 181 q 481 219 443 181 q 532 325 519 258 l 294 274 q 324 205 299 229 q 389 181 349 181 z "},"f":{"ha":506,"x_min":-6,"x_max":665,"o":"m 533 825 q 461 801 493 825 q 422 740 429 776 l 418 717 l 574 717 l 539 538 l 382 538 l 274 0 l -6 0 l 154 797 q 269 979 179 915 q 489 1043 358 1043 q 665 1011 581 1043 l 597 810 q 533 825 560 825 z "},"g":{"ha":911,"x_min":-39,"x_max":907,"o":"m 313 -282 q 118 -253 208 -282 q -39 -176 28 -224 l 76 0 q 181 -48 121 -32 q 300 -64 242 -64 q 428 -27 378 -64 q 492 72 479 10 l 500 115 q 297 43 410 43 q 158 81 219 43 q 63 187 97 119 q 29 342 29 254 q 78 556 29 460 q 213 709 128 653 q 400 765 299 765 q 524 738 471 765 q 607 656 576 710 l 628 756 l 907 756 l 765 44 q 614 -196 736 -110 q 313 -282 492 -282 m 411 253 q 513 301 471 253 q 556 418 556 350 q 528 504 556 472 q 454 536 500 536 q 354 484 396 536 q 313 360 313 432 q 339 281 313 310 q 411 253 365 253 z "},"ğ":{"ha":911,"x_min":-39,"x_max":907,"o":"m 313 -282 q 118 -253 208 -282 q -39 -176 28 -224 l 76 0 q 181 -48 121 -32 q 300 -64 242 -64 q 428 -27 378 -64 q 492 72 479 10 l 500 115 q 297 43 410 43 q 158 81 219 43 q 63 187 97 119 q 29 342 29 254 q 78 556 29 460 q 213 709 128 653 q 400 765 299 765 q 524 738 471 765 q 607 656 576 710 l 628 756 l 907 756 l 765 44 q 614 -196 736 -110 q 313 -282 492 -282 m 411 253 q 513 301 471 253 q 556 418 556 350 q 528 504 556 472 q 454 536 500 536 q 354 484 396 536 q 313 360 313 432 q 339 281 313 310 q 411 253 365 253 m 514 1063 q 526 1008 510 1029 q 571 988 542 988 q 625 1008 601 988 q 658 1063 649 1029 l 829 1063 q 725 894 803 957 q 540 831 647 831 q 393 881 447 831 q 339 1017 339 931 q 343 1063 339 1040 l 514 1063 z "},"ǧ":{"ha":911,"x_min":-39,"x_max":907,"o":"m 313 -282 q 118 -253 208 -282 q -39 -176 28 -224 l 76 0 q 181 -48 121 -32 q 300 -64 242 -64 q 428 -27 378 -64 q 492 72 479 10 l 500 115 q 297 43 410 43 q 158 81 219 43 q 63 187 97 119 q 29 342 29 254 q 78 556 29 460 q 213 709 128 653 q 400 765 299 765 q 524 738 471 765 q 607 656 576 710 l 628 756 l 907 756 l 765 44 q 614 -196 736 -110 q 313 -282 492 -282 m 411 253 q 513 301 471 253 q 556 418 556 350 q 528 504 556 472 q 454 536 500 536 q 354 484 396 536 q 313 360 313 432 q 339 281 313 310 q 411 253 365 253 m 672 1063 l 858 1063 l 664 844 l 424 844 l 313 1063 l 499 1063 l 567 967 l 672 1063 z "},"ĝ":{"ha":911,"x_min":-39,"x_max":907,"o":"m 313 -282 q 118 -253 208 -282 q -39 -176 28 -224 l 76 0 q 181 -48 121 -32 q 300 -64 242 -64 q 428 -27 378 -64 q 492 72 479 10 l 500 115 q 297 43 410 43 q 158 81 219 43 q 63 187 97 119 q 29 342 29 254 q 78 556 29 460 q 213 709 128 653 q 400 765 299 765 q 524 738 471 765 q 607 656 576 710 l 628 756 l 907 756 l 765 44 q 614 -196 736 -110 q 313 -282 492 -282 m 411 253 q 513 301 471 253 q 556 418 556 350 q 528 504 556 472 q 454 536 500 536 q 354 484 396 536 q 313 360 313 432 q 339 281 313 310 q 411 253 365 253 m 817 846 l 631 846 l 563 942 l 457 846 l 271 846 l 465 1064 l 706 1064 l 817 846 z "},"ģ":{"ha":911,"x_min":-39,"x_max":907,"o":"m 313 -282 q 118 -253 208 -282 q -39 -176 28 -224 l 76 0 q 181 -48 121 -32 q 300 -64 242 -64 q 428 -27 378 -64 q 492 72 479 10 l 500 115 q 297 43 410 43 q 158 81 219 43 q 63 187 97 119 q 29 342 29 254 q 78 556 29 460 q 213 709 128 653 q 400 765 299 765 q 524 738 471 765 q 607 656 576 710 l 628 756 l 907 756 l 765 44 q 614 -196 736 -110 q 313 -282 492 -282 m 411 253 q 513 301 471 253 q 556 418 556 350 q 528 504 556 472 q 454 536 500 536 q 354 484 396 536 q 313 360 313 432 q 339 281 313 310 q 411 253 365 253 m 646 846 l 424 846 l 578 1094 l 733 1094 l 646 846 z "},"ġ":{"ha":911,"x_min":-39,"x_max":907,"o":"m 313 -282 q 118 -253 208 -282 q -39 -176 28 -224 l 76 0 q 181 -48 121 -32 q 300 -64 242 -64 q 428 -27 378 -64 q 492 72 479 10 l 500 115 q 297 43 410 43 q 158 81 219 43 q 63 187 97 119 q 29 342 29 254 q 78 556 29 460 q 213 709 128 653 q 400 765 299 765 q 524 738 471 765 q 607 656 576 710 l 628 756 l 907 756 l 765 44 q 614 -196 736 -110 q 313 -282 492 -282 m 411 253 q 513 301 471 253 q 556 418 556 350 q 528 504 556 472 q 454 536 500 536 q 354 484 396 536 q 313 360 313 432 q 339 281 313 310 q 411 253 365 253 m 596 1115 q 683 1083 650 1115 q 715 997 715 1050 q 664 876 715 925 q 539 826 613 826 q 452 859 485 826 q 419 944 419 892 q 471 1066 419 1017 q 596 1115 522 1115 z "},"ḡ":{"ha":911,"x_min":-39,"x_max":907,"o":"m 313 -282 q 118 -253 208 -282 q -39 -176 28 -224 l 76 0 q 181 -48 121 -32 q 300 -64 242 -64 q 428 -27 378 -64 q 492 72 479 10 l 500 115 q 297 43 410 43 q 158 81 219 43 q 63 187 97 119 q 29 342 29 254 q 78 556 29 460 q 213 709 128 653 q 400 765 299 765 q 524 738 471 765 q 607 656 576 710 l 628 756 l 907 756 l 765 44 q 614 -196 736 -110 q 313 -282 492 -282 m 411 253 q 513 301 471 253 q 556 418 556 350 q 528 504 556 472 q 454 536 500 536 q 354 484 396 536 q 313 360 313 432 q 339 281 313 310 q 411 253 365 253 m 365 1044 l 801 1044 l 771 885 l 333 885 l 365 1044 z "},"h":{"ha":954,"x_min":19,"x_max":911,"o":"m 658 765 q 842 696 772 765 q 911 517 911 626 q 904 447 911 486 l 814 0 l 533 0 l 614 406 q 618 439 618 425 q 594 507 618 482 q 528 532 569 532 q 431 488 474 532 q 375 376 388 444 l 300 0 l 19 0 l 222 1031 l 504 1031 l 431 658 q 658 765 522 765 z "},"ħ":{"ha":947,"x_min":19,"x_max":901,"o":"m 646 714 q 831 648 761 714 q 901 478 901 582 q 896 418 901 446 l 814 0 l 533 0 l 608 375 q 611 400 611 392 q 587 458 611 436 q 519 479 563 479 q 424 442 467 479 q 369 346 382 404 l 300 0 l 19 0 l 176 794 l 89 794 l 115 924 l 201 924 l 222 1031 l 504 1031 l 482 924 l 706 924 l 681 794 l 456 794 l 419 615 q 646 714 511 714 z "},"ḫ":{"ha":954,"x_min":19,"x_max":911,"o":"m 658 765 q 842 696 772 765 q 911 517 911 626 q 904 447 911 486 l 814 0 l 533 0 l 614 406 q 618 439 618 425 q 594 507 618 482 q 528 532 569 532 q 431 488 474 532 q 375 376 388 444 l 300 0 l 19 0 l 222 1031 l 504 1031 l 431 658 q 658 765 522 765 m 313 -85 q 324 -139 308 -118 q 369 -160 340 -160 q 424 -139 400 -160 q 457 -85 447 -118 l 628 -85 q 524 -253 601 -190 q 339 -317 446 -317 q 192 -267 246 -317 q 138 -131 138 -217 q 142 -85 138 -108 l 313 -85 z "},"ĥ":{"ha":954,"x_min":19,"x_max":911,"o":"m 658 765 q 842 696 772 765 q 911 517 911 626 q 904 447 911 486 l 814 0 l 533 0 l 614 406 q 618 439 618 425 q 594 507 618 482 q 528 532 569 532 q 431 488 474 532 q 375 376 388 444 l 300 0 l 19 0 l 222 1031 l 504 1031 l 431 658 q 658 765 522 765 m 647 1106 l 461 1106 l 393 1201 l 288 1106 l 101 1106 l 296 1324 l 536 1324 l 647 1106 z "},"ḥ":{"ha":954,"x_min":19,"x_max":911,"o":"m 658 765 q 842 696 772 765 q 911 517 911 626 q 904 447 911 486 l 814 0 l 533 0 l 614 406 q 618 439 618 425 q 594 507 618 482 q 528 532 569 532 q 431 488 474 532 q 375 376 388 444 l 300 0 l 19 0 l 222 1031 l 504 1031 l 431 658 q 658 765 522 765 m 385 -92 q 472 -124 439 -92 q 504 -210 504 -157 q 453 -331 504 -282 q 328 -381 401 -381 q 241 -348 274 -381 q 208 -262 208 -315 q 260 -141 208 -190 q 385 -92 311 -92 z "},"i":{"ha":451,"x_min":10,"x_max":492,"o":"m 442 756 l 290 0 l 10 0 l 161 756 l 442 756 m 372 1115 q 459 1083 426 1115 q 492 997 492 1050 q 440 876 492 925 q 315 826 389 826 q 228 859 261 826 q 196 944 196 892 q 247 1066 196 1017 q 372 1115 299 1115 z "},"ı":{"ha":451,"x_min":10,"x_max":442,"o":"m 442 756 l 290 0 l 10 0 l 161 756 l 442 756 z "},"í":{"ha":451,"x_min":10,"x_max":575,"o":"m 442 756 l 290 0 l 10 0 l 161 756 l 442 756 m 354 1076 l 575 996 l 361 826 l 178 840 l 354 1076 z "},"ĭ":{"ha":451,"x_min":10,"x_max":604,"o":"m 442 756 l 290 0 l 10 0 l 161 756 l 442 756 m 289 1063 q 301 1008 285 1029 q 346 988 317 988 q 400 1008 376 988 q 433 1063 424 1029 l 604 1063 q 500 894 578 957 q 315 831 422 831 q 168 881 222 831 q 114 1017 114 931 q 118 1063 114 1040 l 289 1063 z "},"î":{"ha":451,"x_min":10,"x_max":592,"o":"m 442 756 l 290 0 l 10 0 l 161 756 l 442 756 m 592 846 l 406 846 l 338 942 l 232 846 l 46 846 l 240 1064 l 481 1064 l 592 846 z "},"ȉ":{"ha":451,"x_min":8,"x_max":586,"o":"m 442 756 l 290 0 l 10 0 l 161 756 l 442 756 m 229 1078 l 296 840 l 99 826 l 8 1007 l 229 1078 m 519 1078 l 586 840 l 389 826 l 300 1007 l 519 1078 z "},"ï":{"ha":451,"x_min":10,"x_max":590,"o":"m 442 756 l 290 0 l 10 0 l 161 756 l 442 756 m 229 1075 q 298 1049 272 1075 q 324 979 324 1022 q 283 884 324 924 q 185 844 242 844 q 116 871 142 844 q 90 939 90 897 q 131 1035 90 996 q 229 1075 172 1075 m 496 1075 q 565 1049 539 1075 q 590 979 590 1022 q 550 884 590 924 q 453 844 510 844 q 383 871 410 844 q 357 939 357 897 q 398 1035 357 996 q 496 1075 439 1075 z "},"ḯ":{"ha":451,"x_min":10,"x_max":614,"o":"m 442 756 l 290 0 l 10 0 l 161 756 l 442 756 m 221 1063 q 290 1037 264 1063 q 315 969 315 1011 q 275 874 315 914 q 178 835 235 835 q 109 860 135 835 q 83 928 83 886 q 123 1024 83 986 q 221 1063 163 1063 m 506 1063 q 574 1037 549 1063 q 600 969 600 1011 q 560 874 600 914 q 463 835 519 835 q 394 860 419 835 q 368 928 368 886 q 408 1024 368 986 q 506 1063 447 1063 m 432 1328 l 614 1221 l 382 1097 l 225 1138 l 432 1328 z "},"ị":{"ha":451,"x_min":-40,"x_max":492,"o":"m 442 756 l 290 0 l 10 0 l 161 756 l 442 756 m 372 1115 q 459 1083 426 1115 q 492 997 492 1050 q 440 876 492 925 q 315 826 389 826 q 228 859 261 826 q 196 944 196 892 q 247 1066 196 1017 q 372 1115 299 1115 m 136 -92 q 223 -124 190 -92 q 256 -210 256 -157 q 204 -331 256 -282 q 79 -381 153 -381 q -8 -348 25 -381 q -40 -262 -40 -315 q 11 -141 -40 -190 q 136 -92 63 -92 z "},"ì":{"ha":451,"x_min":10,"x_max":476,"o":"m 442 756 l 290 0 l 10 0 l 161 756 l 442 756 m 326 1076 l 476 840 l 292 826 l 106 996 l 326 1076 z "},"ỉ":{"ha":451,"x_min":10,"x_max":529,"o":"m 442 756 l 290 0 l 10 0 l 161 756 l 442 756 m 392 1147 q 494 1117 458 1147 q 529 1035 529 1086 q 363 813 529 924 l 253 861 q 315 920 293 890 q 338 972 338 950 q 329 994 338 986 q 306 1003 321 1003 q 249 982 278 1003 l 199 1090 q 392 1147 300 1147 z "},"ȋ":{"ha":451,"x_min":10,"x_max":557,"o":"m 442 756 l 290 0 l 10 0 l 161 756 l 442 756 m 375 831 q 376 846 376 836 q 365 888 376 871 q 332 904 353 904 q 289 883 308 904 q 260 831 269 863 l 83 831 q 187 999 111 936 q 365 1061 263 1061 q 506 1012 454 1061 q 557 878 557 963 q 553 831 557 856 l 375 831 z "},"ĳ":{"ha":903,"x_min":10,"x_max":931,"o":"m 442 756 l 290 0 l 10 0 l 161 756 l 442 756 m 372 1115 q 459 1083 426 1115 q 492 997 492 1050 q 440 876 492 925 q 315 826 389 826 q 228 859 261 826 q 196 944 196 892 q 247 1066 196 1017 q 372 1115 299 1115 m 324 -58 q 365 -62 340 -62 q 431 -37 403 -62 q 467 28 458 -11 l 611 756 l 892 756 l 735 -37 q 628 -217 711 -154 q 419 -281 544 -281 q 246 -247 329 -281 l 324 -58 m 811 1115 q 898 1083 865 1115 q 931 997 931 1050 q 879 876 931 925 q 754 826 828 826 q 667 859 700 826 q 635 944 635 892 q 686 1066 635 1017 q 811 1115 738 1115 z "},"ī":{"ha":451,"x_min":10,"x_max":560,"o":"m 442 756 l 290 0 l 10 0 l 161 756 l 442 756 m 157 1044 l 560 1044 l 529 885 l 125 885 l 157 1044 z "},"į":{"ha":451,"x_min":-106,"x_max":490,"o":"m 314 826 q 227 859 260 826 q 194 944 194 892 q 246 1066 194 1017 q 371 1115 297 1115 q 458 1083 425 1115 q 490 997 490 1050 q 439 876 490 925 q 314 826 388 826 m 161 756 l 442 756 l 290 0 l 226 0 q 131 -72 164 -39 q 99 -140 99 -106 q 122 -167 99 -167 q 163 -156 138 -167 l 175 -299 q 25 -331 94 -331 q -73 -297 -40 -331 q -106 -208 -106 -264 q 11 4 -106 -103 l 161 756 z "},"ĩ":{"ha":451,"x_min":10,"x_max":617,"o":"m 442 756 l 290 0 l 10 0 l 161 756 l 442 756 m 617 1057 q 546 881 590 938 q 433 825 501 825 q 379 835 403 825 q 325 863 356 844 q 301 876 313 869 q 279 882 289 882 q 233 829 244 882 l 82 829 q 152 1004 107 947 q 268 1061 197 1061 q 324 1051 300 1061 q 376 1024 349 1040 q 419 1004 406 1004 q 467 1057 454 1004 l 617 1057 z "},"j":{"ha":451,"x_min":-206,"x_max":479,"o":"m -128 -58 q -86 -62 -111 -62 q -21 -37 -49 -62 q 15 28 7 -11 l 160 756 l 440 756 l 283 -37 q 176 -217 260 -154 q -32 -281 93 -281 q -206 -247 -122 -281 l -128 -58 m 360 1115 q 447 1083 414 1115 q 479 997 479 1050 q 428 876 479 925 q 303 826 376 826 q 216 859 249 826 q 183 944 183 892 q 235 1066 183 1017 q 360 1115 286 1115 z "},"ȷ":{"ha":451,"x_min":-206,"x_max":440,"o":"m -128 -58 q -86 -62 -111 -62 q -21 -37 -49 -62 q 15 28 7 -11 l 160 756 l 440 756 l 283 -37 q 176 -217 260 -154 q -32 -281 93 -281 q -206 -247 -122 -281 l -128 -58 z "},"ĵ":{"ha":451,"x_min":-206,"x_max":581,"o":"m -128 -58 q -86 -62 -111 -62 q -21 -37 -49 -62 q 15 28 7 -11 l 160 756 l 440 756 l 283 -37 q 176 -217 260 -154 q -32 -281 93 -281 q -206 -247 -122 -281 l -128 -58 m 581 846 l 394 846 l 326 942 l 221 846 l 35 846 l 229 1064 l 469 1064 l 581 846 z "},"k":{"ha":929,"x_min":17,"x_max":1003,"o":"m 1003 756 l 647 447 l 836 0 l 511 0 l 426 257 l 332 174 l 297 0 l 17 0 l 222 1031 l 503 1031 l 403 531 l 654 756 l 1003 756 z "},"ķ":{"ha":929,"x_min":17,"x_max":1003,"o":"m 1003 756 l 647 447 l 836 0 l 511 0 l 426 257 l 332 174 l 297 0 l 17 0 l 222 1031 l 503 1031 l 403 531 l 654 756 l 1003 756 m 275 -83 l 497 -83 l 343 -332 l 188 -332 l 275 -83 z "},"ĸ":{"ha":922,"x_min":10,"x_max":996,"o":"m 996 756 l 640 447 l 829 0 l 504 0 l 419 257 l 325 175 l 290 0 l 10 0 l 161 756 l 442 756 l 397 531 l 647 756 l 996 756 z "},"l":{"ha":510,"x_min":49,"x_max":482,"o":"m 482 1031 l 335 289 q 332 264 332 269 q 342 235 332 243 q 371 228 351 228 q 454 251 404 228 l 440 13 q 300 -14 372 -14 q 119 49 190 -14 q 49 225 49 111 q 57 303 49 261 l 203 1031 l 482 1031 z "},"ĺ":{"ha":510,"x_min":49,"x_max":604,"o":"m 482 1031 l 335 289 q 332 264 332 269 q 342 235 332 243 q 371 228 351 228 q 454 251 404 228 l 440 13 q 300 -14 372 -14 q 119 49 190 -14 q 49 225 49 111 q 57 303 49 261 l 203 1031 l 482 1031 m 383 1346 l 604 1265 l 390 1096 l 207 1110 l 383 1346 z "},"ľ":{"ha":603,"x_min":49,"x_max":772,"o":"m 482 1031 l 335 289 q 332 264 332 269 q 342 235 332 243 q 371 228 351 228 q 454 251 404 228 l 440 13 q 300 -14 372 -14 q 119 49 190 -14 q 49 225 49 111 q 57 303 49 261 l 203 1031 l 482 1031 m 567 1031 l 772 1031 l 669 718 l 506 718 l 567 1031 z "},"ļ":{"ha":510,"x_min":-7,"x_max":482,"o":"m 482 1031 l 335 289 q 332 264 332 269 q 342 235 332 243 q 371 228 351 228 q 454 251 404 228 l 440 13 q 300 -14 372 -14 q 119 49 190 -14 q 49 225 49 111 q 57 303 49 261 l 203 1031 l 482 1031 m 81 -83 l 303 -83 l 149 -332 l -7 -332 l 81 -83 z "},"ŀ":{"ha":744,"x_min":49,"x_max":749,"o":"m 482 1031 l 335 289 q 332 264 332 269 q 342 235 332 243 q 371 228 351 228 q 454 251 404 228 l 440 13 q 300 -14 372 -14 q 119 49 190 -14 q 49 225 49 111 q 57 303 49 261 l 203 1031 l 482 1031 m 632 688 q 717 656 686 688 q 749 572 749 624 q 699 453 749 501 q 576 406 649 406 q 492 438 524 406 q 460 521 460 469 q 510 640 460 592 q 632 688 561 688 z "},"ḷ":{"ha":510,"x_min":17,"x_max":482,"o":"m 482 1031 l 335 289 q 332 264 332 269 q 342 235 332 243 q 371 228 351 228 q 454 251 404 228 l 440 13 q 300 -14 372 -14 q 119 49 190 -14 q 49 225 49 111 q 57 303 49 261 l 203 1031 l 482 1031 m 193 -92 q 280 -124 247 -92 q 313 -210 313 -157 q 261 -331 313 -282 q 136 -381 210 -381 q 49 -348 82 -381 q 17 -262 17 -315 q 68 -141 17 -190 q 193 -92 119 -92 z "},"ǉ":{"ha":960,"x_min":49,"x_max":989,"o":"m 482 1031 l 335 289 q 332 264 332 269 q 342 235 332 243 q 371 228 351 228 q 454 251 404 228 l 440 13 q 300 -14 372 -14 q 119 49 190 -14 q 49 225 49 111 q 57 303 49 261 l 203 1031 l 482 1031 m 382 -58 q 424 -62 399 -62 q 489 -37 461 -62 q 525 28 517 -11 l 669 756 l 950 756 l 793 -37 q 686 -217 769 -154 q 478 -281 603 -281 q 304 -247 388 -281 l 382 -58 m 869 1115 q 956 1083 924 1115 q 989 997 989 1050 q 938 876 989 925 q 813 826 886 826 q 726 859 758 826 q 693 944 693 892 q 744 1066 693 1017 q 869 1115 796 1115 z "},"ḻ":{"ha":510,"x_min":-43,"x_max":482,"o":"m 482 1031 l 335 289 q 332 264 332 269 q 342 235 332 243 q 371 228 351 228 q 454 251 404 228 l 440 13 q 300 -14 372 -14 q 119 49 190 -14 q 49 225 49 111 q 57 303 49 261 l 203 1031 l 482 1031 m -11 -106 l 392 -106 l 360 -267 l -43 -267 l -11 -106 z "},"ł":{"ha":610,"x_min":4,"x_max":653,"o":"m 407 289 q 404 264 404 269 q 414 235 404 243 q 443 228 424 228 q 526 251 476 228 l 513 13 q 372 -14 444 -14 q 192 49 263 -14 q 121 225 121 111 q 129 303 121 261 l 143 374 l 4 308 l 35 460 l 174 525 l 275 1031 l 554 1031 l 482 669 l 653 749 l 624 597 l 453 517 l 407 289 z "},"m":{"ha":1503,"x_min":51,"x_max":1460,"o":"m 1208 765 q 1391 697 1322 765 q 1460 518 1460 628 q 1453 447 1460 479 l 1364 0 l 1083 0 l 1164 406 q 1167 438 1167 428 q 1143 507 1167 482 q 1078 532 1119 532 q 988 495 1028 532 q 929 399 947 458 l 849 0 l 568 0 l 650 406 q 653 438 653 428 q 629 507 653 482 q 563 532 606 532 q 466 489 508 532 q 410 376 424 446 l 335 0 l 54 0 l 147 467 q 151 494 151 483 q 111 528 151 528 q 51 515 85 528 l 100 758 q 183 768 144 768 q 403 621 357 768 l 411 590 q 537 721 465 676 q 693 765 608 765 q 847 722 783 765 q 933 601 910 678 q 1208 765 1049 765 z "},"ṃ":{"ha":1461,"x_min":11,"x_max":1418,"o":"m 1165 765 q 1349 696 1279 765 q 1418 517 1418 626 q 1411 447 1418 486 l 1321 0 l 1040 0 l 1121 406 q 1125 439 1125 425 q 1101 507 1125 482 q 1035 532 1076 532 q 938 488 981 532 q 882 376 894 444 l 807 0 l 526 0 l 607 406 q 611 439 611 425 q 587 507 611 482 q 521 532 563 532 q 424 488 468 532 q 367 376 381 444 l 292 0 l 11 0 l 161 756 l 442 756 l 424 658 q 651 765 514 765 q 803 722 740 765 q 892 603 867 678 q 1165 765 1006 765 m 660 -92 q 747 -124 714 -92 q 779 -210 779 -157 q 728 -331 779 -282 q 603 -381 676 -381 q 516 -348 549 -381 q 483 -262 483 -315 q 535 -141 483 -190 q 660 -92 586 -92 z "},"n":{"ha":989,"x_min":51,"x_max":946,"o":"m 147 467 q 151 494 151 483 q 111 528 151 528 q 51 515 85 528 l 100 758 q 183 768 144 768 q 403 621 357 768 l 411 590 q 537 721 465 676 q 693 765 608 765 q 877 697 808 765 q 946 517 946 628 q 939 447 946 486 l 849 0 l 568 0 l 650 406 q 653 438 653 428 q 629 507 653 482 q 563 532 606 532 q 466 489 508 532 q 410 376 424 446 l 335 0 l 54 0 l 147 467 z "},"ń":{"ha":989,"x_min":51,"x_max":946,"o":"m 147 467 q 151 494 151 483 q 111 528 151 528 q 51 515 85 528 l 100 758 q 183 768 144 768 q 403 621 357 768 l 411 590 q 537 721 465 676 q 693 765 608 765 q 877 697 808 765 q 946 517 946 628 q 939 447 946 486 l 849 0 l 568 0 l 650 406 q 653 438 653 428 q 629 507 653 482 q 563 532 606 532 q 466 489 508 532 q 410 376 424 446 l 335 0 l 54 0 l 147 467 m 654 1076 l 875 996 l 661 826 l 478 840 l 654 1076 z "},"ŉ":{"ha":1235,"x_min":79,"x_max":1192,"o":"m 150 974 l 335 974 l 226 608 l 79 608 l 150 974 m 393 467 q 397 494 397 483 q 357 528 397 528 q 297 515 331 528 l 346 758 q 429 768 390 768 q 649 621 603 768 l 657 590 q 783 721 711 676 q 939 765 854 765 q 1123 697 1054 765 q 1192 517 1192 628 q 1185 447 1192 486 l 1094 0 l 814 0 l 896 406 q 899 438 899 428 q 875 507 899 482 q 808 532 851 532 q 712 489 754 532 q 656 376 669 446 l 581 0 l 300 0 l 393 467 z "},"ň":{"ha":989,"x_min":51,"x_max":946,"o":"m 147 467 q 151 494 151 483 q 111 528 151 528 q 51 515 85 528 l 100 758 q 183 768 144 768 q 403 621 357 768 l 411 590 q 537 721 465 676 q 693 765 608 765 q 877 697 808 765 q 946 517 946 628 q 939 447 946 486 l 849 0 l 568 0 l 650 406 q 653 438 653 428 q 629 507 653 482 q 563 532 606 532 q 466 489 508 532 q 410 376 424 446 l 335 0 l 54 0 l 147 467 m 747 1063 l 933 1063 l 739 844 l 499 844 l 388 1063 l 574 1063 l 642 967 l 747 1063 z "},"ņ":{"ha":989,"x_min":51,"x_max":946,"o":"m 147 467 q 151 494 151 483 q 111 528 151 528 q 51 515 85 528 l 100 758 q 183 768 144 768 q 403 621 357 768 l 411 590 q 537 721 465 676 q 693 765 608 765 q 877 697 808 765 q 946 517 946 628 q 939 447 946 486 l 849 0 l 568 0 l 650 406 q 653 438 653 428 q 629 507 653 482 q 563 532 606 532 q 466 489 508 532 q 410 376 424 446 l 335 0 l 54 0 l 147 467 m 333 -83 l 556 -83 l 401 -332 l 246 -332 l 333 -83 z "},"ṅ":{"ha":947,"x_min":11,"x_max":903,"o":"m 664 1115 q 751 1083 718 1115 q 783 997 783 1050 q 732 876 783 925 q 607 826 681 826 q 520 859 553 826 q 488 944 488 892 q 539 1066 488 1017 q 664 1115 590 1115 m 651 765 q 834 697 765 765 q 903 518 903 628 q 896 447 903 479 l 807 0 l 526 0 l 607 406 q 611 439 611 425 q 587 507 611 482 q 521 532 563 532 q 424 488 468 532 q 367 376 381 444 l 292 0 l 11 0 l 161 756 l 442 756 l 424 658 q 651 765 514 765 z "},"ṇ":{"ha":947,"x_min":11,"x_max":903,"o":"m 651 765 q 834 697 765 765 q 903 518 903 628 q 896 447 903 479 l 807 0 l 526 0 l 607 406 q 611 439 611 425 q 587 507 611 482 q 521 532 563 532 q 424 488 468 532 q 367 376 381 444 l 292 0 l 11 0 l 161 756 l 442 756 l 424 658 q 651 765 514 765 m 401 -92 q 488 -124 456 -92 q 521 -210 521 -157 q 469 -331 521 -282 q 344 -381 418 -381 q 258 -348 290 -381 q 225 -262 225 -315 q 276 -141 225 -190 q 401 -92 328 -92 z "},"ŋ":{"ha":1010,"x_min":51,"x_max":946,"o":"m 528 -281 q 314 -228 410 -281 l 400 -46 q 474 -62 432 -62 q 539 -37 511 -62 q 574 28 567 -11 l 650 406 q 653 438 653 428 q 629 507 653 482 q 563 532 606 532 q 466 489 508 532 q 410 376 424 446 l 335 0 l 54 0 l 147 467 q 151 494 151 483 q 111 528 151 528 q 51 515 85 528 l 100 758 q 183 768 144 768 q 403 621 357 768 l 411 590 q 537 721 465 676 q 693 765 608 765 q 877 697 808 765 q 946 517 946 628 q 939 447 946 486 l 842 -37 q 735 -217 818 -154 q 528 -281 651 -281 z "},"ǌ":{"ha":1440,"x_min":51,"x_max":1468,"o":"m 147 467 q 151 494 151 483 q 111 528 151 528 q 51 515 85 528 l 100 758 q 183 768 144 768 q 403 621 357 768 l 411 590 q 537 721 465 676 q 693 765 608 765 q 877 697 808 765 q 946 517 946 628 q 939 447 946 486 l 849 0 l 568 0 l 650 406 q 653 438 653 428 q 629 507 653 482 q 563 532 606 532 q 466 489 508 532 q 410 376 424 446 l 335 0 l 54 0 l 147 467 m 861 -58 q 903 -62 878 -62 q 968 -37 940 -62 q 1004 28 996 -11 l 1149 756 l 1429 756 l 1272 -37 q 1165 -217 1249 -154 q 957 -281 1082 -281 q 783 -247 867 -281 l 861 -58 m 1349 1115 q 1435 1083 1403 1115 q 1468 997 1468 1050 q 1417 876 1468 925 q 1292 826 1365 826 q 1205 859 1238 826 q 1172 944 1172 892 q 1224 1066 1172 1017 q 1349 1115 1275 1115 z "},"ṉ":{"ha":947,"x_min":11,"x_max":903,"o":"m 651 765 q 834 697 765 765 q 903 518 903 628 q 896 447 903 479 l 807 0 l 526 0 l 607 406 q 611 439 611 425 q 587 507 611 482 q 521 532 563 532 q 424 488 468 532 q 367 376 381 444 l 292 0 l 11 0 l 161 756 l 442 756 l 424 658 q 651 765 514 765 m 197 -106 l 600 -106 l 568 -267 l 165 -267 l 197 -106 z "},"ñ":{"ha":989,"x_min":51,"x_max":946,"o":"m 147 467 q 151 494 151 483 q 111 528 151 528 q 51 515 85 528 l 100 758 q 183 768 144 768 q 403 621 357 768 l 411 590 q 537 721 465 676 q 693 765 608 765 q 877 697 808 765 q 946 517 946 628 q 939 447 946 486 l 849 0 l 568 0 l 650 406 q 653 438 653 428 q 629 507 653 482 q 563 532 606 532 q 466 489 508 532 q 410 376 424 446 l 335 0 l 54 0 l 147 467 m 928 1060 q 860 885 904 942 q 742 828 815 828 q 679 838 707 828 q 621 867 651 849 q 568 888 585 888 q 517 832 529 888 l 367 832 q 435 1006 389 949 q 554 1064 481 1064 q 614 1054 588 1064 q 674 1026 640 1044 q 703 1012 689 1018 q 726 1006 717 1006 q 759 1019 747 1006 q 778 1060 771 1032 l 928 1060 z "},"o":{"ha":901,"x_min":29,"x_max":874,"o":"m 490 765 q 694 722 607 765 q 827 601 781 679 q 874 417 874 522 q 815 194 874 290 q 652 44 757 97 q 413 -10 547 -10 q 209 33 296 -10 q 76 156 122 76 q 29 340 29 235 q 88 562 29 465 q 251 712 146 658 q 490 765 356 765 m 468 543 q 357 490 400 543 q 314 353 314 438 q 347 247 314 286 q 435 207 379 207 q 546 259 503 207 q 589 396 589 311 q 556 503 589 463 q 468 543 524 543 z "},"ó":{"ha":901,"x_min":29,"x_max":874,"o":"m 490 765 q 694 722 607 765 q 827 601 781 679 q 874 417 874 522 q 815 194 874 290 q 652 44 757 97 q 413 -10 547 -10 q 209 33 296 -10 q 76 156 122 76 q 29 340 29 235 q 88 562 29 465 q 251 712 146 658 q 490 765 356 765 m 468 543 q 357 490 400 543 q 314 353 314 438 q 347 247 314 286 q 435 207 379 207 q 546 259 503 207 q 589 396 589 311 q 556 503 589 463 q 468 543 524 543 m 542 1076 l 763 996 l 549 826 l 365 840 l 542 1076 z "},"ŏ":{"ha":901,"x_min":29,"x_max":874,"o":"m 490 765 q 694 722 607 765 q 827 601 781 679 q 874 417 874 522 q 815 194 874 290 q 652 44 757 97 q 413 -10 547 -10 q 209 33 296 -10 q 76 156 122 76 q 29 340 29 235 q 88 562 29 465 q 251 712 146 658 q 490 765 356 765 m 468 543 q 357 490 400 543 q 314 353 314 438 q 347 247 314 286 q 435 207 379 207 q 546 259 503 207 q 589 396 589 311 q 556 503 589 463 q 468 543 524 543 m 476 1063 q 488 1008 472 1029 q 533 988 504 988 q 588 1008 564 988 q 621 1063 611 1029 l 792 1063 q 688 894 765 957 q 503 831 610 831 q 356 881 410 831 q 301 1017 301 931 q 306 1063 301 1040 l 476 1063 z "},"ô":{"ha":901,"x_min":29,"x_max":874,"o":"m 490 765 q 694 722 607 765 q 827 601 781 679 q 874 417 874 522 q 815 194 874 290 q 652 44 757 97 q 413 -10 547 -10 q 209 33 296 -10 q 76 156 122 76 q 29 340 29 235 q 88 562 29 465 q 251 712 146 658 q 490 765 356 765 m 468 543 q 357 490 400 543 q 314 353 314 438 q 347 247 314 286 q 435 207 379 207 q 546 259 503 207 q 589 396 589 311 q 556 503 589 463 q 468 543 524 543 m 779 846 l 593 846 l 525 942 l 419 846 l 233 846 l 428 1064 l 668 1064 l 779 846 z "},"ố":{"ha":901,"x_min":29,"x_max":874,"o":"m 490 765 q 694 722 607 765 q 827 601 781 679 q 874 417 874 522 q 815 194 874 290 q 652 44 757 97 q 413 -10 547 -10 q 209 33 296 -10 q 76 156 122 76 q 29 340 29 235 q 88 562 29 465 q 251 712 146 658 q 490 765 356 765 m 468 543 q 357 490 400 543 q 314 353 314 438 q 347 247 314 286 q 435 207 379 207 q 546 259 503 207 q 589 396 589 311 q 556 503 589 463 q 468 543 524 543 m 807 835 l 594 835 l 524 926 l 417 835 l 206 835 l 404 1015 l 669 1015 l 807 835 m 611 1292 l 793 1185 l 561 1061 l 404 1101 l 611 1292 z "},"ộ":{"ha":901,"x_min":29,"x_max":874,"o":"m 490 765 q 694 722 607 765 q 827 601 781 679 q 874 417 874 522 q 815 194 874 290 q 652 44 757 97 q 413 -10 547 -10 q 209 33 296 -10 q 76 156 122 76 q 29 340 29 235 q 88 562 29 465 q 251 712 146 658 q 490 765 356 765 m 468 543 q 357 490 400 543 q 314 353 314 438 q 347 247 314 286 q 435 207 379 207 q 546 259 503 207 q 589 396 589 311 q 556 503 589 463 q 468 543 524 543 m 400 -92 q 487 -124 454 -92 q 519 -210 519 -157 q 468 -331 519 -282 q 343 -381 417 -381 q 256 -348 289 -381 q 224 -262 224 -315 q 275 -141 224 -190 q 400 -92 326 -92 m 819 846 l 633 846 l 565 942 l 460 846 l 274 846 l 468 1064 l 708 1064 l 819 846 z "},"ồ":{"ha":901,"x_min":29,"x_max":874,"o":"m 490 765 q 694 722 607 765 q 827 601 781 679 q 874 417 874 522 q 815 194 874 290 q 652 44 757 97 q 413 -10 547 -10 q 209 33 296 -10 q 76 156 122 76 q 29 340 29 235 q 88 562 29 465 q 251 712 146 658 q 490 765 356 765 m 468 543 q 357 490 400 543 q 314 353 314 438 q 347 247 314 286 q 435 207 379 207 q 546 259 503 207 q 589 396 589 311 q 556 503 589 463 q 468 543 524 543 m 807 835 l 594 835 l 524 926 l 417 835 l 206 835 l 404 1015 l 669 1015 l 807 835 m 483 1292 l 690 1101 l 533 1061 l 303 1185 l 483 1292 z "},"ổ":{"ha":901,"x_min":29,"x_max":874,"o":"m 490 765 q 694 722 607 765 q 827 601 781 679 q 874 417 874 522 q 815 194 874 290 q 652 44 757 97 q 413 -10 547 -10 q 209 33 296 -10 q 76 156 122 76 q 29 340 29 235 q 88 562 29 465 q 251 712 146 658 q 490 765 356 765 m 468 543 q 357 490 400 543 q 314 353 314 438 q 347 247 314 286 q 435 207 379 207 q 546 259 503 207 q 589 396 589 311 q 556 503 589 463 q 468 543 524 543 m 804 835 l 592 835 l 521 926 l 414 835 l 203 835 l 401 1015 l 667 1015 l 804 835 m 592 1307 q 681 1282 653 1307 q 710 1219 710 1257 q 678 1138 710 1176 q 574 1060 646 1100 l 474 1100 q 522 1133 506 1118 q 539 1163 539 1147 q 514 1182 539 1182 q 467 1167 488 1182 l 421 1258 q 592 1307 513 1307 z "},"ỗ":{"ha":901,"x_min":29,"x_max":874,"o":"m 490 765 q 694 722 607 765 q 827 601 781 679 q 874 417 874 522 q 815 194 874 290 q 652 44 757 97 q 413 -10 547 -10 q 209 33 296 -10 q 76 156 122 76 q 29 340 29 235 q 88 562 29 465 q 251 712 146 658 q 490 765 356 765 m 468 543 q 357 490 400 543 q 314 353 314 438 q 347 247 314 286 q 435 207 379 207 q 546 259 503 207 q 589 396 589 311 q 556 503 589 463 q 468 543 524 543 m 806 835 l 593 835 l 522 926 l 415 835 l 204 835 l 403 1015 l 668 1015 l 806 835 m 840 1257 q 779 1110 821 1158 q 663 1063 738 1063 q 597 1072 626 1063 q 531 1097 568 1081 q 496 1112 513 1106 q 467 1118 479 1118 q 432 1106 443 1118 q 415 1065 421 1093 l 286 1065 q 348 1213 306 1164 q 464 1261 390 1261 q 533 1251 501 1261 q 600 1225 564 1242 q 660 1206 642 1206 q 694 1219 682 1206 q 713 1257 707 1232 l 840 1257 z "},"ȍ":{"ha":901,"x_min":29,"x_max":874,"o":"m 490 765 q 694 722 607 765 q 827 601 781 679 q 874 417 874 522 q 815 194 874 290 q 652 44 757 97 q 413 -10 547 -10 q 209 33 296 -10 q 76 156 122 76 q 29 340 29 235 q 88 562 29 465 q 251 712 146 658 q 490 765 356 765 m 468 543 q 357 490 400 543 q 314 353 314 438 q 347 247 314 286 q 435 207 379 207 q 546 259 503 207 q 589 396 589 311 q 556 503 589 463 q 468 543 524 543 m 417 1078 l 483 840 l 286 826 l 196 1007 l 417 1078 m 707 1078 l 774 840 l 576 826 l 488 1007 l 707 1078 z "},"ö":{"ha":901,"x_min":29,"x_max":874,"o":"m 490 765 q 694 722 607 765 q 827 601 781 679 q 874 417 874 522 q 815 194 874 290 q 652 44 757 97 q 413 -10 547 -10 q 209 33 296 -10 q 76 156 122 76 q 29 340 29 235 q 88 562 29 465 q 251 712 146 658 q 490 765 356 765 m 468 543 q 357 490 400 543 q 314 353 314 438 q 347 247 314 286 q 435 207 379 207 q 546 259 503 207 q 589 396 589 311 q 556 503 589 463 q 468 543 524 543 m 414 1075 q 483 1049 457 1075 q 508 979 508 1022 q 467 884 508 924 q 369 844 426 844 q 300 871 326 844 q 274 939 274 897 q 315 1035 274 996 q 414 1075 356 1075 m 688 1075 q 756 1049 731 1075 q 781 979 781 1022 q 740 884 781 924 q 643 844 700 844 q 574 871 600 844 q 547 939 547 897 q 588 1035 547 996 q 688 1075 629 1075 z "},"ȫ":{"ha":901,"x_min":29,"x_max":874,"o":"m 490 765 q 694 722 607 765 q 827 601 781 679 q 874 417 874 522 q 815 194 874 290 q 652 44 757 97 q 413 -10 547 -10 q 209 33 296 -10 q 76 156 122 76 q 29 340 29 235 q 88 562 29 465 q 251 712 146 658 q 490 765 356 765 m 468 543 q 357 490 400 543 q 314 353 314 438 q 347 247 314 286 q 435 207 379 207 q 546 259 503 207 q 589 396 589 311 q 556 503 589 463 q 468 543 524 543 m 408 1063 q 477 1037 451 1063 q 503 969 503 1011 q 463 874 503 914 q 365 835 422 835 q 297 860 322 835 q 271 928 271 886 q 310 1024 271 986 q 408 1063 350 1063 m 693 1063 q 762 1037 736 1063 q 788 969 788 1011 q 747 874 788 914 q 650 835 707 835 q 581 860 607 835 q 556 928 556 886 q 595 1024 556 986 q 693 1063 635 1063 m 376 1271 l 801 1271 l 772 1119 l 347 1119 l 376 1271 z "},"ȱ":{"ha":901,"x_min":29,"x_max":874,"o":"m 490 765 q 694 722 607 765 q 827 601 781 679 q 874 417 874 522 q 815 194 874 290 q 652 44 757 97 q 413 -10 547 -10 q 209 33 296 -10 q 76 156 122 76 q 29 340 29 235 q 88 562 29 465 q 251 712 146 658 q 490 765 356 765 m 468 543 q 357 490 400 543 q 314 353 314 438 q 347 247 314 286 q 435 207 379 207 q 546 259 503 207 q 589 396 589 311 q 556 503 589 463 q 468 543 524 543 m 565 1081 q 639 1053 611 1081 q 667 981 667 1025 q 624 876 667 918 q 517 833 581 833 q 443 862 471 833 q 415 936 415 890 q 459 1039 415 997 q 565 1081 503 1081 m 390 1271 l 815 1271 l 786 1119 l 361 1119 l 390 1271 z "},"ọ":{"ha":901,"x_min":29,"x_max":874,"o":"m 490 765 q 694 722 607 765 q 827 601 781 679 q 874 417 874 522 q 815 194 874 290 q 652 44 757 97 q 413 -10 547 -10 q 209 33 296 -10 q 76 156 122 76 q 29 340 29 235 q 88 562 29 465 q 251 712 146 658 q 490 765 356 765 m 468 543 q 357 490 400 543 q 314 353 314 438 q 347 247 314 286 q 435 207 379 207 q 546 259 503 207 q 589 396 589 311 q 556 503 589 463 q 468 543 524 543 m 400 -92 q 487 -124 454 -92 q 519 -210 519 -157 q 468 -331 519 -282 q 343 -381 417 -381 q 256 -348 289 -381 q 224 -262 224 -315 q 275 -141 224 -190 q 400 -92 326 -92 z "},"ò":{"ha":901,"x_min":29,"x_max":874,"o":"m 490 765 q 694 722 607 765 q 827 601 781 679 q 874 417 874 522 q 815 194 874 290 q 652 44 757 97 q 413 -10 547 -10 q 209 33 296 -10 q 76 156 122 76 q 29 340 29 235 q 88 562 29 465 q 251 712 146 658 q 490 765 356 765 m 468 543 q 357 490 400 543 q 314 353 314 438 q 347 247 314 286 q 435 207 379 207 q 546 259 503 207 q 589 396 589 311 q 556 503 589 463 q 468 543 524 543 m 514 1076 l 664 840 l 479 826 l 293 996 l 514 1076 z "}}}
